<svg xmlns="http://www.w3.org/2000/svg" xmlns:xlink="http://www.w3.org/1999/xlink" viewBox="0 0 1630.54 1306.51"><defs><style>.cls-1{isolation:isolate;}.cls-2{fill:url(#linear-gradient);}.cls-3{fill:url(#linear-gradient-2);}.cls-4{fill:url(#linear-gradient-3);}.cls-5,.cls-8,.cls-9{mix-blend-mode:multiply;}.cls-5{fill:url(#radial-gradient);}.cls-6{fill:url(#linear-gradient-4);}.cls-7{fill:url(#linear-gradient-5);}.cls-8{fill:url(#radial-gradient-2);}.cls-9{fill:url(#radial-gradient-3);}.cls-10{fill:url(#radial-gradient-4);}.cls-11{fill:url(#linear-gradient-6);}.cls-12{fill:url(#linear-gradient-7);}.cls-13{fill:url(#linear-gradient-8);}.cls-14{fill:url(#linear-gradient-9);}.cls-15{fill:url(#linear-gradient-10);}.cls-16,.cls-29{mix-blend-mode:screen;}.cls-17,.cls-29{fill:#2132cb;}.cls-18{fill:url(#linear-gradient-11);}.cls-19{fill:url(#linear-gradient-12);}.cls-20{fill:url(#linear-gradient-13);}.cls-21{fill:url(#linear-gradient-14);}.cls-22{fill:url(#linear-gradient-15);}.cls-23{fill:url(#linear-gradient-16);}.cls-24{fill:url(#linear-gradient-17);}.cls-25{fill:url(#linear-gradient-18);}.cls-26{fill:url(#linear-gradient-19);}.cls-27{fill:url(#linear-gradient-20);}.cls-28{fill:url(#linear-gradient-21);}.cls-30{fill:url(#linear-gradient-22);}.cls-31{fill:url(#linear-gradient-23);}.cls-32{fill:url(#linear-gradient-24);}.cls-33{fill:url(#linear-gradient-25);}.cls-34{fill:url(#linear-gradient-26);}.cls-35{fill:url(#linear-gradient-27);}.cls-36{fill:url(#linear-gradient-28);}.cls-37{fill:url(#linear-gradient-29);}.cls-38{fill:url(#radial-gradient-5);}.cls-39{fill:url(#radial-gradient-6);}.cls-40{fill:url(#linear-gradient-30);}.cls-41{fill:url(#radial-gradient-7);}.cls-42{fill:url(#linear-gradient-31);}.cls-43{fill:url(#linear-gradient-32);}.cls-44{fill:url(#linear-gradient-33);}</style><linearGradient id="linear-gradient" x1="1113.06" y1="646.67" x2="1417.74" y2="646.67" gradientUnits="userSpaceOnUse"><stop offset="0" stop-color="#fef865"/><stop offset="0.09" stop-color="#fef066"/><stop offset="0.23" stop-color="#fedb67"/><stop offset="0.4" stop-color="#feb869"/><stop offset="0.59" stop-color="#fe886c"/><stop offset="0.8" stop-color="#ff4b71"/><stop offset="1" stop-color="#ff0975"/></linearGradient><linearGradient id="linear-gradient-2" x1="-1247.92" y1="589.31" x2="-987.82" y2="462.92" gradientTransform="translate(-160.11 767.02) rotate(-154.86)" gradientUnits="userSpaceOnUse"><stop offset="0" stop-color="#ff46ff"/><stop offset="0" stop-color="#fc47fe"/><stop offset="0.09" stop-color="#c25ff4"/><stop offset="0.18" stop-color="#8e75ea"/><stop offset="0.26" stop-color="#6286e2"/><stop offset="0.35" stop-color="#3f95dc"/><stop offset="0.44" stop-color="#23a0d7"/><stop offset="0.52" stop-color="#10a9d3"/><stop offset="0.61" stop-color="#04add1"/><stop offset="0.7" stop-color="#00afd0"/><stop offset="1" stop-color="#2621cb"/></linearGradient><linearGradient id="linear-gradient-3" x1="-1568.18" y1="1066.84" x2="-1091.65" y2="1066.84" gradientTransform="translate(-32.65 1258.53) rotate(180)" gradientUnits="userSpaceOnUse"><stop offset="0" stop-color="#ff5fc1" stop-opacity="0.5"/><stop offset="0.99" stop-color="#dc0082"/></linearGradient><radialGradient id="radial-gradient" cx="1371.33" cy="202.62" r="132.99" gradientTransform="translate(544.93 -910.33) rotate(45)" gradientUnits="userSpaceOnUse"><stop offset="0" stop-color="#7c95ab"/><stop offset="0.15" stop-color="#879eb2"/><stop offset="0.41" stop-color="#a6b7c6"/><stop offset="0.75" stop-color="#d7dee5"/><stop offset="1" stop-color="#fff"/></radialGradient><linearGradient id="linear-gradient-4" x1="711.8" y1="89.58" x2="1097.65" y2="277.85" gradientUnits="userSpaceOnUse"><stop offset="0" stop-color="#2621cb"/><stop offset="0.41" stop-color="#00afd0"/><stop offset="1" stop-color="#ff46ff"/></linearGradient><linearGradient id="linear-gradient-5" x1="1421.7" y1="923.75" x2="1927.2" y2="1083.43" gradientUnits="userSpaceOnUse"><stop offset="0" stop-color="#2621cb"/><stop offset="0.36" stop-color="#00afd0"/><stop offset="0.79" stop-color="#ff46ff"/></linearGradient><radialGradient id="radial-gradient-2" cx="1498.07" cy="946.27" r="74.29" gradientTransform="translate(1107.89 -782.14) rotate(45)" xlink:href="#radial-gradient"/><radialGradient id="radial-gradient-3" cx="1076.22" cy="911.85" r="39.93" gradientTransform="matrix(1, 0, 0, 1, 0, 0)" xlink:href="#radial-gradient"/><radialGradient id="radial-gradient-4" cx="1376.3" cy="837.32" r="73.84" gradientTransform="translate(1911.03 -649.3) rotate(78.25)" gradientUnits="userSpaceOnUse"><stop offset="0" stop-color="#00afd0"/><stop offset="1" stop-color="#2621cb"/></radialGradient><linearGradient id="linear-gradient-6" x1="1223.44" y1="1134.16" x2="1334.44" y2="1134.16" gradientUnits="userSpaceOnUse"><stop offset="0" stop-color="#fef865"/><stop offset="1" stop-color="#ff0975"/></linearGradient><linearGradient id="linear-gradient-7" x1="1288.08" y1="66.83" x2="1343.59" y2="162.97" gradientTransform="translate(466.65 -896.78) rotate(45)" gradientUnits="userSpaceOnUse"><stop offset="0" stop-color="#2621cb"/><stop offset="1" stop-color="#00afd0"/></linearGradient><linearGradient id="linear-gradient-8" x1="1188.83" y1="764.82" x2="1434.48" y2="764.82" gradientTransform="translate(924.98 -703.47) rotate(45)" xlink:href="#linear-gradient-6"/><linearGradient id="linear-gradient-9" x1="1222.58" y1="798.58" x2="1468.24" y2="798.58" gradientTransform="translate(958.74 -717.45) rotate(45)" xlink:href="#linear-gradient-6"/><linearGradient id="linear-gradient-10" x1="1155.07" y1="731.06" x2="1400.72" y2="731.06" gradientTransform="translate(891.23 -689.49) rotate(45)" xlink:href="#linear-gradient-6"/><linearGradient id="linear-gradient-11" x1="620.56" y1="540.53" x2="592.88" y2="721.42" xlink:href="#linear-gradient-6"/><linearGradient id="linear-gradient-12" x1="648.85" y1="544.21" x2="1241.57" y2="544.21" gradientUnits="userSpaceOnUse"><stop offset="0" stop-color="#2621cb"/><stop offset="0.65" stop-color="#00afd0"/><stop offset="1" stop-color="#ff46ff"/></linearGradient><linearGradient id="linear-gradient-13" x1="867.69" y1="309.78" x2="952.57" y2="456.79" gradientTransform="matrix(1, 0, 0, 1, 0, 0)" xlink:href="#linear-gradient-7"/><linearGradient id="linear-gradient-14" x1="505.82" y1="524.58" x2="505.82" y2="720.47" gradientUnits="userSpaceOnUse"><stop offset="0" stop-color="#ff5fc1"/><stop offset="0.78" stop-color="#dc0082"/></linearGradient><linearGradient id="linear-gradient-15" x1="1442.57" y1="301.66" x2="1278.71" y2="119.76" gradientTransform="translate(-83.73 -798.31) rotate(39.81)" xlink:href="#linear-gradient-14"/><linearGradient id="linear-gradient-16" x1="1491.98" y1="257.16" x2="1328.12" y2="75.26" gradientTransform="translate(-83.73 -798.31) rotate(39.81)" xlink:href="#linear-gradient-6"/><linearGradient id="linear-gradient-17" x1="639.72" y1="262.38" x2="529.36" y2="313.52" xlink:href="#linear-gradient-14"/><linearGradient id="linear-gradient-18" x1="1059.72" y1="888.42" x2="1086.82" y2="935.35" xlink:href="#linear-gradient-14"/><linearGradient id="linear-gradient-19" x1="329.5" y1="1075.61" x2="381.03" y2="1164.86" gradientUnits="userSpaceOnUse"><stop offset="0" stop-color="aqua"/><stop offset="1" stop-color="#1e8cff"/></linearGradient><linearGradient id="linear-gradient-20" x1="-98.31" y1="1726.83" x2="-183.53" y2="1766.31" gradientTransform="translate(-764.94 1127.65) rotate(-99.18)" xlink:href="#linear-gradient-6"/><linearGradient id="linear-gradient-21" x1="938.59" y1="1600.79" x2="904.92" y2="1616.4" gradientTransform="matrix(0.67, -0.75, 0.75, 0.67, -876.88, 522.36)" xlink:href="#linear-gradient-6"/><linearGradient id="linear-gradient-22" x1="349.21" y1="741.21" x2="382.5" y2="798.87" xlink:href="#linear-gradient-19"/><linearGradient id="linear-gradient-23" x1="1012.67" y1="174.94" x2="1045.96" y2="232.6" xlink:href="#linear-gradient-19"/><linearGradient id="linear-gradient-24" x1="711.33" y1="1031.72" x2="711.33" y2="1109.52" xlink:href="#linear-gradient-14"/><linearGradient id="linear-gradient-25" x1="924.32" y1="313.12" x2="1121.31" y2="313.12" gradientTransform="translate(520.99 -631.53) rotate(45)" xlink:href="#linear-gradient-12"/><linearGradient id="linear-gradient-26" x1="951.39" y1="340.19" x2="1148.38" y2="340.19" gradientTransform="translate(548.05 -642.74) rotate(45)" xlink:href="#linear-gradient-12"/><linearGradient id="linear-gradient-27" x1="897.26" y1="286.05" x2="1094.25" y2="286.05" gradientTransform="translate(493.92 -620.32) rotate(45)" xlink:href="#linear-gradient-12"/><linearGradient id="linear-gradient-28" x1="531.51" y1="-539.82" x2="531.51" y2="-828.87" gradientTransform="translate(1517.12 -176.98) rotate(135)" xlink:href="#linear-gradient-12"/><linearGradient id="linear-gradient-29" x1="415.93" y1="1015.17" x2="415.93" y2="1041.45" xlink:href="#linear-gradient-14"/><radialGradient id="radial-gradient-5" cx="1935.2" cy="914.26" r="22.96" gradientTransform="translate(2381.79 -1169.52) rotate(76.67)" gradientUnits="userSpaceOnUse"><stop offset="0" stop-color="#ff9ec1"/><stop offset="0.49" stop-color="#ff5fc1"/><stop offset="1" stop-color="#dc0082"/></radialGradient><radialGradient id="radial-gradient-6" cx="784.82" cy="630.92" r="37.68" gradientTransform="translate(305.93 -247.02) rotate(22.5)" xlink:href="#radial-gradient-5"/><linearGradient id="linear-gradient-30" x1="583.09" y1="153.59" x2="609.37" y2="153.59" xlink:href="#linear-gradient-14"/><radialGradient id="radial-gradient-7" cx="1732.74" cy="470.27" r="38.2" gradientTransform="translate(-535.46 64.66) scale(1 0.98)" xlink:href="#radial-gradient-5"/><linearGradient id="linear-gradient-31" x1="784.45" y1="802.25" x2="822.64" y2="868.39" gradientTransform="translate(-292.1 2014.55) rotate(-118.54)" xlink:href="#linear-gradient-14"/><linearGradient id="linear-gradient-32" x1="45.79" y1="885.65" x2="-74.32" y2="941.3" gradientTransform="translate(761.29 1702.8) rotate(142.27)" xlink:href="#linear-gradient-6"/><linearGradient id="linear-gradient-33" x1="390.07" y1="939.04" x2="342.62" y2="961.02" gradientTransform="matrix(-0.97, -0.23, 0.23, -0.97, 283.05, 2090.36)" xlink:href="#linear-gradient-6"/></defs><g class="cls-1"><g id="Layer_5" data-name="Layer 5"><circle class="cls-2" cx="1265.4" cy="646.67" r="152.34"/><path class="cls-3" d="M912.82,772.6,1242,653.67A175.6,175.6,0,0,1,912.82,772.6Z" transform="translate(-535.46 53.33)"/><path class="cls-4" d="M1059,361.27,1466.84-46.57a288.29,288.29,0,0,1,68.68,187.18C1535.52,300.42,1406,430,1246.18,430A288.24,288.24,0,0,1,1059,361.27Z" transform="translate(-535.46 53.33)"/><circle class="cls-5" cx="1371.33" cy="202.62" r="132.99" transform="translate(-277.08 1082.36) rotate(-45)"/><path class="cls-6" d="M1096.74,8.55,729.29,376a259.74,259.74,0,0,1-61.88-168.64c0-144,116.74-260.69,260.69-260.69A259.74,259.74,0,0,1,1096.74,8.55Z" transform="translate(-535.46 53.33)"/><path class="cls-7" d="M1931.49,799.47l-453.71,453.71A320.7,320.7,0,0,1,1401.37,1045c0-177.78,144.15-321.89,321.89-321.89A320.7,320.7,0,0,1,1931.49,799.47Z" transform="translate(-535.46 53.33)"/><circle class="cls-8" cx="1498.07" cy="946.27" r="74.29" transform="translate(-765.8 1389.78) rotate(-45)"/><circle class="cls-9" cx="1076.22" cy="911.85" r="39.93"/><circle class="cls-10" cx="1354.64" cy="850.05" r="55.5" transform="translate(-288.9 2056.54) rotate(-78.25)"/><circle class="cls-11" cx="1278.94" cy="1134.16" r="55.5"/><circle class="cls-12" cx="1315.84" cy="114.9" r="55.5" transform="translate(-231.31 1017.42) rotate(-45)"/><rect class="cls-13" x="1146.26" y="756.51" width="330.79" height="16.62" transform="translate(-692.09 1204.82) rotate(-45)"/><rect class="cls-14" x="1180.01" y="790.27" width="330.79" height="16.62" transform="translate(-706.08 1238.58) rotate(-45)"/><rect class="cls-15" x="1112.5" y="722.75" width="330.79" height="16.62" transform="translate(-678.11 1171.06) rotate(-45)"/><g class="cls-16"><rect class="cls-17" x="859.42" y="1013.69" width="9.11" height="181.42"/><rect class="cls-17" x="885.6" y="1013.69" width="9.11" height="181.42"/><rect class="cls-17" x="833.24" y="1013.69" width="9.11" height="181.42"/></g><g class="cls-16"><rect class="cls-17" x="1701.69" y="140.91" width="9.11" height="33.76" transform="translate(-147.28 1306.05) rotate(-45)"/><rect class="cls-17" x="1720.2" y="122.4" width="9.11" height="33.76" transform="translate(-128.78 1313.71) rotate(-45)"/><rect class="cls-17" x="1683.18" y="159.42" width="9.11" height="33.76" transform="translate(-165.79 1298.38) rotate(-45)"/></g><g class="cls-16"><rect class="cls-17" x="2087.7" y="1050.13" width="18.67" height="69.14" transform="translate(-688.25 1853.87) rotate(-45)"/><rect class="cls-17" x="2125.62" y="1012.21" width="18.67" height="69.14" transform="translate(-650.34 1869.56) rotate(-45)"/><rect class="cls-17" x="2049.79" y="1088.05" width="18.67" height="69.14" transform="translate(-726.17 1838.16) rotate(-45)"/></g><g class="cls-16"><rect class="cls-17" x="904.4" y="813.11" width="14.68" height="33.76" transform="translate(-855.31 941.12) rotate(-45)"/><rect class="cls-17" x="934.22" y="783.29" width="14.68" height="33.76" transform="translate(-825.49 953.48) rotate(-45)"/><rect class="cls-17" x="874.58" y="842.93" width="14.68" height="33.76" transform="translate(-885.13 928.78) rotate(-45)"/></g><polygon class="cls-18" points="691.85 634.49 563.35 476.33 508.86 710.64 691.85 634.49"/><polygon class="cls-19" points="648.85 632.14 1241.57 255.95 1112.22 832.47 648.85 632.14"/><polygon class="cls-20" points="648.85 632.14 732.2 388.01 1241.57 255.95 648.85 632.14"/><polygon class="cls-21" points="508.86 710.64 448.29 646.34 563.35 476.33 508.86 710.64"/><polygon class="cls-22" points="891.67 121.99 848.62 416.7 754.76 173.18 891.67 121.99"/><polygon class="cls-23" points="891.67 121.99 943.89 216.51 848.62 416.7 891.67 121.99"/><polygon class="cls-24" points="539.45 353.34 620.21 212.12 657.13 313.62 539.45 353.34"/><polygon class="cls-25" points="1085.52 871.92 1032.47 902.39 1094.47 934.84 1085.52 871.92"/><polygon class="cls-26" points="295.48 1095.25 333.99 1192.02 403.65 1095.4 295.48 1095.25"/><polygon class="cls-27" points="911.62 975.53 976.4 1055.38 1013.6 943.81 911.62 975.53"/><polygon class="cls-28" points="924.87 883.5 916.47 923.25 955.35 908.66 924.87 883.5"/><path class="cls-29" d="M890.87,203.85a33.45,33.45,0,1,1,33.45-33.45A33.49,33.49,0,0,1,890.87,203.85Zm0-59.26a25.81,25.81,0,1,0,25.81,25.81A25.84,25.84,0,0,0,890.87,144.59Z" transform="translate(-535.46 53.33)"/><path class="cls-29" d="M1105.88,1069.92a33.45,33.45,0,1,1,33.45-33.45A33.49,33.49,0,0,1,1105.88,1069.92Zm0-59.26a25.81,25.81,0,1,0,25.81,25.81A25.84,25.84,0,0,0,1105.88,1010.66Z" transform="translate(-535.46 53.33)"/><path class="cls-29" d="M1033,868.71a10.21,10.21,0,1,0-3,7.21,10.27,10.27,0,0,0,3-7.21" transform="translate(-535.46 53.33)"/><path class="cls-29" d="M1033,727v-.05a10.2,10.2,0,1,0-20.4,0V727a10.2,10.2,0,0,0,20.4,0Zm0,70.9v-.05a10.2,10.2,0,1,0-20.4,0v.05a10.2,10.2,0,1,0,20.4,0Z" transform="translate(-535.46 53.33)"/><path class="cls-29" d="M1033,656a10.19,10.19,0,1,0-3,7.21,10.26,10.26,0,0,0,3-7.21" transform="translate(-535.46 53.33)"/><path class="cls-29" d="M1829.05,984.84c-10.63,0-16-6.11-20.67-11.51-4.33-5-7.75-8.88-14.9-8.88s-10.58,3.92-14.92,8.88c-4.7,5.4-10,11.51-20.67,11.51s-16-6.11-20.66-11.51c-4.33-5-7.75-8.88-14.9-8.88s-10.58,3.92-14.92,8.88c-4.7,5.4-10,11.51-20.67,11.51s-16-6.11-20.69-11.5c-4.34-5-7.76-8.89-14.93-8.89s-10.6,3.92-14.93,8.88c-4.71,5.4-10,11.51-20.69,11.51a3.83,3.83,0,0,1,0-7.65c7.17,0,10.59-3.92,14.93-8.89,4.71-5.39,10-11.5,20.69-11.5s16,6.11,20.69,11.51c4.33,5,7.76,8.88,14.93,8.88s10.58-3.92,14.91-8.88c4.71-5.4,10-11.51,20.68-11.51s16,6.11,20.66,11.51c4.33,5,7.75,8.88,14.9,8.88s10.58-3.92,14.91-8.88c4.71-5.4,10-11.51,20.68-11.51s16,6.11,20.66,11.51c4.33,5,7.75,8.88,14.91,8.88a3.83,3.83,0,0,1,0,7.65Z" transform="translate(-535.46 53.33)"/><g class="cls-16"><path class="cls-17" d="M1014.81,537.24c-10.63,0-16-6.11-20.66-11.51-4.33-5-7.75-8.88-14.91-8.88s-10.58,3.92-14.91,8.88c-4.71,5.4-10,11.51-20.67,11.51s-16-6.11-20.66-11.51c-4.33-5-7.75-8.88-14.9-8.88s-10.59,3.92-14.92,8.88c-4.71,5.4-10,11.51-20.68,11.51s-16-6.11-20.69-11.5c-4.33-5-7.76-8.89-14.93-8.89s-10.59,3.92-14.92,8.88c-4.71,5.4-10.05,11.51-20.7,11.51a3.83,3.83,0,0,1,0-7.65c7.17,0,10.6-3.92,14.94-8.89,4.7-5.39,10-11.5,20.68-11.5s16,6.11,20.69,11.51c4.34,5,7.76,8.88,14.93,8.88s10.59-3.92,14.92-8.88c4.7-5.4,10-11.51,20.68-11.51s16,6.11,20.66,11.51c4.33,5,7.75,8.88,14.9,8.88s10.58-3.92,14.91-8.88c4.7-5.4,10-11.51,20.67-11.51s16,6.11,20.67,11.51c4.33,5,7.75,8.88,14.9,8.88a3.83,3.83,0,1,1,0,7.65Z" transform="translate(-535.46 53.33)"/></g><polygon class="cls-30" points="373.27 762.62 373.27 735.89 358.44 735.89 358.44 762.62 331.7 762.62 331.7 777.46 358.44 777.46 358.44 804.2 373.27 804.2 373.27 777.46 400.01 777.46 400.01 762.62 373.27 762.62"/><polygon class="cls-31" points="1036.74 196.35 1036.74 169.62 1021.9 169.62 1021.9 196.35 995.16 196.35 995.16 211.19 1021.9 211.19 1021.9 237.92 1036.74 237.92 1036.74 211.19 1063.47 211.19 1063.47 196.35 1036.74 196.35"/><polygon class="cls-29" points="309.8 461.57 309.8 449.41 303.05 449.41 303.05 461.57 290.88 461.57 290.88 468.32 303.05 468.32 303.05 480.48 309.8 480.48 309.8 468.32 321.96 468.32 321.96 461.57 309.8 461.57"/><polygon class="cls-32" points="719.78 1062.17 719.78 1031.72 702.88 1031.72 702.88 1062.17 672.42 1062.17 672.42 1079.07 702.88 1079.07 702.88 1109.52 719.78 1109.52 719.78 1079.07 750.23 1079.07 750.23 1062.17 719.78 1062.17"/><rect class="cls-33" x="890.19" y="306.46" width="265.26" height="13.33" transform="translate(-457.29 868.29) rotate(-45)"/><rect class="cls-34" x="917.26" y="333.52" width="265.26" height="13.33" transform="translate(-468.5 895.35) rotate(-45)"/><rect class="cls-35" x="863.12" y="279.39" width="265.26" height="13.33" transform="translate(-446.08 841.22) rotate(-45)"/><rect class="cls-36" x="1615.41" y="488.14" width="19.55" height="389.22" transform="translate(-542.23 1402.49) rotate(-45)"/><path class="cls-29" d="M1814.4,606.35a13.14,13.14,0,1,1-13.14-13.14A13.14,13.14,0,0,1,1814.4,606.35Z" transform="translate(-535.46 53.33)"/><circle class="cls-29" cx="692.58" cy="223.73" r="13.14"/><circle class="cls-37" cx="415.93" cy="1028.31" r="13.14"/><circle class="cls-38" cx="1930.46" cy="921.4" r="22.96" transform="translate(53.21 2640.64) rotate(-76.67)"/><circle class="cls-39" cx="773.89" cy="645.49" r="40.36" transform="translate(-723.57 398.62) rotate(-22.5)"/><circle class="cls-40" cx="596.23" cy="153.59" r="13.14"/><circle class="cls-41" cx="1186.81" cy="535.55" r="32.38"/><path class="cls-29" d="M1202.05,308.45a5.7,5.7,0,1,0,5.7,5.7A5.7,5.7,0,0,0,1202.05,308.45Zm24.9,23a5.7,5.7,0,1,0,5.7,5.7A5.7,5.7,0,0,0,1227,331.45Zm-52.46,0a5.7,5.7,0,1,0,5.71,5.7A5.7,5.7,0,0,0,1174.49,331.45Zm80-23a5.7,5.7,0,1,0,5.7,5.7A5.7,5.7,0,0,0,1254.51,308.45Zm-104.91,0a5.7,5.7,0,1,0,5.7,5.7A5.7,5.7,0,0,0,1149.6,308.45Zm209.82,0a5.7,5.7,0,1,0,5.7,5.7A5.7,5.7,0,0,0,1359.42,308.45Zm24.9,23a5.7,5.7,0,1,0,5.7,5.7A5.71,5.71,0,0,0,1384.32,331.45Zm-77.36-23a5.7,5.7,0,1,0,5.7,5.7A5.7,5.7,0,0,0,1307,308.45Zm24.9,23a5.7,5.7,0,1,0,5.7,5.7A5.7,5.7,0,0,0,1331.86,331.45Zm-52.46,0a5.7,5.7,0,1,0,5.71,5.7A5.7,5.7,0,0,0,1279.4,331.45Z" transform="translate(-535.46 53.33)"/><polygon class="cls-42" points="0 921.28 73.45 966.44 71.86 867.83 0 921.28"/><polygon class="cls-43" points="245.39 1066.81 300.62 932.82 137.44 961.91 245.39 1066.81"/><polygon class="cls-44" points="122.53 1112.38 177.4 1096.01 133.15 1057.7 122.53 1112.38"/></g></g></svg>