<svg xmlns="http://www.w3.org/2000/svg" xmlns:xlink="http://www.w3.org/1999/xlink" viewBox="0 0 1784.42 1284.97"><defs><style>.cls-1{isolation:isolate;}.cls-2{opacity:0.54;}.cls-11,.cls-12,.cls-13,.cls-14,.cls-16,.cls-18,.cls-20,.cls-21,.cls-22,.cls-23,.cls-24,.cls-25,.cls-26,.cls-27,.cls-3,.cls-4,.cls-5,.cls-6,.cls-66,.cls-67,.cls-7,.cls-72,.cls-73,.cls-74,.cls-75,.cls-8,.cls-9{fill:none;}.cls-11,.cls-12,.cls-13,.cls-14,.cls-16,.cls-18,.cls-20,.cls-21,.cls-22,.cls-23,.cls-24,.cls-25,.cls-26,.cls-27,.cls-3,.cls-4,.cls-5,.cls-6,.cls-66,.cls-67,.cls-7,.cls-72,.cls-74,.cls-75,.cls-8,.cls-9{stroke-linecap:round;}.cls-11,.cls-12,.cls-13,.cls-14,.cls-16,.cls-18,.cls-20,.cls-21,.cls-22,.cls-23,.cls-24,.cls-25,.cls-26,.cls-3,.cls-4,.cls-5,.cls-6,.cls-66,.cls-7,.cls-72,.cls-75,.cls-8,.cls-9{stroke-linejoin:round;}.cls-11,.cls-12,.cls-13,.cls-14,.cls-16,.cls-18,.cls-20,.cls-21,.cls-22,.cls-23,.cls-24,.cls-25,.cls-26,.cls-3,.cls-4,.cls-5,.cls-6,.cls-66,.cls-67,.cls-7,.cls-72,.cls-73,.cls-74,.cls-8,.cls-9{stroke-width:2px;}.cls-10,.cls-11,.cls-12,.cls-13,.cls-14,.cls-15,.cls-16,.cls-18,.cls-19,.cls-20,.cls-21,.cls-22,.cls-23,.cls-24,.cls-25,.cls-26,.cls-3,.cls-4,.cls-5,.cls-6,.cls-7,.cls-8,.cls-9{fill-rule:evenodd;}.cls-10,.cls-11,.cls-12,.cls-13,.cls-14,.cls-15,.cls-16,.cls-17,.cls-18,.cls-19,.cls-20,.cls-21,.cls-22,.cls-23,.cls-24,.cls-25,.cls-26,.cls-3,.cls-4,.cls-5,.cls-6,.cls-7,.cls-8,.cls-9{mix-blend-mode:screen;}.cls-3{stroke:url(#Degradado_sin_nombre_9);}.cls-4{stroke:url(#Degradado_sin_nombre_9-2);}.cls-5{stroke:url(#Degradado_sin_nombre_6);}.cls-6{stroke:url(#Degradado_sin_nombre_6-2);}.cls-7{stroke:url(#Degradado_sin_nombre_6-3);}.cls-8{stroke:url(#Degradado_sin_nombre_6-4);}.cls-9{stroke:url(#Degradado_sin_nombre_6-5);}.cls-10{fill:#24a2ee;}.cls-10,.cls-17{opacity:0.15;}.cls-11{stroke:url(#Degradado_sin_nombre_9-3);}.cls-12{stroke:url(#Degradado_sin_nombre_6-6);}.cls-13{stroke:url(#Degradado_sin_nombre_6-7);}.cls-14{stroke:url(#Degradado_sin_nombre_6-8);}.cls-15,.cls-17,.cls-19{fill:#0df1f9;}.cls-15{opacity:0.24;}.cls-16{stroke:url(#Degradado_sin_nombre_6-9);}.cls-18{stroke:url(#Degradado_sin_nombre_8);}.cls-19{opacity:0.28;}.cls-20{stroke:url(#Degradado_sin_nombre_9-4);}.cls-21{stroke:url(#Degradado_sin_nombre_9-5);}.cls-22{stroke:url(#Degradado_sin_nombre_6-10);}.cls-23{stroke:url(#Degradado_sin_nombre_6-11);}.cls-24{stroke:url(#Degradado_sin_nombre_6-12);}.cls-25{stroke:url(#Degradado_sin_nombre_6-13);}.cls-26{stroke:url(#Degradado_sin_nombre_6-14);}.cls-27,.cls-72,.cls-74{stroke:#fff;}.cls-27,.cls-67,.cls-73,.cls-74{stroke-miterlimit:10;}.cls-27{stroke-width:1.5px;mix-blend-mode:overlay;}.cls-28{fill:url(#linear-gradient);}.cls-29{fill:url(#linear-gradient-2);}.cls-30{fill:url(#linear-gradient-3);}.cls-31{fill:url(#linear-gradient-4);}.cls-32{fill:url(#linear-gradient-5);}.cls-33{fill:url(#linear-gradient-6);}.cls-34{fill:url(#linear-gradient-7);}.cls-35{fill:url(#linear-gradient-8);}.cls-36{fill:url(#linear-gradient-9);}.cls-37{fill:url(#linear-gradient-10);}.cls-38{fill:url(#linear-gradient-11);}.cls-39{fill:url(#linear-gradient-12);}.cls-40{fill:url(#linear-gradient-13);}.cls-41{fill:url(#linear-gradient-14);}.cls-42{fill:url(#linear-gradient-15);}.cls-43{fill:url(#linear-gradient-16);}.cls-44{fill:url(#linear-gradient-17);}.cls-45{fill:url(#linear-gradient-18);}.cls-46{fill:url(#linear-gradient-19);}.cls-47{fill:url(#linear-gradient-20);}.cls-48{fill:url(#linear-gradient-21);}.cls-49{fill:url(#linear-gradient-22);}.cls-50{fill:url(#linear-gradient-23);}.cls-51{fill:url(#linear-gradient-24);}.cls-52{fill:url(#linear-gradient-25);}.cls-53{fill:url(#linear-gradient-26);}.cls-54{fill:url(#linear-gradient-27);}.cls-55{fill:url(#linear-gradient-28);}.cls-56{fill:url(#linear-gradient-29);}.cls-57{fill:url(#linear-gradient-30);}.cls-58{fill:url(#linear-gradient-31);}.cls-59{fill:url(#linear-gradient-32);}.cls-60{fill:url(#linear-gradient-33);}.cls-61{fill:url(#linear-gradient-34);}.cls-62{fill:url(#linear-gradient-35);}.cls-63{fill:url(#linear-gradient-36);}.cls-64{fill:url(#linear-gradient-37);}.cls-65{fill:url(#linear-gradient-38);}.cls-66{stroke:#b7f680;}.cls-67{stroke:#38cbff;}.cls-68{fill:#fff;}.cls-69{fill:url(#linear-gradient-39);}.cls-70{fill:url(#linear-gradient-40);}.cls-71{fill:url(#linear-gradient-41);}.cls-73{stroke:#fcd705;}.cls-75{stroke:#fcca05;stroke-width:5px;}</style><linearGradient id="Degradado_sin_nombre_9" x1="194.06" y1="928.42" x2="515.2" y2="928.42" gradientUnits="userSpaceOnUse"><stop offset="0"/><stop offset="0.09" stop-color="#000303"/><stop offset="0.15" stop-color="#010c0d"/><stop offset="0.22" stop-color="#021c1d"/><stop offset="0.27" stop-color="#033335"/><stop offset="0.33" stop-color="#045053"/><stop offset="0.38" stop-color="#067477"/><stop offset="0.43" stop-color="#099ea3"/><stop offset="0.48" stop-color="#0bced5"/><stop offset="0.51" stop-color="#0df1f9"/><stop offset="0.51" stop-color="#0deff7"/><stop offset="0.57" stop-color="#0ab8be"/><stop offset="0.63" stop-color="#07878b"/><stop offset="0.69" stop-color="#055d60"/><stop offset="0.75" stop-color="#033c3e"/><stop offset="0.81" stop-color="#022123"/><stop offset="0.87" stop-color="#010f0f"/><stop offset="0.93" stop-color="#000404"/><stop offset="1"/></linearGradient><linearGradient id="Degradado_sin_nombre_9-2" x1="623.7" y1="794.61" x2="861.68" y2="794.61" xlink:href="#Degradado_sin_nombre_9"/><linearGradient id="Degradado_sin_nombre_6" x1="605.96" y1="484.81" x2="756.29" y2="484.81" gradientUnits="userSpaceOnUse"><stop offset="0"/><stop offset="0.09" stop-color="#000203"/><stop offset="0.16" stop-color="#02090d"/><stop offset="0.22" stop-color="#04141d"/><stop offset="0.28" stop-color="#082435"/><stop offset="0.33" stop-color="#0c3853"/><stop offset="0.39" stop-color="#125177"/><stop offset="0.44" stop-color="#196fa3"/><stop offset="0.49" stop-color="#2091d5"/><stop offset="0.51" stop-color="#24a2ee"/><stop offset="0.56" stop-color="#1fb4f0"/><stop offset="0.67" stop-color="#17cff4"/><stop offset="0.78" stop-color="#11e2f7"/><stop offset="0.89" stop-color="#0eedf8"/><stop offset="1" stop-color="#0df1f9"/></linearGradient><linearGradient id="Degradado_sin_nombre_6-2" x1="0" y1="1139.63" x2="150.33" y2="1139.63" xlink:href="#Degradado_sin_nombre_6"/><linearGradient id="Degradado_sin_nombre_6-3" x1="150.58" y1="1186.83" x2="300.91" y2="1186.83" xlink:href="#Degradado_sin_nombre_6"/><linearGradient id="Degradado_sin_nombre_6-4" x1="350.09" y1="555.17" x2="500.42" y2="555.17" gradientTransform="translate(711.82 210.34) rotate(89.47)" xlink:href="#Degradado_sin_nombre_6"/><linearGradient id="Degradado_sin_nombre_6-5" x1="461.43" y1="668.65" x2="671.69" y2="668.65" gradientTransform="translate(52.95 -60.11) rotate(37.06)" xlink:href="#Degradado_sin_nombre_6"/><linearGradient id="Degradado_sin_nombre_9-3" x1="1141.49" y1="805.67" x2="1379.47" y2="805.67" xlink:href="#Degradado_sin_nombre_9"/><linearGradient id="Degradado_sin_nombre_6-6" x1="575.18" y1="1066.97" x2="725.51" y2="1066.97" xlink:href="#Degradado_sin_nombre_6"/><linearGradient id="Degradado_sin_nombre_6-7" x1="392.36" y1="157.01" x2="542.69" y2="157.01" xlink:href="#Degradado_sin_nombre_6"/><linearGradient id="Degradado_sin_nombre_6-8" x1="1128.38" y1="1024.44" x2="1278.71" y2="1024.44" gradientTransform="matrix(0.69, -0.72, 0.72, 0.69, -545.44, 1181.28)" xlink:href="#Degradado_sin_nombre_6"/><linearGradient id="Degradado_sin_nombre_6-9" x1="1678.01" y1="516.49" x2="1828.35" y2="516.49" gradientTransform="matrix(0.69, -0.72, 0.72, 0.69, -545.44, 1181.28)" xlink:href="#Degradado_sin_nombre_6"/><linearGradient id="Degradado_sin_nombre_8" x1="1192.67" y1="-197.48" x2="1402.91" y2="-197.48" gradientTransform="matrix(0.82, 0.57, -0.57, 0.82, 30.11, -19.53)" gradientUnits="userSpaceOnUse"><stop offset="0"/><stop offset="0.05" stop-color="#030c11"/><stop offset="0.16" stop-color="#092a3e"/><stop offset="0.31" stop-color="#145b86"/><stop offset="0.5" stop-color="#239ee8"/><stop offset="0.51" stop-color="#24a2ee"/><stop offset="0.56" stop-color="#1fb4f0"/><stop offset="0.67" stop-color="#17cff4"/><stop offset="0.78" stop-color="#11e2f7"/><stop offset="0.89" stop-color="#0eedf8"/><stop offset="1" stop-color="#0df1f9"/></linearGradient><linearGradient id="Degradado_sin_nombre_9-4" x1="681.18" y1="396.38" x2="1002.31" y2="396.38" gradientTransform="translate(2200.46 906.93) rotate(180)" xlink:href="#Degradado_sin_nombre_9"/><linearGradient id="Degradado_sin_nombre_9-5" x1="777.82" y1="670.57" x2="1015.79" y2="670.57" gradientTransform="translate(2200.46 906.93) rotate(180)" xlink:href="#Degradado_sin_nombre_9"/><linearGradient id="Degradado_sin_nombre_6-10" x1="662.07" y1="608.76" x2="812.4" y2="608.76" gradientTransform="translate(2200.46 906.93) rotate(180)" xlink:href="#Degradado_sin_nombre_6"/><linearGradient id="Degradado_sin_nombre_6-11" x1="517.11" y1="761.59" x2="667.44" y2="761.59" gradientTransform="translate(2200.46 906.93) rotate(180)" xlink:href="#Degradado_sin_nombre_6"/><linearGradient id="Degradado_sin_nombre_6-12" x1="667.69" y1="808.78" x2="818.02" y2="808.78" gradientTransform="translate(2200.46 906.93) rotate(180)" xlink:href="#Degradado_sin_nombre_6"/><linearGradient id="Degradado_sin_nombre_6-13" x1="36.87" y1="301.5" x2="187.19" y2="301.5" gradientTransform="translate(1222.31 759.07) rotate(-90.53)" xlink:href="#Degradado_sin_nombre_6"/><linearGradient id="Degradado_sin_nombre_6-14" x1="471.41" y1="265.68" x2="681.66" y2="265.68" gradientTransform="translate(1881.18 1029.52) rotate(-142.94)" xlink:href="#Degradado_sin_nombre_6"/><linearGradient id="linear-gradient" x1="-628.43" y1="1661.68" x2="-382.3" y2="1661.68" gradientTransform="matrix(-0.85, 0.52, -0.52, -0.85, 1696.66, 2271.14)" gradientUnits="userSpaceOnUse"><stop offset="0" stop-color="#84d548"/><stop offset="0.1" stop-color="#81d245"/><stop offset="1" stop-color="#68b52d"/></linearGradient><linearGradient id="linear-gradient-2" x1="-443.19" y1="1732.92" x2="-382.3" y2="1732.92" gradientTransform="matrix(-0.85, 0.52, -0.52, -0.85, 1696.66, 2271.14)" gradientUnits="userSpaceOnUse"><stop offset="0" stop-color="#90e84e"/><stop offset="1" stop-color="#8dd45c"/></linearGradient><linearGradient id="linear-gradient-3" x1="-640.76" y1="1700.23" x2="-424.39" y2="1700.23" gradientTransform="matrix(-0.85, 0.52, -0.52, -0.85, 1696.66, 2271.14)" gradientUnits="userSpaceOnUse"><stop offset="0" stop-color="#c3ff8f"/><stop offset="1" stop-color="#adef74"/></linearGradient><linearGradient id="linear-gradient-4" x1="675.25" y1="392.82" x2="670.15" y2="464.8" gradientUnits="userSpaceOnUse"><stop offset="0" stop-color="#ffa617"/><stop offset="1" stop-color="#f60"/></linearGradient><linearGradient id="linear-gradient-5" x1="811.41" y1="595.3" x2="757.58" y2="582.83" gradientUnits="userSpaceOnUse"><stop offset="0" stop-color="#ffa617"/><stop offset="1" stop-color="#f80"/></linearGradient><linearGradient id="linear-gradient-6" x1="588.99" y1="531.79" x2="658.69" y2="564.65" xlink:href="#linear-gradient-5"/><linearGradient id="linear-gradient-7" x1="583.81" y1="437.65" x2="582.68" y2="515.85" xlink:href="#linear-gradient-4"/><linearGradient id="linear-gradient-8" x1="657.85" y1="515.75" x2="656.15" y2="599.06" xlink:href="#linear-gradient-4"/><linearGradient id="linear-gradient-9" x1="676.2" y1="437.9" x2="804.85" y2="678.18" gradientUnits="userSpaceOnUse"><stop offset="0" stop-color="#ffdc17"/><stop offset="1" stop-color="#f90"/></linearGradient><linearGradient id="linear-gradient-10" x1="663.07" y1="634.39" x2="746.94" y2="661.02" xlink:href="#linear-gradient-5"/><linearGradient id="linear-gradient-11" x1="568.26" y1="-436.34" x2="562.41" y2="-353.81" gradientTransform="matrix(-0.64, -0.77, -0.77, 0.64, 1661.24, 942.27)" xlink:href="#linear-gradient-4"/><linearGradient id="linear-gradient-12" x1="724.39" y1="-204.18" x2="662.66" y2="-218.47" gradientTransform="matrix(-0.64, -0.77, -0.77, 0.64, 1661.24, 942.27)" xlink:href="#linear-gradient-5"/><linearGradient id="linear-gradient-13" x1="469.35" y1="-277" x2="549.27" y2="-239.31" gradientTransform="matrix(-0.64, -0.77, -0.77, 0.64, 1661.24, 942.27)" xlink:href="#linear-gradient-5"/><linearGradient id="linear-gradient-14" x1="463.42" y1="-384.94" x2="462.12" y2="-295.27" gradientTransform="matrix(-0.64, -0.77, -0.77, 0.64, 1661.24, 942.27)" xlink:href="#linear-gradient-4"/><linearGradient id="linear-gradient-15" x1="548.31" y1="-295.39" x2="546.36" y2="-199.87" gradientTransform="matrix(-0.64, -0.77, -0.77, 0.64, 1661.24, 942.27)" xlink:href="#linear-gradient-4"/><linearGradient id="linear-gradient-16" x1="569.35" y1="-384.66" x2="716.86" y2="-109.14" gradientTransform="matrix(-0.64, -0.77, -0.77, 0.64, 1661.24, 942.27)" xlink:href="#linear-gradient-9"/><linearGradient id="linear-gradient-17" x1="554.3" y1="-159.36" x2="650.47" y2="-128.82" gradientTransform="matrix(-0.64, -0.77, -0.77, 0.64, 1661.24, 942.27)" xlink:href="#linear-gradient-5"/><linearGradient id="linear-gradient-18" x1="1077.86" y1="40.88" x2="1074.9" y2="82.59" gradientTransform="matrix(-0.64, -0.77, -0.77, 0.64, 1661.24, 942.27)" gradientUnits="userSpaceOnUse"><stop offset="0" stop-color="#cb59ff"/><stop offset="1" stop-color="#d56bff"/></linearGradient><linearGradient id="linear-gradient-19" x1="1156.76" y1="158.21" x2="1125.57" y2="150.99" gradientTransform="matrix(-0.64, -0.77, -0.77, 0.64, 1661.24, 942.27)" gradientUnits="userSpaceOnUse"><stop offset="0" stop-color="#a21bd5"/><stop offset="0.1" stop-color="#9f19d2"/><stop offset="1" stop-color="#8407b5"/></linearGradient><linearGradient id="linear-gradient-20" x1="1027.87" y1="121.41" x2="1068.26" y2="140.46" xlink:href="#linear-gradient-19"/><linearGradient id="linear-gradient-21" x1="1024.87" y1="66.86" x2="1024.21" y2="112.18" xlink:href="#linear-gradient-18"/><linearGradient id="linear-gradient-22" x1="1067.78" y1="112.12" x2="1066.79" y2="160.39" xlink:href="#linear-gradient-18"/><linearGradient id="linear-gradient-23" x1="1078.41" y1="67" x2="1152.96" y2="206.25" gradientTransform="matrix(-0.64, -0.77, -0.77, 0.64, 1661.24, 942.27)" gradientUnits="userSpaceOnUse"><stop offset="0" stop-color="#b01de8"/><stop offset="1" stop-color="#aa2fd4"/></linearGradient><linearGradient id="linear-gradient-24" x1="1070.8" y1="180.86" x2="1119.41" y2="196.3" xlink:href="#linear-gradient-19"/><linearGradient id="linear-gradient-25" x1="307.9" y1="287.5" x2="558.51" y2="287.5" gradientUnits="userSpaceOnUse"><stop offset="0" stop-color="#e44ee8"/><stop offset="1" stop-color="#d45cd4"/></linearGradient><linearGradient id="linear-gradient-26" x1="502.97" y1="361.44" x2="558.51" y2="361.44" gradientUnits="userSpaceOnUse"><stop offset="0" stop-color="#f88fff"/><stop offset="1" stop-color="#fca1ff"/></linearGradient><linearGradient id="linear-gradient-27" x1="296.66" y1="322.66" x2="520.12" y2="322.66" gradientUnits="userSpaceOnUse"><stop offset="0" stop-color="#d248d5"/><stop offset="0.32" stop-color="#d957de"/><stop offset="1" stop-color="#e774ef"/></linearGradient><linearGradient id="linear-gradient-28" x1="515.79" y1="1905.83" x2="761.91" y2="1905.83" gradientTransform="translate(-1263.88 1544.44) rotate(-87.25)" xlink:href="#linear-gradient"/><linearGradient id="linear-gradient-29" x1="701.02" y1="1977.07" x2="761.91" y2="1977.07" gradientTransform="translate(-1263.88 1544.44) rotate(-87.25)" xlink:href="#linear-gradient-2"/><linearGradient id="linear-gradient-30" x1="503.47" y1="1944.37" x2="719.82" y2="1944.37" gradientTransform="translate(-1263.88 1544.44) rotate(-87.25)" xlink:href="#linear-gradient-3"/><linearGradient id="linear-gradient-31" x1="-34.57" y1="538.63" x2="77.53" y2="512.58" gradientTransform="matrix(-0.41, 0.91, -0.91, -0.41, 1820.55, 1053.39)" xlink:href="#linear-gradient-19"/><linearGradient id="linear-gradient-32" x1="-68.42" y1="466.42" x2="-32.37" y2="466.42" gradientTransform="matrix(-0.41, 0.91, -0.91, -0.41, 1820.55, 1053.39)" gradientUnits="userSpaceOnUse"><stop offset="0" stop-color="#a21bd5"/><stop offset="0.24" stop-color="#a825dc"/><stop offset="1" stop-color="#b842ef"/></linearGradient><linearGradient id="linear-gradient-33" x1="5.43" y1="378.88" x2="-68.72" y2="362.99" gradientTransform="matrix(-0.41, 0.91, -0.91, -0.41, 1820.55, 1053.39)" xlink:href="#linear-gradient-18"/><linearGradient id="linear-gradient-34" x1="44.33" y1="364.23" x2="201.59" y2="364.23" gradientTransform="matrix(-0.41, 0.91, -0.91, -0.41, 1820.55, 1053.39)" gradientUnits="userSpaceOnUse"><stop offset="0" stop-color="#cb59ff"/><stop offset="1" stop-color="#b842ef"/></linearGradient><linearGradient id="linear-gradient-35" x1="152.43" y1="423.26" x2="228.39" y2="423.26" xlink:href="#linear-gradient-32"/><linearGradient id="linear-gradient-36" x1="89.57" y1="509.18" x2="228.39" y2="509.18" gradientTransform="matrix(-0.41, 0.91, -0.91, -0.41, 1820.55, 1053.39)" xlink:href="#linear-gradient-19"/><linearGradient id="linear-gradient-37" x1="-32.37" y1="509.18" x2="152.43" y2="509.18" gradientTransform="matrix(-0.41, 0.91, -0.91, -0.41, 1820.55, 1053.39)" xlink:href="#linear-gradient-23"/><linearGradient id="linear-gradient-38" x1="161.19" y1="414.34" x2="8.03" y2="379.47" gradientTransform="matrix(-0.41, 0.91, -0.91, -0.41, 1820.55, 1053.39)" xlink:href="#linear-gradient-18"/><linearGradient id="linear-gradient-39" x1="810.1" y1="876.68" x2="780.03" y2="906.48" gradientUnits="userSpaceOnUse"><stop offset="0.01" stop-color="#fcd705"/><stop offset="1" stop-color="#fc7405"/></linearGradient><linearGradient id="linear-gradient-40" x1="1367.08" y1="956.76" x2="1423.74" y2="956.76" gradientTransform="matrix(1, 0, 0, 1, 0, 0)" xlink:href="#linear-gradient-3"/><linearGradient id="linear-gradient-41" x1="1752.89" y1="514.84" x2="1822.95" y2="514.84" xlink:href="#linear-gradient-25"/></defs><g class="cls-1"><g id="Layer_3" data-name="Layer 3"><g class="cls-2"><polygon class="cls-3" points="195.06 919.43 460.26 1137.43 514.2 719.41 195.06 919.43"/><polygon class="cls-4" points="624.7 787.96 820.8 949.16 860.68 640.06 624.7 787.96"/><polygon class="cls-5" points="606.96 480.63 730.22 581.95 755.29 387.66 606.96 480.63"/><polygon class="cls-6" points="1 1135.45 124.26 1236.78 149.33 1042.48 1 1135.45"/><polygon class="cls-7" points="151.58 1182.65 274.84 1283.97 299.91 1089.68 151.58 1182.65"/><polygon class="cls-8" points="164.06 566.5 63.88 690.69 258.39 713.97 164.06 566.5"/><polygon class="cls-9" points="22.58 747.45 74.95 965.25 267.42 768.79 22.58 747.45"/><polygon class="cls-10" points="22.58 747.45 74.95 965.25 267.42 768.79 22.58 747.45"/></g><g class="cls-2"><polygon class="cls-11" points="1142.49 799.02 1338.59 960.22 1378.47 651.12 1142.49 799.02"/><polygon class="cls-12" points="576.18 1062.79 699.44 1164.12 724.51 969.83 576.18 1062.79"/><polygon class="cls-13" points="393.36 152.83 516.62 254.16 541.69 59.87 393.36 152.83"/><polygon class="cls-14" points="972.81 1075.87 1131.29 1057.4 1008.77 904.55 972.81 1075.87"/><polygon class="cls-15" points="972.81 1075.87 1131.29 1057.4 1008.77 904.55 972.81 1075.87"/><polygon class="cls-16" points="988.38 327.66 1146.86 309.2 1024.34 156.34 988.38 327.66"/><line class="cls-17" x1="1146.86" y1="309.2" x2="1024.34" y2="156.34"/><polygon class="cls-18" points="1126.2 494.99 1187.07 710.57 1371.69 506.71 1126.2 494.99"/><polygon class="cls-19" points="1126.2 494.99 1187.07 710.57 1371.69 506.71 1126.2 494.99"/></g><g class="cls-2"><polygon class="cls-20" points="1518.28 519.54 1253.09 301.54 1199.15 719.56 1518.28 519.54"/><polygon class="cls-21" points="1421.64 243.01 1225.55 81.81 1185.66 390.91 1421.64 243.01"/><polygon class="cls-22" points="1537.39 302.34 1414.13 201.02 1389.06 395.31 1537.39 302.34"/><polygon class="cls-23" points="1682.34 149.52 1559.08 48.2 1534.02 242.49 1682.34 149.52"/><polygon class="cls-24" points="1531.77 102.32 1408.51 1 1383.44 195.29 1531.77 102.32"/><polygon class="cls-25" points="1519.28 718.47 1619.47 594.28 1424.95 571 1519.28 718.47"/><polygon class="cls-26" points="1660.77 537.52 1608.4 319.72 1415.93 516.18 1660.77 537.52"/></g></g><g id="Layer_7" data-name="Layer 7"><circle class="cls-27" cx="1355.22" cy="522.86" r="428.45"/><polygon class="cls-28" points="1386.71 559.3 1344.74 606.5 1142.6 631.9 1161.82 582.65 1386.71 559.3"/><polygon class="cls-29" points="1147.24 522.75 1161.82 582.65 1142.6 631.9 1129.08 574.84 1147.24 522.75"/><polygon class="cls-30" points="1368.19 505.39 1386.71 559.3 1161.82 582.65 1147.24 522.75 1368.19 505.39"/><polygon class="cls-31" points="652.99 502.92 660.42 433.13 689.81 391.49 682.69 463.25 652.99 502.92"/><polygon class="cls-32" points="756.4 559.67 835.33 580.67 799.89 615.53 723.61 595.81 756.4 559.67"/><polygon class="cls-33" points="645.26 575.56 564.78 554.77 591.83 515.86 675.27 538.07 645.26 575.56"/><polygon class="cls-34" points="564.78 554.77 574.24 481.57 601.11 440.48 591.83 515.86 564.78 554.77"/><polygon class="cls-35" points="675.27 538.07 667.52 616.13 637.21 651.23 645.26 575.56 675.27 538.07"/><polygon class="cls-36" points="762.06 485.42 767.49 414.16 689.81 391.49 682.69 463.25 601.11 440.48 591.83 515.86 675.27 538.07 667.52 616.13 750.51 637.09 756.4 559.67 835.33 580.67 839.31 506.99 762.06 485.42"/><polygon class="cls-37" points="717.27 670.87 637.21 651.23 667.52 616.13 750.51 637.09 717.27 670.87"/><polygon class="cls-38" points="1550.25 327.11 1606.12 269.17 1621.06 212.68 1563.24 271.79 1550.25 327.11"/><polygon class="cls-39" points="1424.21 278.02 1347.62 224.14 1343.09 280.95 1416.6 333.48 1424.21 278.02"/><polygon class="cls-40" points="1492.11 387.41 1569.66 442.82 1583.93 390.39 1502.95 333.42 1492.11 387.41"/><polygon class="cls-41" points="1569.66 442.82 1627.01 380.59 1643.34 326.71 1583.93 390.39 1569.66 442.82"/><polygon class="cls-42" points="1502.95 333.42 1440.05 397.73 1431.54 450.22 1492.11 387.41 1502.95 333.42"/><polygon class="cls-43" points="1485.3 218.37 1543.92 161.11 1621.06 212.68 1563.24 271.79 1643.34 326.71 1583.93 390.39 1502.95 333.42 1440.05 397.73 1360.51 340.23 1424.21 278.02 1347.62 224.14 1409.44 166.37 1485.3 218.37"/><polygon class="cls-44" points="1355.31 394.33 1431.54 450.22 1440.05 397.73 1360.51 340.23 1355.31 394.33"/><polygon class="cls-45" points="896.88 193.33 925.12 164.05 932.67 135.5 903.45 165.38 896.88 193.33"/><polygon class="cls-46" points="833.19 168.53 794.48 141.29 792.18 170.01 829.34 196.55 833.19 168.53"/><polygon class="cls-47" points="867.5 223.81 906.69 251.81 913.91 225.31 872.98 196.52 867.5 223.81"/><polygon class="cls-48" points="906.69 251.81 935.68 220.36 943.93 193.13 913.91 225.31 906.69 251.81"/><polygon class="cls-49" points="872.98 196.52 841.19 229.02 836.89 255.55 867.5 223.81 872.98 196.52"/><polygon class="cls-50" points="864.06 138.38 893.69 109.44 932.67 135.5 903.45 165.38 943.93 193.13 913.91 225.31 872.98 196.52 841.19 229.02 801 199.97 833.19 168.53 794.48 141.29 825.72 112.1 864.06 138.38"/><polygon class="cls-51" points="798.37 227.31 836.89 255.55 841.19 229.02 801 199.97 798.37 227.31"/><polygon class="cls-52" points="307.9 242.52 363.01 225.75 558.51 320.07 520.12 349.25 307.9 242.52"/><polygon class="cls-53" points="502.97 402.8 520.12 349.25 558.51 320.07 541.89 370.9 502.97 402.8"/><polygon class="cls-54" points="296.66 293.28 307.9 242.52 520.12 349.25 502.97 402.8 296.66 293.28"/><polygon class="cls-55" points="625.1 1118.61 609.64 1057.38 702.21 875.9 732.15 919.47 625.1 1118.61"/><polygon class="cls-56" points="789.89 941.06 732.15 919.47 702.21 875.9 757 896.77 789.89 941.06"/><polygon class="cls-57" points="680.1 1133.59 625.1 1118.61 732.15 919.47 789.89 941.06 680.1 1133.59"/><polygon class="cls-58" points="1245.59 895.68 1335.65 791.07 1414.8 837.49 1245.59 895.68"/><polygon class="cls-59" points="1335.65 791.07 1498.23 835.14 1414.8 837.49 1335.65 791.07"/><polygon class="cls-60" points="1528.85 972.16 1414.8 837.49 1498.23 835.14 1528.85 972.16"/><polygon class="cls-61" points="1366.69 1018.35 1528.85 972.16 1429.76 1100.2 1366.69 1018.35"/><polygon class="cls-62" points="1366.69 1018.35 1429.76 1100.2 1263.12 1055.41 1366.69 1018.35"/><polygon class="cls-63" points="1366.69 1018.35 1263.12 1055.41 1245.59 895.68 1366.69 1018.35"/><polygon class="cls-64" points="1366.69 1018.35 1245.59 895.68 1414.8 837.49 1366.69 1018.35"/><polygon class="cls-65" points="1528.85 972.16 1366.69 1018.35 1414.8 837.49 1528.85 972.16"/><path class="cls-66" d="M847.9,706.37c16.8,0,16.8,14.49,33.59,14.49s16.79-14.49,33.58-14.49,16.79,14.49,33.57,14.49,16.8-14.49,33.61-14.49,16.82,14.49,33.64,14.49,16.82-14.49,33.63-14.49" transform="translate(-266.33 62.49)"/><path class="cls-67" d="M1329.49,358.9c16.8,0,16.8,14.49,33.59,14.49s16.79-14.49,33.57-14.49,16.8,14.49,33.58,14.49,16.8-14.49,33.61-14.49,16.83,14.49,33.64,14.49,16.82-14.49,33.63-14.49" transform="translate(-266.33 62.49)"/><circle class="cls-68" cx="1739.46" cy="1104.55" r="5.22"/><path class="cls-68" d="M2005.78,1075.4a5.22,5.22,0,1,1,5.22-5.22A5.22,5.22,0,0,1,2005.78,1075.4Z" transform="translate(-266.33 62.49)"/><path class="cls-68" d="M1976,1047.28a5.22,5.22,0,1,1,5.21-5.21A5.21,5.21,0,0,1,1976,1047.28Z" transform="translate(-266.33 62.49)"/><path class="cls-68" d="M1976,1075.4a5.22,5.22,0,1,1,5.21-5.22A5.22,5.22,0,0,1,1976,1075.4Z" transform="translate(-266.33 62.49)"/><path class="cls-68" d="M1946.2,1047.28a5.22,5.22,0,1,1,5.21-5.21A5.22,5.22,0,0,1,1946.2,1047.28Z" transform="translate(-266.33 62.49)"/><path class="cls-68" d="M1946.2,1075.4a5.22,5.22,0,1,1,5.21-5.22A5.22,5.22,0,0,1,1946.2,1075.4Z" transform="translate(-266.33 62.49)"/><path class="cls-68" d="M1916.4,1047.28a5.22,5.22,0,1,1,5.22-5.21A5.21,5.21,0,0,1,1916.4,1047.28Z" transform="translate(-266.33 62.49)"/><path class="cls-68" d="M1916.4,1075.4a5.22,5.22,0,1,1,5.22-5.22A5.22,5.22,0,0,1,1916.4,1075.4Z" transform="translate(-266.33 62.49)"/><path class="cls-68" d="M1886.61,1047.28a5.22,5.22,0,1,1,5.21-5.21A5.21,5.21,0,0,1,1886.61,1047.28Z" transform="translate(-266.33 62.49)"/><path class="cls-68" d="M1886.61,1075.4a5.22,5.22,0,1,1,5.21-5.22A5.22,5.22,0,0,1,1886.61,1075.4Z" transform="translate(-266.33 62.49)"/><path class="cls-68" d="M1856.82,1047.28a5.22,5.22,0,1,1,5.21-5.21A5.22,5.22,0,0,1,1856.82,1047.28Z" transform="translate(-266.33 62.49)"/><path class="cls-68" d="M1856.82,1075.4a5.22,5.22,0,1,1,5.21-5.22A5.22,5.22,0,0,1,1856.82,1075.4Z" transform="translate(-266.33 62.49)"/><path class="cls-68" d="M1827,1047.28a5.22,5.22,0,1,1,5.22-5.21A5.21,5.21,0,0,1,1827,1047.28Z" transform="translate(-266.33 62.49)"/><path class="cls-68" d="M1827,1075.4a5.22,5.22,0,1,1,5.22-5.22A5.22,5.22,0,0,1,1827,1075.4Z" transform="translate(-266.33 62.49)"/><path class="cls-68" d="M1797.23,1047.28a5.22,5.22,0,1,1,5.21-5.21A5.21,5.21,0,0,1,1797.23,1047.28Z" transform="translate(-266.33 62.49)"/><path class="cls-68" d="M1797.23,1075.4a5.22,5.22,0,1,1,5.21-5.22A5.22,5.22,0,0,1,1797.23,1075.4Z" transform="translate(-266.33 62.49)"/><path class="cls-68" d="M1767.44,1047.28a5.22,5.22,0,1,1,5.21-5.21A5.22,5.22,0,0,1,1767.44,1047.28Z" transform="translate(-266.33 62.49)"/><path class="cls-68" d="M1767.44,1075.4a5.22,5.22,0,1,1,5.21-5.22A5.22,5.22,0,0,1,1767.44,1075.4Z" transform="translate(-266.33 62.49)"/><path class="cls-68" d="M1737.64,1047.28a5.22,5.22,0,1,1,5.22-5.21A5.21,5.21,0,0,1,1737.64,1047.28Z" transform="translate(-266.33 62.49)"/><path class="cls-68" d="M1737.64,1075.4a5.22,5.22,0,1,1,5.22-5.22A5.22,5.22,0,0,1,1737.64,1075.4Z" transform="translate(-266.33 62.49)"/><circle class="cls-68" cx="226.95" cy="385.88" r="5.21"/><circle class="cls-68" cx="198.84" cy="385.88" r="5.21"/><circle class="cls-68" cx="170.72" cy="385.88" r="5.21"/><circle class="cls-68" cx="142.61" cy="385.88" r="5.21"/><circle class="cls-68" cx="226.95" cy="356.09" r="5.21"/><circle class="cls-68" cx="198.84" cy="356.09" r="5.21"/><circle class="cls-68" cx="170.72" cy="356.09" r="5.21"/><circle class="cls-68" cx="142.61" cy="356.09" r="5.21"/><path class="cls-68" d="M488.07,263.81a5.21,5.21,0,1,1,5.21,5.21A5.22,5.22,0,0,1,488.07,263.81Z" transform="translate(-266.33 62.49)"/><path class="cls-68" d="M460,263.81a5.22,5.22,0,1,1,5.21,5.21A5.22,5.22,0,0,1,460,263.81Z" transform="translate(-266.33 62.49)"/><path class="cls-68" d="M431.84,263.81a5.21,5.21,0,1,1,5.21,5.21A5.22,5.22,0,0,1,431.84,263.81Z" transform="translate(-266.33 62.49)"/><path class="cls-68" d="M403.72,263.81a5.22,5.22,0,1,1,5.21,5.21A5.22,5.22,0,0,1,403.72,263.81Z" transform="translate(-266.33 62.49)"/><path class="cls-68" d="M488.07,234a5.21,5.21,0,1,1,5.21,5.22A5.21,5.21,0,0,1,488.07,234Z" transform="translate(-266.33 62.49)"/><path class="cls-68" d="M460,234a5.22,5.22,0,1,1,5.21,5.22A5.22,5.22,0,0,1,460,234Z" transform="translate(-266.33 62.49)"/><path class="cls-68" d="M431.84,234a5.21,5.21,0,1,1,5.21,5.22A5.21,5.21,0,0,1,431.84,234Z" transform="translate(-266.33 62.49)"/><path class="cls-68" d="M403.72,234a5.22,5.22,0,1,1,5.21,5.22A5.21,5.21,0,0,1,403.72,234Z" transform="translate(-266.33 62.49)"/><path class="cls-68" d="M488.07,204.22a5.21,5.21,0,1,1,5.21,5.21A5.21,5.21,0,0,1,488.07,204.22Z" transform="translate(-266.33 62.49)"/><path class="cls-68" d="M460,204.22a5.22,5.22,0,1,1,5.21,5.21A5.21,5.21,0,0,1,460,204.22Z" transform="translate(-266.33 62.49)"/><path class="cls-68" d="M431.84,204.22a5.21,5.21,0,1,1,5.21,5.21A5.21,5.21,0,0,1,431.84,204.22Z" transform="translate(-266.33 62.49)"/><path class="cls-68" d="M403.72,204.22a5.22,5.22,0,1,1,5.21,5.21A5.21,5.21,0,0,1,403.72,204.22Z" transform="translate(-266.33 62.49)"/><path class="cls-68" d="M488.07,174.43a5.21,5.21,0,1,1,5.21,5.21A5.22,5.22,0,0,1,488.07,174.43Z" transform="translate(-266.33 62.49)"/><path class="cls-68" d="M460,174.43a5.22,5.22,0,1,1,5.21,5.21A5.22,5.22,0,0,1,460,174.43Z" transform="translate(-266.33 62.49)"/><path class="cls-68" d="M431.84,174.43a5.21,5.21,0,1,1,5.21,5.21A5.22,5.22,0,0,1,431.84,174.43Z" transform="translate(-266.33 62.49)"/><path class="cls-68" d="M403.72,174.43a5.22,5.22,0,1,1,5.21,5.21A5.22,5.22,0,0,1,403.72,174.43Z" transform="translate(-266.33 62.49)"/><path class="cls-68" d="M488.07,144.63a5.21,5.21,0,1,1,5.21,5.22A5.21,5.21,0,0,1,488.07,144.63Z" transform="translate(-266.33 62.49)"/><path class="cls-68" d="M460,144.63a5.22,5.22,0,1,1,5.21,5.22A5.21,5.21,0,0,1,460,144.63Z" transform="translate(-266.33 62.49)"/><path class="cls-68" d="M431.84,144.63a5.21,5.21,0,1,1,5.21,5.22A5.21,5.21,0,0,1,431.84,144.63Z" transform="translate(-266.33 62.49)"/><path class="cls-68" d="M403.72,144.63a5.22,5.22,0,1,1,5.21,5.22A5.21,5.21,0,0,1,403.72,144.63Z" transform="translate(-266.33 62.49)"/><path class="cls-68" d="M488.07,114.84a5.21,5.21,0,1,1,5.21,5.21A5.21,5.21,0,0,1,488.07,114.84Z" transform="translate(-266.33 62.49)"/><path class="cls-68" d="M460,114.84a5.22,5.22,0,1,1,5.21,5.21A5.21,5.21,0,0,1,460,114.84Z" transform="translate(-266.33 62.49)"/><path class="cls-68" d="M431.84,114.84a5.21,5.21,0,1,1,5.21,5.21A5.21,5.21,0,0,1,431.84,114.84Z" transform="translate(-266.33 62.49)"/><path class="cls-68" d="M403.72,114.84a5.22,5.22,0,1,1,5.21,5.21A5.21,5.21,0,0,1,403.72,114.84Z" transform="translate(-266.33 62.49)"/><path class="cls-68" d="M488.07,85.05a5.21,5.21,0,1,1,5.21,5.21A5.22,5.22,0,0,1,488.07,85.05Z" transform="translate(-266.33 62.49)"/><path class="cls-68" d="M460,85.05a5.22,5.22,0,1,1,5.21,5.21A5.22,5.22,0,0,1,460,85.05Z" transform="translate(-266.33 62.49)"/><path class="cls-68" d="M431.84,85.05a5.21,5.21,0,1,1,5.21,5.21A5.22,5.22,0,0,1,431.84,85.05Z" transform="translate(-266.33 62.49)"/><path class="cls-68" d="M403.72,85.05a5.22,5.22,0,1,1,5.21,5.21A5.22,5.22,0,0,1,403.72,85.05Z" transform="translate(-266.33 62.49)"/><path class="cls-68" d="M488.07,55.25a5.21,5.21,0,1,1,5.21,5.22A5.21,5.21,0,0,1,488.07,55.25Z" transform="translate(-266.33 62.49)"/><path class="cls-68" d="M460,55.25a5.22,5.22,0,1,1,5.21,5.22A5.21,5.21,0,0,1,460,55.25Z" transform="translate(-266.33 62.49)"/><path class="cls-68" d="M431.84,55.25a5.21,5.21,0,1,1,5.21,5.22A5.21,5.21,0,0,1,431.84,55.25Z" transform="translate(-266.33 62.49)"/><path class="cls-68" d="M403.72,55.25a5.22,5.22,0,1,1,5.21,5.22A5.21,5.21,0,0,1,403.72,55.25Z" transform="translate(-266.33 62.49)"/><path class="cls-69" d="M773.57,895.11,788.33,887l-8.08-14.75a6.44,6.44,0,1,1,11.3-6.19l8.08,14.76,14.75-8.08a6.45,6.45,0,0,1,6.19,11.31l-14.75,8.07,8.07,14.75a6.44,6.44,0,0,1-11.3,6.19l-8.08-14.75-14.75,8.07a6.44,6.44,0,1,1-6.19-11.3Z" transform="translate(-266.33 62.49)"/><path class="cls-70" d="M1384.9,984.58a6.1,6.1,0,0,1-4.45-4.18l-13.11-43.77a6.09,6.09,0,0,1,7.25-7.68L1419,939.47a6.1,6.1,0,0,1,3,10.12l-31.34,33.24a6.1,6.1,0,0,1-4.44,1.92A5.53,5.53,0,0,1,1384.9,984.58Zm-2.83-41.32,7,23.51,16.83-17.86Z" transform="translate(-266.33 62.49)"/><path class="cls-71" d="M1774.92,549.24a7.58,7.58,0,0,1-5.5-5.18L1753.21,490a7.53,7.53,0,0,1,9-9.5l55,13A7.55,7.55,0,0,1,1820.9,506l-38.76,41.1a7.53,7.53,0,0,1-5.48,2.37A7.87,7.87,0,0,1,1774.92,549.24Zm-3.5-51.1,8.7,29.07L1801,505.13Z" transform="translate(-266.33 62.49)"/><path class="cls-72" d="M1049.94,588.26a33.6,33.6,0,1,1-33.6-33.59A33.61,33.61,0,0,1,1049.94,588.26Z" transform="translate(-266.33 62.49)"/><path class="cls-73" d="M1553,4.52a89.39,89.39,0,0,1-178.78,0" transform="translate(-266.33 62.49)"/><polyline class="cls-74" points="212.29 1114.41 219.75 1092.03 242.23 1084.84 249.68 1062.47 272.15 1055.27 279.63 1032.87 302.12 1025.66"/><polyline class="cls-74" points="1710.89 190.73 1703.43 168.35 1680.96 161.16 1673.51 138.79 1651.03 131.59 1643.55 109.2 1621.06 101.99"/><polyline class="cls-74" points="578.77 218.2 572.76 200.19 554.68 194.41 548.68 176.4 530.59 170.61 524.57 152.58 506.47 146.78"/><rect class="cls-75" x="1841.83" y="748.87" width="31.56" height="31.56" transform="translate(-15.79 2032.43) rotate(-59.24)"/></g></g></svg>