<svg xmlns="http://www.w3.org/2000/svg" xmlns:xlink="http://www.w3.org/1999/xlink" viewBox="0 0 1949.75 1355.62"><defs><style>.cls-1{isolation:isolate;}.cls-2{opacity:0.54;}.cls-11,.cls-12,.cls-13,.cls-14,.cls-16,.cls-18,.cls-20,.cls-21,.cls-22,.cls-23,.cls-24,.cls-25,.cls-26,.cls-3,.cls-4,.cls-5,.cls-6,.cls-7,.cls-8,.cls-9{fill:none;stroke-linecap:round;stroke-linejoin:round;stroke-width:2px;}.cls-10,.cls-11,.cls-12,.cls-13,.cls-14,.cls-15,.cls-16,.cls-18,.cls-19,.cls-20,.cls-21,.cls-22,.cls-23,.cls-24,.cls-25,.cls-26,.cls-3,.cls-4,.cls-5,.cls-6,.cls-7,.cls-8,.cls-9{fill-rule:evenodd;}.cls-10,.cls-11,.cls-12,.cls-13,.cls-14,.cls-15,.cls-16,.cls-17,.cls-18,.cls-19,.cls-20,.cls-21,.cls-22,.cls-23,.cls-24,.cls-25,.cls-26,.cls-3,.cls-4,.cls-5,.cls-6,.cls-7,.cls-8,.cls-9{mix-blend-mode:screen;}.cls-3{stroke:url(#Degradado_sin_nombre_9);}.cls-4{stroke:url(#Degradado_sin_nombre_9-2);}.cls-5{stroke:url(#Degradado_sin_nombre_6);}.cls-6{stroke:url(#Degradado_sin_nombre_6-2);}.cls-7{stroke:url(#Degradado_sin_nombre_6-3);}.cls-8{stroke:url(#Degradado_sin_nombre_6-4);}.cls-9{stroke:url(#Degradado_sin_nombre_6-5);}.cls-10{fill:#24a2ee;}.cls-10,.cls-17{opacity:0.15;}.cls-11{stroke:url(#Degradado_sin_nombre_9-3);}.cls-12{stroke:url(#Degradado_sin_nombre_6-6);}.cls-13{stroke:url(#Degradado_sin_nombre_6-7);}.cls-14{stroke:url(#Degradado_sin_nombre_6-8);}.cls-15,.cls-17,.cls-19{fill:#0df1f9;}.cls-15{opacity:0.24;}.cls-16{stroke:url(#Degradado_sin_nombre_6-9);}.cls-18{stroke:url(#Degradado_sin_nombre_8);}.cls-19{opacity:0.28;}.cls-20{stroke:url(#Degradado_sin_nombre_9-4);}.cls-21{stroke:url(#Degradado_sin_nombre_9-5);}.cls-22{stroke:url(#Degradado_sin_nombre_6-10);}.cls-23{stroke:url(#Degradado_sin_nombre_6-11);}.cls-24{stroke:url(#Degradado_sin_nombre_6-12);}.cls-25{stroke:url(#Degradado_sin_nombre_6-13);}.cls-26{stroke:url(#Degradado_sin_nombre_6-14);}.cls-27{fill:url(#linear-gradient);}.cls-28{fill:url(#linear-gradient-2);}.cls-29{fill:url(#linear-gradient-3);}.cls-30{fill:url(#linear-gradient-4);}.cls-31{fill:url(#linear-gradient-5);}.cls-32{fill:url(#linear-gradient-6);}.cls-33{fill:url(#linear-gradient-7);}.cls-34{fill:url(#linear-gradient-8);}.cls-35{fill:url(#linear-gradient-9);}.cls-36{fill:url(#linear-gradient-10);}.cls-37{fill:url(#linear-gradient-11);}.cls-38{fill:url(#linear-gradient-12);}.cls-39{fill:url(#radial-gradient);}.cls-40{fill:url(#radial-gradient-2);}.cls-41{fill:url(#radial-gradient-3);}.cls-42{fill:url(#radial-gradient-4);}.cls-43{fill:url(#radial-gradient-5);}.cls-44{fill:#a5b7c6;}</style><linearGradient id="Degradado_sin_nombre_9" x1="460.46" y1="968.94" x2="781.6" y2="968.94" gradientUnits="userSpaceOnUse"><stop offset="0"/><stop offset="0.09" stop-color="#000303"/><stop offset="0.15" stop-color="#010c0d"/><stop offset="0.22" stop-color="#021c1d"/><stop offset="0.27" stop-color="#033335"/><stop offset="0.33" stop-color="#045053"/><stop offset="0.38" stop-color="#067477"/><stop offset="0.43" stop-color="#099ea3"/><stop offset="0.48" stop-color="#0bced5"/><stop offset="0.51" stop-color="#0df1f9"/><stop offset="0.51" stop-color="#0deff7"/><stop offset="0.57" stop-color="#0ab8be"/><stop offset="0.63" stop-color="#07878b"/><stop offset="0.69" stop-color="#055d60"/><stop offset="0.75" stop-color="#033c3e"/><stop offset="0.81" stop-color="#022123"/><stop offset="0.87" stop-color="#010f0f"/><stop offset="0.93" stop-color="#000404"/><stop offset="1"/></linearGradient><linearGradient id="Degradado_sin_nombre_9-2" x1="890.1" y1="835.12" x2="1128.08" y2="835.12" xlink:href="#Degradado_sin_nombre_9"/><linearGradient id="Degradado_sin_nombre_6" x1="872.36" y1="525.32" x2="1022.69" y2="525.32" gradientUnits="userSpaceOnUse"><stop offset="0"/><stop offset="0.09" stop-color="#000203"/><stop offset="0.16" stop-color="#02090d"/><stop offset="0.22" stop-color="#04141d"/><stop offset="0.28" stop-color="#082435"/><stop offset="0.33" stop-color="#0c3853"/><stop offset="0.39" stop-color="#125177"/><stop offset="0.44" stop-color="#196fa3"/><stop offset="0.49" stop-color="#2091d5"/><stop offset="0.51" stop-color="#24a2ee"/><stop offset="0.56" stop-color="#1fb4f0"/><stop offset="0.67" stop-color="#17cff4"/><stop offset="0.78" stop-color="#11e2f7"/><stop offset="0.89" stop-color="#0eedf8"/><stop offset="1" stop-color="#0df1f9"/></linearGradient><linearGradient id="Degradado_sin_nombre_6-2" x1="266.4" y1="1180.14" x2="416.73" y2="1180.14" xlink:href="#Degradado_sin_nombre_6"/><linearGradient id="Degradado_sin_nombre_6-3" x1="416.98" y1="1227.34" x2="567.31" y2="1227.34" xlink:href="#Degradado_sin_nombre_6"/><linearGradient id="Degradado_sin_nombre_6-4" x1="350.09" y1="555.17" x2="500.42" y2="555.17" gradientTransform="translate(978.22 250.85) rotate(89.47)" xlink:href="#Degradado_sin_nombre_6"/><linearGradient id="Degradado_sin_nombre_6-5" x1="461.43" y1="668.65" x2="671.69" y2="668.65" gradientTransform="translate(319.35 -19.6) rotate(37.06)" xlink:href="#Degradado_sin_nombre_6"/><linearGradient id="Degradado_sin_nombre_9-3" x1="1407.9" y1="846.19" x2="1645.88" y2="846.19" xlink:href="#Degradado_sin_nombre_9"/><linearGradient id="Degradado_sin_nombre_6-6" x1="841.58" y1="1107.49" x2="991.91" y2="1107.49" xlink:href="#Degradado_sin_nombre_6"/><linearGradient id="Degradado_sin_nombre_6-7" x1="658.76" y1="197.53" x2="809.09" y2="197.53" xlink:href="#Degradado_sin_nombre_6"/><linearGradient id="Degradado_sin_nombre_6-8" x1="1128.38" y1="1024.44" x2="1278.71" y2="1024.44" gradientTransform="matrix(0.69, -0.72, 0.72, 0.69, -279.04, 1221.79)" xlink:href="#Degradado_sin_nombre_6"/><linearGradient id="Degradado_sin_nombre_6-9" x1="1678.01" y1="516.49" x2="1828.35" y2="516.49" gradientTransform="matrix(0.69, -0.72, 0.72, 0.69, -279.04, 1221.79)" xlink:href="#Degradado_sin_nombre_6"/><linearGradient id="Degradado_sin_nombre_8" x1="1192.67" y1="-197.48" x2="1402.91" y2="-197.48" gradientTransform="matrix(0.82, 0.57, -0.57, 0.82, 296.51, 20.98)" gradientUnits="userSpaceOnUse"><stop offset="0"/><stop offset="0.05" stop-color="#030c11"/><stop offset="0.16" stop-color="#092a3e"/><stop offset="0.31" stop-color="#145b86"/><stop offset="0.5" stop-color="#239ee8"/><stop offset="0.51" stop-color="#24a2ee"/><stop offset="0.56" stop-color="#1fb4f0"/><stop offset="0.67" stop-color="#17cff4"/><stop offset="0.78" stop-color="#11e2f7"/><stop offset="0.89" stop-color="#0eedf8"/><stop offset="1" stop-color="#0df1f9"/></linearGradient><linearGradient id="Degradado_sin_nombre_9-4" x1="681.18" y1="396.38" x2="1002.31" y2="396.38" gradientTransform="translate(2466.86 947.44) rotate(180)" xlink:href="#Degradado_sin_nombre_9"/><linearGradient id="Degradado_sin_nombre_9-5" x1="777.82" y1="670.57" x2="1015.79" y2="670.57" gradientTransform="translate(2466.86 947.44) rotate(180)" xlink:href="#Degradado_sin_nombre_9"/><linearGradient id="Degradado_sin_nombre_6-10" x1="662.07" y1="608.76" x2="812.4" y2="608.76" gradientTransform="translate(2466.86 947.44) rotate(180)" xlink:href="#Degradado_sin_nombre_6"/><linearGradient id="Degradado_sin_nombre_6-11" x1="517.11" y1="761.59" x2="667.44" y2="761.59" gradientTransform="translate(2466.86 947.44) rotate(180)" xlink:href="#Degradado_sin_nombre_6"/><linearGradient id="Degradado_sin_nombre_6-12" x1="667.69" y1="808.78" x2="818.02" y2="808.78" gradientTransform="translate(2466.86 947.44) rotate(180)" xlink:href="#Degradado_sin_nombre_6"/><linearGradient id="Degradado_sin_nombre_6-13" x1="36.87" y1="301.5" x2="187.19" y2="301.5" gradientTransform="translate(1488.71 799.59) rotate(-90.53)" xlink:href="#Degradado_sin_nombre_6"/><linearGradient id="Degradado_sin_nombre_6-14" x1="471.41" y1="265.68" x2="681.66" y2="265.68" gradientTransform="translate(2147.59 1070.04) rotate(-142.94)" xlink:href="#Degradado_sin_nombre_6"/><linearGradient id="linear-gradient" x1="838.51" y1="89.6" x2="952.26" y2="286.63" gradientUnits="userSpaceOnUse"><stop offset="0" stop-color="#00bbd8"/><stop offset="0.48" stop-color="#4a5197"/><stop offset="0.54" stop-color="#534d95"/><stop offset="0.64" stop-color="#6c438f"/><stop offset="0.77" stop-color="#943284"/><stop offset="0.92" stop-color="#cb1a77"/><stop offset="1" stop-color="#ed0c6e"/></linearGradient><linearGradient id="linear-gradient-2" x1="853.27" y1="144.72" x2="967.02" y2="341.75" gradientUnits="userSpaceOnUse"><stop offset="0" stop-color="aqua"/><stop offset="0.51" stop-color="#00bbd8"/><stop offset="1" stop-color="#ed0c6e"/></linearGradient><linearGradient id="linear-gradient-3" x1="955.42" y1="526.81" x2="1144.78" y2="854.79" xlink:href="#linear-gradient"/><linearGradient id="linear-gradient-4" x1="1055.75" y1="468.88" x2="1245.11" y2="796.87" xlink:href="#linear-gradient-2"/><linearGradient id="linear-gradient-5" x1="1469.2" y1="613.7" x2="1747.63" y2="1095.95" xlink:href="#linear-gradient"/><linearGradient id="linear-gradient-6" x1="1642.25" y1="513.79" x2="1920.68" y2="996.04" xlink:href="#linear-gradient-2"/><linearGradient id="linear-gradient-7" x1="486.69" y1="811.05" x2="594.01" y2="996.93" xlink:href="#linear-gradient"/><linearGradient id="linear-gradient-8" x1="553.39" y1="772.55" x2="660.71" y2="958.42" xlink:href="#linear-gradient-2"/><linearGradient id="linear-gradient-9" x1="1397.31" y1="97.53" x2="1655.37" y2="97.53" xlink:href="#linear-gradient"/><linearGradient id="linear-gradient-10" x1="1526.34" y1="-31.5" x2="1526.34" y2="226.55" xlink:href="#linear-gradient-2"/><linearGradient id="linear-gradient-11" x1="354.87" y1="528.19" x2="483.9" y2="528.19" gradientTransform="translate(587.85 -640.37) rotate(45)" xlink:href="#linear-gradient"/><linearGradient id="linear-gradient-12" x1="419.38" y1="463.68" x2="419.38" y2="592.71" gradientTransform="translate(587.85 -640.37) rotate(45)" xlink:href="#linear-gradient-2"/><radialGradient id="radial-gradient" cx="582.2" cy="541.31" r="194.13" gradientUnits="userSpaceOnUse"><stop offset="0" stop-color="#ed0c6e"/><stop offset="0.19" stop-color="#b5097f"/><stop offset="0.39" stop-color="#83068f"/><stop offset="0.57" stop-color="#5b039b"/><stop offset="0.74" stop-color="#3f01a4"/><stop offset="0.89" stop-color="#2d00a9"/><stop offset="1" stop-color="#2700ab"/></radialGradient><radialGradient id="radial-gradient-2" cx="924.59" cy="1168.86" r="308.23" xlink:href="#radial-gradient"/><radialGradient id="radial-gradient-3" cx="1243.14" cy="162.4" r="74.05" xlink:href="#radial-gradient"/><radialGradient id="radial-gradient-4" cx="1767.29" cy="306.13" r="74.05" gradientTransform="translate(1660.96 -1470.94) rotate(76.72)" xlink:href="#radial-gradient"/><radialGradient id="radial-gradient-5" cx="1226.6" cy="443.61" r="141.41" xlink:href="#radial-gradient"/></defs><g class="cls-1"><g id="Layer_3" data-name="Layer 3"><g class="cls-2"><polygon class="cls-3" points="461.46 959.95 726.66 1177.95 780.6 759.93 461.46 959.95"/><polygon class="cls-4" points="891.1 828.48 1087.2 989.67 1127.08 680.57 891.1 828.48"/><polygon class="cls-5" points="873.36 521.14 996.62 622.47 1021.69 428.17 873.36 521.14"/><polygon class="cls-6" points="267.4 1175.97 390.66 1277.29 415.73 1083 267.4 1175.97"/><polygon class="cls-7" points="417.98 1223.16 541.24 1324.48 566.31 1130.19 417.98 1223.16"/><polygon class="cls-8" points="430.47 607.02 330.28 731.2 524.79 754.49 430.47 607.02"/><polygon class="cls-9" points="288.98 787.96 341.35 1005.77 533.82 809.3 288.98 787.96"/><polygon class="cls-10" points="288.98 787.96 341.35 1005.77 533.82 809.3 288.98 787.96"/></g><g class="cls-2"><polygon class="cls-11" points="1408.9 839.54 1604.99 1000.74 1644.88 691.64 1408.9 839.54"/><polygon class="cls-12" points="842.58 1103.31 965.84 1204.63 990.91 1010.34 842.58 1103.31"/><polygon class="cls-13" points="659.76 193.35 783.02 294.67 808.09 100.38 659.76 193.35"/><polygon class="cls-14" points="1239.21 1116.38 1397.7 1097.92 1275.17 945.06 1239.21 1116.38"/><polygon class="cls-15" points="1239.21 1116.38 1397.7 1097.92 1275.17 945.06 1239.21 1116.38"/><polygon class="cls-16" points="1254.78 368.18 1413.27 349.71 1290.74 196.85 1254.78 368.18"/><line class="cls-17" x1="1413.27" y1="349.71" x2="1290.74" y2="196.86"/><polygon class="cls-18" points="1392.6 535.5 1453.47 751.08 1638.09 547.23 1392.6 535.5"/><polygon class="cls-19" points="1392.6 535.5 1453.47 751.08 1638.09 547.23 1392.6 535.5"/></g><g class="cls-2"><polygon class="cls-20" points="1784.68 560.05 1519.49 342.05 1465.55 760.07 1784.68 560.05"/><polygon class="cls-21" points="1688.05 283.52 1491.95 122.33 1452.07 431.43 1688.05 283.52"/><polygon class="cls-22" points="1803.79 342.86 1680.53 241.53 1655.46 435.83 1803.79 342.86"/><polygon class="cls-23" points="1948.75 190.03 1825.49 88.71 1800.42 283 1948.75 190.03"/><polygon class="cls-24" points="1798.17 142.84 1674.91 41.52 1649.84 235.81 1798.17 142.84"/><polygon class="cls-25" points="1785.68 758.98 1885.87 634.8 1691.36 611.51 1785.68 758.98"/><polygon class="cls-26" points="1927.17 578.04 1874.8 360.23 1682.33 556.7 1927.17 578.04"/></g></g><g id="Layer_9" data-name="Layer 9"><path class="cls-27" d="M823.64,215.67a79.13,79.13,0,1,1,158.25,0,31.09,31.09,0,1,0,62.17,0,141.3,141.3,0,1,0-282.59,0,31.09,31.09,0,1,0,62.17,0Z" transform="translate(0.07 103)"/><path class="cls-28" d="M981.89,215.67a78.52,78.52,0,0,1-6.21,30.79A79.45,79.45,0,0,1,947,281.3a79.26,79.26,0,0,1-75,7.29,79.51,79.51,0,0,1-34.84-28.7,78.58,78.58,0,0,1-13.5-44.22,31.09,31.09,0,0,0-62.17,0,141.3,141.3,0,1,0,282.59,0,31.09,31.09,0,0,0-62.17,0Z" transform="translate(0.07 103)"/><path class="cls-29" d="M1216.13,746.62H1015.49V546a31.09,31.09,0,0,0-62.17,0V777.7a31.07,31.07,0,0,0,31.08,31.08h231.73a31.08,31.08,0,0,0,0-62.16Z" transform="translate(0.07 103)"/><path class="cls-30" d="M984.4,577.06H1185V777.7a31.09,31.09,0,1,0,62.17,0V546a31.07,31.07,0,0,0-31.08-31.08H984.4a31.09,31.09,0,0,0,0,62.17Z" transform="translate(0.07 103)"/><path class="cls-31" d="M1666.1,555.1l-41.31-23.85L1394.06,930.88a47.71,47.71,0,0,0,41.31,71.56h461.46a47.71,47.71,0,0,0,41.31-71.56L1707.41,531.25a47.7,47.7,0,0,0-82.62,0l41.31,23.85L1624.79,579,1814.2,907H1518L1707.41,579,1666.1,555.1,1624.79,579Z" transform="translate(0.07 103)"/><path class="cls-32" d="M1938.14,930.88,1707.41,531.25a47.7,47.7,0,0,0-82.62,47.7l230.72,399.63a47.7,47.7,0,0,0,82.63-47.7" transform="translate(0.07 103)"/><path class="cls-33" d="M562.58,788.47l-15.92-9.19-88.93,154a18.39,18.39,0,0,0,15.92,27.58H651.51a18.39,18.39,0,0,0,15.93-27.58l-88.93-154a18.38,18.38,0,0,0-31.85,0l15.92,9.19-15.92,9.19,73,126.45H505.5l73-126.45-15.93-9.19-15.92,9.19Z" transform="translate(0.07 103)"/><path class="cls-34" d="M667.44,933.31l-88.93-154a18.39,18.39,0,0,0-31.85,18.38l88.93,154a18.39,18.39,0,0,0,31.85-18.38" transform="translate(0.07 103)"/><path class="cls-35" d="M1602.3-22.4,1406.42,173.49a31.08,31.08,0,0,0,44,44L1646.26,21.57a31.1,31.1,0,0,0,0-44,31.1,31.1,0,0,0-44,0" transform="translate(0.07 103)"/><path class="cls-36" d="M1406.42,21.57,1602.3,217.45a31.08,31.08,0,0,0,44-44L1450.38-22.4a31.1,31.1,0,0,0-44,0,31.1,31.1,0,0,0,0,44" transform="translate(0.07 103)"/><path class="cls-37" d="M580.17,14.12H441.66a15.55,15.55,0,1,0,0,31.09H580.17a15.55,15.55,0,0,0,0-31.09" transform="translate(0.07 103)"/><path class="cls-38" d="M495.37-39.59V98.92a15.55,15.55,0,0,0,31.09,0V-39.59a15.53,15.53,0,0,0-15.54-15.54,15.54,15.54,0,0,0-15.54,15.54" transform="translate(0.07 103)"/><circle class="cls-39" cx="562.54" cy="561.65" r="97.29"/><circle class="cls-40" cx="893.37" cy="1201.15" r="154.47"/><circle class="cls-41" cx="1235.64" cy="170.16" r="37.11"/><circle class="cls-42" cx="1759.79" cy="313.89" r="37.11" transform="translate(1050.06 2057.48) rotate(-76.72)"/><circle class="cls-43" cx="1212.27" cy="458.42" r="70.87"/><path class="cls-44" d="M1402.1,401.93a35.59,35.59,0,1,1,35.59-35.59A35.64,35.64,0,0,1,1402.1,401.93Zm0-59a23.44,23.44,0,1,0,23.44,23.44A23.46,23.46,0,0,0,1402.1,342.9Z" transform="translate(0.07 103)"/><path class="cls-44" d="M710.5,741.88H629.38V660.76H710.5Zm-67.3-13.82h53.48V674.58H643.2Z" transform="translate(0.07 103)"/><path class="cls-44" d="M1686.54,389.39h-22V367.34a5.64,5.64,0,1,0-11.27,0v22.05h-22a5.64,5.64,0,1,0,0,11.27h22v22a5.64,5.64,0,0,0,11.27,0v-22h22a5.64,5.64,0,0,0,0-11.27Z" transform="translate(0.07 103)"/><path class="cls-44" d="M291,918.9a9,9,0,1,1,12.76,0A9,9,0,0,1,291,918.9Z" transform="translate(0.07 103)"/><path class="cls-44" d="M232.28,977.6a9,9,0,1,1,12.76,0A9,9,0,0,1,232.28,977.6Z" transform="translate(0.07 103)"/><path class="cls-44" d="M173.58,1036.31a9,9,0,1,1,12.76,0A9,9,0,0,1,173.58,1036.31Z" transform="translate(0.07 103)"/><circle class="cls-44" cx="121.33" cy="1191.63" r="9.02"/><circle class="cls-44" cx="62.63" cy="1250.33" r="9.02"/><path class="cls-44" d="M237.38,921a9,9,0,1,1,12.76,0A9,9,0,0,1,237.38,921Z" transform="translate(0.07 103)"/><path class="cls-44" d="M178.68,979.72a9,9,0,1,1,12.76,0A9,9,0,0,1,178.68,979.72Z" transform="translate(0.07 103)"/><circle class="cls-44" cx="126.43" cy="1135.05" r="9.02"/><path class="cls-44" d="M61.27,1097.13a9,9,0,1,1,12.76,0A9,9,0,0,1,61.27,1097.13Z" transform="translate(0.07 103)"/><path class="cls-44" d="M2.57,1155.83a9,9,0,1,1,12.76,0A9,9,0,0,1,2.57,1155.83Z" transform="translate(0.07 103)"/><path class="cls-44" d="M1862.46-91.24a6.89,6.89,0,0,1,0-9.74,6.89,6.89,0,0,1,9.74,0,6.87,6.87,0,0,1,0,9.74A6.89,6.89,0,0,1,1862.46-91.24Z" transform="translate(0.07 103)"/><path class="cls-44" d="M1817.63-46.4a6.9,6.9,0,0,1,0-9.75,6.89,6.89,0,0,1,9.74,0,6.89,6.89,0,0,1,0,9.74A6.88,6.88,0,0,1,1817.63-46.4Z" transform="translate(0.07 103)"/><path class="cls-44" d="M1772.8-1.57a6.89,6.89,0,0,1,0-9.75,6.89,6.89,0,0,1,9.74,0,6.9,6.9,0,0,1,0,9.75A6.89,6.89,0,0,1,1772.8-1.57Z" transform="translate(0.07 103)"/><path class="cls-44" d="M1728,43.26a6.89,6.89,0,1,1,9.75,0A6.9,6.9,0,0,1,1728,43.26Z" transform="translate(0.07 103)"/><path class="cls-44" d="M1683.13,88.09a6.89,6.89,0,1,1,9.75,0A6.9,6.9,0,0,1,1683.13,88.09Z" transform="translate(0.07 103)"/><circle class="cls-44" cx="1826.47" cy="8.51" r="6.89"/><circle class="cls-44" cx="1781.64" cy="53.34" r="6.89"/><circle class="cls-44" cx="1736.8" cy="98.17" r="6.89"/><path class="cls-44" d="M1687,44.88a6.89,6.89,0,1,1,9.74,0A6.9,6.9,0,0,1,1687,44.88Z" transform="translate(0.07 103)"/><circle class="cls-44" cx="1647.14" cy="187.84" r="6.89"/><path class="cls-44" d="M1188.46,1001.21l-42-72.76a5.23,5.23,0,0,0-9.07,0l-42,72.76a5.24,5.24,0,0,0,4.53,7.85h84a5.24,5.24,0,0,0,4.53-7.85ZM1109,998.59l32.94-57.05,32.94,57.05Z" transform="translate(0.07 103)"/></g></g></svg>