<svg xmlns="http://www.w3.org/2000/svg" xmlns:xlink="http://www.w3.org/1999/xlink" viewBox="0 0 1744.67 1284.97"><defs><style>.cls-1{isolation:isolate;}.cls-2{opacity:0.54;}.cls-11,.cls-12,.cls-13,.cls-14,.cls-16,.cls-18,.cls-20,.cls-21,.cls-22,.cls-23,.cls-24,.cls-25,.cls-26,.cls-3,.cls-4,.cls-5,.cls-6,.cls-65,.cls-66,.cls-7,.cls-71,.cls-72,.cls-73,.cls-74,.cls-8,.cls-9{fill:none;}.cls-11,.cls-12,.cls-13,.cls-14,.cls-16,.cls-18,.cls-20,.cls-21,.cls-22,.cls-23,.cls-24,.cls-25,.cls-26,.cls-3,.cls-4,.cls-5,.cls-6,.cls-65,.cls-66,.cls-7,.cls-71,.cls-73,.cls-74,.cls-8,.cls-9{stroke-linecap:round;}.cls-11,.cls-12,.cls-13,.cls-14,.cls-16,.cls-18,.cls-20,.cls-21,.cls-22,.cls-23,.cls-24,.cls-25,.cls-26,.cls-3,.cls-4,.cls-5,.cls-6,.cls-65,.cls-7,.cls-71,.cls-74,.cls-8,.cls-9{stroke-linejoin:round;}.cls-11,.cls-12,.cls-13,.cls-14,.cls-16,.cls-18,.cls-20,.cls-21,.cls-22,.cls-23,.cls-24,.cls-25,.cls-26,.cls-3,.cls-4,.cls-5,.cls-6,.cls-65,.cls-66,.cls-7,.cls-71,.cls-72,.cls-73,.cls-8,.cls-9{stroke-width:2px;}.cls-10,.cls-11,.cls-12,.cls-13,.cls-14,.cls-15,.cls-16,.cls-18,.cls-19,.cls-20,.cls-21,.cls-22,.cls-23,.cls-24,.cls-25,.cls-26,.cls-3,.cls-4,.cls-5,.cls-6,.cls-7,.cls-8,.cls-9{fill-rule:evenodd;}.cls-10,.cls-11,.cls-12,.cls-13,.cls-14,.cls-15,.cls-16,.cls-17,.cls-18,.cls-19,.cls-20,.cls-21,.cls-22,.cls-23,.cls-24,.cls-25,.cls-26,.cls-3,.cls-4,.cls-5,.cls-6,.cls-7,.cls-8,.cls-9{mix-blend-mode:screen;}.cls-3{stroke:url(#Degradado_sin_nombre_9);}.cls-4{stroke:url(#Degradado_sin_nombre_9-2);}.cls-5{stroke:url(#Degradado_sin_nombre_6);}.cls-6{stroke:url(#Degradado_sin_nombre_6-2);}.cls-7{stroke:url(#Degradado_sin_nombre_6-3);}.cls-8{stroke:url(#Degradado_sin_nombre_6-4);}.cls-9{stroke:url(#Degradado_sin_nombre_6-5);}.cls-10{fill:#24a2ee;}.cls-10,.cls-17{opacity:0.15;}.cls-11{stroke:url(#Degradado_sin_nombre_9-3);}.cls-12{stroke:url(#Degradado_sin_nombre_6-6);}.cls-13{stroke:url(#Degradado_sin_nombre_6-7);}.cls-14{stroke:url(#Degradado_sin_nombre_6-8);}.cls-15,.cls-17,.cls-19{fill:#0df1f9;}.cls-15{opacity:0.24;}.cls-16{stroke:url(#Degradado_sin_nombre_6-9);}.cls-18{stroke:url(#Degradado_sin_nombre_8);}.cls-19{opacity:0.28;}.cls-20{stroke:url(#Degradado_sin_nombre_9-4);}.cls-21{stroke:url(#Degradado_sin_nombre_9-5);}.cls-22{stroke:url(#Degradado_sin_nombre_6-10);}.cls-23{stroke:url(#Degradado_sin_nombre_6-11);}.cls-24{stroke:url(#Degradado_sin_nombre_6-12);}.cls-25{stroke:url(#Degradado_sin_nombre_6-13);}.cls-26{stroke:url(#Degradado_sin_nombre_6-14);}.cls-27{fill:url(#linear-gradient);}.cls-28{fill:url(#linear-gradient-2);}.cls-29{fill:url(#linear-gradient-3);}.cls-30{fill:url(#linear-gradient-4);}.cls-31{fill:url(#linear-gradient-5);}.cls-32{fill:url(#linear-gradient-6);}.cls-33{fill:url(#linear-gradient-7);}.cls-34{fill:url(#linear-gradient-8);}.cls-35{fill:url(#linear-gradient-9);}.cls-36{fill:url(#linear-gradient-10);}.cls-37{fill:url(#linear-gradient-11);}.cls-38{fill:url(#linear-gradient-12);}.cls-39{fill:url(#linear-gradient-13);}.cls-40{fill:url(#linear-gradient-14);}.cls-41{fill:url(#linear-gradient-15);}.cls-42{fill:url(#linear-gradient-16);}.cls-43{fill:url(#linear-gradient-17);}.cls-44{fill:url(#linear-gradient-18);}.cls-45{fill:url(#linear-gradient-19);}.cls-46{fill:url(#linear-gradient-20);}.cls-47{fill:url(#linear-gradient-21);}.cls-48{fill:url(#linear-gradient-22);}.cls-49{fill:url(#linear-gradient-23);}.cls-50{fill:url(#linear-gradient-24);}.cls-51{fill:url(#linear-gradient-25);}.cls-52{fill:url(#linear-gradient-26);}.cls-53{fill:url(#linear-gradient-27);}.cls-54{fill:url(#linear-gradient-28);}.cls-55{fill:url(#linear-gradient-29);}.cls-56{fill:url(#linear-gradient-30);}.cls-57{fill:url(#linear-gradient-31);}.cls-58{fill:url(#linear-gradient-32);}.cls-59{fill:url(#linear-gradient-33);}.cls-60{fill:url(#linear-gradient-34);}.cls-61{fill:url(#linear-gradient-35);}.cls-62{fill:url(#linear-gradient-36);}.cls-63{fill:url(#linear-gradient-37);}.cls-64{fill:url(#linear-gradient-38);}.cls-65{stroke:#b7f680;}.cls-66{stroke:#38cbff;}.cls-66,.cls-72,.cls-73{stroke-miterlimit:10;}.cls-67{fill:#fff;}.cls-68{fill:url(#linear-gradient-39);}.cls-69{fill:url(#linear-gradient-40);}.cls-70{fill:url(#linear-gradient-41);}.cls-71,.cls-73{stroke:#fff;}.cls-72{stroke:#fcd705;}.cls-74{stroke:#fcca05;stroke-width:5px;}</style><linearGradient id="Degradado_sin_nombre_9" x1="194.06" y1="928.42" x2="515.2" y2="928.42" gradientUnits="userSpaceOnUse"><stop offset="0"/><stop offset="0.09" stop-color="#000303"/><stop offset="0.15" stop-color="#010c0d"/><stop offset="0.22" stop-color="#021c1d"/><stop offset="0.27" stop-color="#033335"/><stop offset="0.33" stop-color="#045053"/><stop offset="0.38" stop-color="#067477"/><stop offset="0.43" stop-color="#099ea3"/><stop offset="0.48" stop-color="#0bced5"/><stop offset="0.51" stop-color="#0df1f9"/><stop offset="0.51" stop-color="#0deff7"/><stop offset="0.57" stop-color="#0ab8be"/><stop offset="0.63" stop-color="#07878b"/><stop offset="0.69" stop-color="#055d60"/><stop offset="0.75" stop-color="#033c3e"/><stop offset="0.81" stop-color="#022123"/><stop offset="0.87" stop-color="#010f0f"/><stop offset="0.93" stop-color="#000404"/><stop offset="1"/></linearGradient><linearGradient id="Degradado_sin_nombre_9-2" x1="623.7" y1="794.61" x2="861.68" y2="794.61" xlink:href="#Degradado_sin_nombre_9"/><linearGradient id="Degradado_sin_nombre_6" x1="605.96" y1="484.81" x2="756.29" y2="484.81" gradientUnits="userSpaceOnUse"><stop offset="0"/><stop offset="0.09" stop-color="#000203"/><stop offset="0.16" stop-color="#02090d"/><stop offset="0.22" stop-color="#04141d"/><stop offset="0.28" stop-color="#082435"/><stop offset="0.33" stop-color="#0c3853"/><stop offset="0.39" stop-color="#125177"/><stop offset="0.44" stop-color="#196fa3"/><stop offset="0.49" stop-color="#2091d5"/><stop offset="0.51" stop-color="#24a2ee"/><stop offset="0.56" stop-color="#1fb4f0"/><stop offset="0.67" stop-color="#17cff4"/><stop offset="0.78" stop-color="#11e2f7"/><stop offset="0.89" stop-color="#0eedf8"/><stop offset="1" stop-color="#0df1f9"/></linearGradient><linearGradient id="Degradado_sin_nombre_6-2" x1="0" y1="1139.63" x2="150.33" y2="1139.63" xlink:href="#Degradado_sin_nombre_6"/><linearGradient id="Degradado_sin_nombre_6-3" x1="150.58" y1="1186.83" x2="300.91" y2="1186.83" xlink:href="#Degradado_sin_nombre_6"/><linearGradient id="Degradado_sin_nombre_6-4" x1="350.09" y1="555.17" x2="500.42" y2="555.17" gradientTransform="translate(711.82 210.34) rotate(89.47)" xlink:href="#Degradado_sin_nombre_6"/><linearGradient id="Degradado_sin_nombre_6-5" x1="461.43" y1="668.65" x2="671.69" y2="668.65" gradientTransform="translate(52.95 -60.11) rotate(37.06)" xlink:href="#Degradado_sin_nombre_6"/><linearGradient id="Degradado_sin_nombre_9-3" x1="1141.49" y1="805.67" x2="1379.47" y2="805.67" xlink:href="#Degradado_sin_nombre_9"/><linearGradient id="Degradado_sin_nombre_6-6" x1="575.18" y1="1066.97" x2="725.51" y2="1066.97" xlink:href="#Degradado_sin_nombre_6"/><linearGradient id="Degradado_sin_nombre_6-7" x1="392.36" y1="157.01" x2="542.69" y2="157.01" xlink:href="#Degradado_sin_nombre_6"/><linearGradient id="Degradado_sin_nombre_6-8" x1="1128.38" y1="1024.44" x2="1278.71" y2="1024.44" gradientTransform="matrix(0.69, -0.72, 0.72, 0.69, -545.44, 1181.28)" xlink:href="#Degradado_sin_nombre_6"/><linearGradient id="Degradado_sin_nombre_6-9" x1="1678.01" y1="516.49" x2="1828.35" y2="516.49" gradientTransform="matrix(0.69, -0.72, 0.72, 0.69, -545.44, 1181.28)" xlink:href="#Degradado_sin_nombre_6"/><linearGradient id="Degradado_sin_nombre_8" x1="1192.67" y1="-197.48" x2="1402.91" y2="-197.48" gradientTransform="matrix(0.82, 0.57, -0.57, 0.82, 30.11, -19.53)" gradientUnits="userSpaceOnUse"><stop offset="0"/><stop offset="0.05" stop-color="#030c11"/><stop offset="0.16" stop-color="#092a3e"/><stop offset="0.31" stop-color="#145b86"/><stop offset="0.5" stop-color="#239ee8"/><stop offset="0.51" stop-color="#24a2ee"/><stop offset="0.56" stop-color="#1fb4f0"/><stop offset="0.67" stop-color="#17cff4"/><stop offset="0.78" stop-color="#11e2f7"/><stop offset="0.89" stop-color="#0eedf8"/><stop offset="1" stop-color="#0df1f9"/></linearGradient><linearGradient id="Degradado_sin_nombre_9-4" x1="681.18" y1="396.38" x2="1002.31" y2="396.38" gradientTransform="translate(2200.46 906.93) rotate(180)" xlink:href="#Degradado_sin_nombre_9"/><linearGradient id="Degradado_sin_nombre_9-5" x1="777.82" y1="670.57" x2="1015.79" y2="670.57" gradientTransform="translate(2200.46 906.93) rotate(180)" xlink:href="#Degradado_sin_nombre_9"/><linearGradient id="Degradado_sin_nombre_6-10" x1="662.07" y1="608.76" x2="812.4" y2="608.76" gradientTransform="translate(2200.46 906.93) rotate(180)" xlink:href="#Degradado_sin_nombre_6"/><linearGradient id="Degradado_sin_nombre_6-11" x1="517.11" y1="761.59" x2="667.44" y2="761.59" gradientTransform="translate(2200.46 906.93) rotate(180)" xlink:href="#Degradado_sin_nombre_6"/><linearGradient id="Degradado_sin_nombre_6-12" x1="667.69" y1="808.78" x2="818.02" y2="808.78" gradientTransform="translate(2200.46 906.93) rotate(180)" xlink:href="#Degradado_sin_nombre_6"/><linearGradient id="Degradado_sin_nombre_6-13" x1="36.87" y1="301.5" x2="187.19" y2="301.5" gradientTransform="translate(1222.31 759.07) rotate(-90.53)" xlink:href="#Degradado_sin_nombre_6"/><linearGradient id="Degradado_sin_nombre_6-14" x1="471.41" y1="265.68" x2="681.66" y2="265.68" gradientTransform="translate(1881.18 1029.52) rotate(-142.94)" xlink:href="#Degradado_sin_nombre_6"/><linearGradient id="linear-gradient" x1="-616.8" y1="1687.65" x2="-334.64" y2="1687.65" gradientTransform="matrix(-0.85, 0.52, -0.52, -0.85, 1696.66, 2271.14)" gradientUnits="userSpaceOnUse"><stop offset="0" stop-color="#84d548"/><stop offset="0.1" stop-color="#81d245"/><stop offset="1" stop-color="#68b52d"/></linearGradient><linearGradient id="linear-gradient-2" x1="-404.44" y1="1769.32" x2="-334.64" y2="1769.32" gradientTransform="matrix(-0.85, 0.52, -0.52, -0.85, 1696.66, 2271.14)" gradientUnits="userSpaceOnUse"><stop offset="0" stop-color="#90e84e"/><stop offset="1" stop-color="#8dd45c"/></linearGradient><linearGradient id="linear-gradient-3" x1="-630.92" y1="1731.84" x2="-382.89" y2="1731.84" gradientTransform="matrix(-0.85, 0.52, -0.52, -0.85, 1696.66, 2271.14)" gradientUnits="userSpaceOnUse"><stop offset="0" stop-color="#c3ff8f"/><stop offset="1" stop-color="#adef74"/></linearGradient><linearGradient id="linear-gradient-4" x1="550.66" y1="357.3" x2="544.82" y2="439.81" gradientUnits="userSpaceOnUse"><stop offset="0" stop-color="#ffa617"/><stop offset="1" stop-color="#f60"/></linearGradient><linearGradient id="linear-gradient-5" x1="706.75" y1="589.41" x2="645.04" y2="575.12" gradientUnits="userSpaceOnUse"><stop offset="0" stop-color="#ffa617"/><stop offset="1" stop-color="#f80"/></linearGradient><linearGradient id="linear-gradient-6" x1="451.77" y1="516.6" x2="531.68" y2="554.28" xlink:href="#linear-gradient-5"/><linearGradient id="linear-gradient-7" x1="445.84" y1="408.68" x2="444.54" y2="498.34" xlink:href="#linear-gradient-4"/><linearGradient id="linear-gradient-8" x1="530.71" y1="498.22" x2="528.76" y2="593.72" xlink:href="#linear-gradient-4"/><linearGradient id="linear-gradient-9" x1="551.76" y1="408.98" x2="699.23" y2="684.43" gradientUnits="userSpaceOnUse"><stop offset="0" stop-color="#ffdc17"/><stop offset="1" stop-color="#f90"/></linearGradient><linearGradient id="linear-gradient-10" x1="536.7" y1="634.22" x2="632.85" y2="664.75" xlink:href="#linear-gradient-5"/><linearGradient id="linear-gradient-11" x1="604.35" y1="-486.48" x2="597.65" y2="-391.88" gradientTransform="matrix(-0.64, -0.77, -0.77, 0.64, 1661.24, 942.27)" xlink:href="#linear-gradient-4"/><linearGradient id="linear-gradient-12" x1="783.34" y1="-220.34" x2="712.57" y2="-236.73" gradientTransform="matrix(-0.64, -0.77, -0.77, 0.64, 1661.24, 942.27)" xlink:href="#linear-gradient-5"/><linearGradient id="linear-gradient-13" x1="490.97" y1="-303.82" x2="582.59" y2="-260.61" gradientTransform="matrix(-0.64, -0.77, -0.77, 0.64, 1661.24, 942.27)" xlink:href="#linear-gradient-5"/><linearGradient id="linear-gradient-14" x1="484.17" y1="-427.56" x2="482.68" y2="-324.76" gradientTransform="matrix(-0.64, -0.77, -0.77, 0.64, 1661.24, 942.27)" xlink:href="#linear-gradient-4"/><linearGradient id="linear-gradient-15" x1="581.49" y1="-324.9" x2="579.25" y2="-215.4" gradientTransform="matrix(-0.64, -0.77, -0.77, 0.64, 1661.24, 942.27)" xlink:href="#linear-gradient-4"/><linearGradient id="linear-gradient-16" x1="605.61" y1="-427.23" x2="774.71" y2="-111.39" gradientTransform="matrix(-0.64, -0.77, -0.77, 0.64, 1661.24, 942.27)" xlink:href="#linear-gradient-9"/><linearGradient id="linear-gradient-17" x1="588.35" y1="-168.96" x2="698.6" y2="-133.95" gradientTransform="matrix(-0.64, -0.77, -0.77, 0.64, 1661.24, 942.27)" xlink:href="#linear-gradient-5"/><linearGradient id="linear-gradient-18" x1="1188.54" y1="60.59" x2="1185.15" y2="108.4" gradientTransform="matrix(-0.64, -0.77, -0.77, 0.64, 1661.24, 942.27)" gradientUnits="userSpaceOnUse"><stop offset="0" stop-color="#cb59ff"/><stop offset="1" stop-color="#d56bff"/></linearGradient><linearGradient id="linear-gradient-19" x1="1279" y1="195.09" x2="1243.23" y2="186.81" gradientTransform="matrix(-0.64, -0.77, -0.77, 0.64, 1661.24, 942.27)" gradientUnits="userSpaceOnUse"><stop offset="0" stop-color="#a21bd5"/><stop offset="0.1" stop-color="#9f19d2"/><stop offset="1" stop-color="#8407b5"/></linearGradient><linearGradient id="linear-gradient-20" x1="1131.24" y1="152.9" x2="1177.54" y2="174.74" xlink:href="#linear-gradient-19"/><linearGradient id="linear-gradient-21" x1="1127.8" y1="90.37" x2="1127.04" y2="142.32" xlink:href="#linear-gradient-18"/><linearGradient id="linear-gradient-22" x1="1176.98" y1="142.25" x2="1175.85" y2="197.59" xlink:href="#linear-gradient-18"/><linearGradient id="linear-gradient-23" x1="1189.17" y1="90.53" x2="1274.63" y2="250.16" gradientTransform="matrix(-0.64, -0.77, -0.77, 0.64, 1661.24, 942.27)" gradientUnits="userSpaceOnUse"><stop offset="0" stop-color="#b01de8"/><stop offset="1" stop-color="#aa2fd4"/></linearGradient><linearGradient id="linear-gradient-24" x1="1180.45" y1="221.06" x2="1236.17" y2="238.75" xlink:href="#linear-gradient-19"/><linearGradient id="linear-gradient-25" x1="129.54" y1="236.56" x2="416.84" y2="236.56" gradientUnits="userSpaceOnUse"><stop offset="0" stop-color="#e44ee8"/><stop offset="1" stop-color="#d45cd4"/></linearGradient><linearGradient id="linear-gradient-26" x1="353.17" y1="321.32" x2="416.84" y2="321.32" gradientUnits="userSpaceOnUse"><stop offset="0" stop-color="#f88fff"/><stop offset="1" stop-color="#fca1ff"/></linearGradient><linearGradient id="linear-gradient-27" x1="116.66" y1="276.87" x2="372.83" y2="276.87" gradientUnits="userSpaceOnUse"><stop offset="0" stop-color="#d248d5"/><stop offset="0.32" stop-color="#d957de"/><stop offset="1" stop-color="#e774ef"/></linearGradient><linearGradient id="linear-gradient-28" x1="438.85" y1="1783.23" x2="720.99" y2="1783.23" gradientTransform="translate(-1263.88 1544.44) rotate(-87.25)" xlink:href="#linear-gradient"/><linearGradient id="linear-gradient-29" x1="651.19" y1="1864.89" x2="720.99" y2="1864.89" gradientTransform="translate(-1263.88 1544.44) rotate(-87.25)" xlink:href="#linear-gradient-2"/><linearGradient id="linear-gradient-30" x1="424.72" y1="1827.41" x2="672.75" y2="1827.41" gradientTransform="translate(-1263.88 1544.44) rotate(-87.25)" xlink:href="#linear-gradient-3"/><linearGradient id="linear-gradient-31" x1="-1.25" y1="553.28" x2="127.27" y2="523.43" gradientTransform="matrix(-0.41, 0.91, -0.91, -0.41, 1820.55, 1053.39)" xlink:href="#linear-gradient-19"/><linearGradient id="linear-gradient-32" x1="-40.05" y1="470.51" x2="1.28" y2="470.51" gradientTransform="matrix(-0.41, 0.91, -0.91, -0.41, 1820.55, 1053.39)" gradientUnits="userSpaceOnUse"><stop offset="0" stop-color="#a21bd5"/><stop offset="0.24" stop-color="#a825dc"/><stop offset="1" stop-color="#b842ef"/></linearGradient><linearGradient id="linear-gradient-33" x1="44.61" y1="370.16" x2="-40.39" y2="351.94" gradientTransform="matrix(-0.41, 0.91, -0.91, -0.41, 1820.55, 1053.39)" xlink:href="#linear-gradient-18"/><linearGradient id="linear-gradient-34" x1="89.21" y1="353.36" x2="269.48" y2="353.36" gradientTransform="matrix(-0.41, 0.91, -0.91, -0.41, 1820.55, 1053.39)" gradientUnits="userSpaceOnUse"><stop offset="0" stop-color="#cb59ff"/><stop offset="1" stop-color="#b842ef"/></linearGradient><linearGradient id="linear-gradient-35" x1="213.13" y1="421.03" x2="300.2" y2="421.03" xlink:href="#linear-gradient-32"/><linearGradient id="linear-gradient-36" x1="141.07" y1="519.52" x2="300.2" y2="519.52" gradientTransform="matrix(-0.41, 0.91, -0.91, -0.41, 1820.55, 1053.39)" xlink:href="#linear-gradient-19"/><linearGradient id="linear-gradient-37" x1="1.28" y1="519.52" x2="213.13" y2="519.52" gradientTransform="matrix(-0.41, 0.91, -0.91, -0.41, 1820.55, 1053.39)" xlink:href="#linear-gradient-23"/><linearGradient id="linear-gradient-38" x1="223.17" y1="410.8" x2="47.6" y2="370.83" gradientTransform="matrix(-0.41, 0.91, -0.91, -0.41, 1820.55, 1053.39)" xlink:href="#linear-gradient-18"/><linearGradient id="linear-gradient-39" x1="810.1" y1="876.68" x2="780.03" y2="906.48" gradientUnits="userSpaceOnUse"><stop offset="0.01" stop-color="#fcd705"/><stop offset="1" stop-color="#fc7405"/></linearGradient><linearGradient id="linear-gradient-40" x1="1367.08" y1="956.76" x2="1423.74" y2="956.76" gradientTransform="matrix(1, 0, 0, 1, 0, 0)" xlink:href="#linear-gradient-3"/><linearGradient id="linear-gradient-41" x1="1752.89" y1="514.84" x2="1822.95" y2="514.84" xlink:href="#linear-gradient-25"/></defs><g class="cls-1"><g id="Layer_3" data-name="Layer 3"><g class="cls-2"><polygon class="cls-3" points="195.06 919.43 460.26 1137.43 514.2 719.41 195.06 919.43"/><polygon class="cls-4" points="624.7 787.96 820.8 949.16 860.68 640.06 624.7 787.96"/><polygon class="cls-5" points="606.96 480.63 730.22 581.95 755.29 387.66 606.96 480.63"/><polygon class="cls-6" points="1 1135.45 124.26 1236.78 149.33 1042.48 1 1135.45"/><polygon class="cls-7" points="151.58 1182.65 274.84 1283.97 299.91 1089.68 151.58 1182.65"/><polygon class="cls-8" points="164.06 566.5 63.88 690.69 258.39 713.97 164.06 566.5"/><polygon class="cls-9" points="22.58 747.45 74.95 965.25 267.42 768.79 22.58 747.45"/><polygon class="cls-10" points="22.58 747.45 74.95 965.25 267.42 768.79 22.58 747.45"/></g><g class="cls-2"><polygon class="cls-11" points="1142.49 799.02 1338.59 960.22 1378.47 651.12 1142.49 799.02"/><polygon class="cls-12" points="576.18 1062.79 699.44 1164.12 724.51 969.83 576.18 1062.79"/><polygon class="cls-13" points="393.36 152.83 516.62 254.16 541.69 59.87 393.36 152.83"/><polygon class="cls-14" points="972.81 1075.87 1131.29 1057.4 1008.77 904.55 972.81 1075.87"/><polygon class="cls-15" points="972.81 1075.87 1131.29 1057.4 1008.77 904.55 972.81 1075.87"/><polygon class="cls-16" points="988.38 327.66 1146.86 309.2 1024.34 156.34 988.38 327.66"/><line class="cls-17" x1="1146.86" y1="309.2" x2="1024.34" y2="156.34"/><polygon class="cls-18" points="1126.2 494.99 1187.07 710.57 1371.69 506.71 1126.2 494.99"/><polygon class="cls-19" points="1126.2 494.99 1187.07 710.57 1371.69 506.71 1126.2 494.99"/></g><g class="cls-2"><polygon class="cls-20" points="1518.28 519.54 1253.09 301.54 1199.15 719.56 1518.28 519.54"/><polygon class="cls-21" points="1421.64 243.01 1225.55 81.81 1185.66 390.91 1421.64 243.01"/><polygon class="cls-22" points="1537.39 302.34 1414.13 201.02 1389.06 395.31 1537.39 302.34"/><polygon class="cls-23" points="1682.34 149.52 1559.08 48.2 1534.02 242.49 1682.34 149.52"/><polygon class="cls-24" points="1531.77 102.32 1408.51 1 1383.44 195.29 1531.77 102.32"/><polygon class="cls-25" points="1519.28 718.47 1619.47 594.28 1424.95 571 1519.28 718.47"/><polygon class="cls-26" points="1660.77 537.52 1608.4 319.72 1415.93 516.18 1660.77 537.52"/></g></g><g id="Layer_7" data-name="Layer 7"><polygon class="cls-27" points="1366.25 548.15 1318.14 602.25 1086.41 631.37 1108.45 574.91 1366.25 548.15"/><polygon class="cls-28" points="1091.73 506.24 1108.45 574.91 1086.41 631.37 1070.91 565.96 1091.73 506.24"/><polygon class="cls-29" points="1345.02 486.35 1366.25 548.15 1108.45 574.91 1091.73 506.24 1345.02 486.35"/><polygon class="cls-30" points="525.14 483.51 533.66 403.5 567.35 355.77 559.19 438.04 525.14 483.51"/><polygon class="cls-31" points="643.7 548.56 734.17 572.64 693.55 612.6 606.09 590 643.7 548.56"/><polygon class="cls-32" points="516.28 566.79 424.02 542.95 455.03 498.35 550.68 523.81 516.28 566.79"/><polygon class="cls-33" points="424.02 542.95 434.87 459.04 465.67 411.93 455.03 498.35 424.02 542.95"/><polygon class="cls-34" points="550.68 523.81 541.81 613.3 507.05 653.53 516.28 566.79 550.68 523.81"/><polygon class="cls-35" points="650.17 463.45 656.4 381.75 567.35 355.77 559.19 438.04 465.67 411.93 455.03 498.35 550.68 523.81 541.81 613.3 636.93 637.32 643.7 548.56 734.17 572.64 738.74 488.18 650.17 463.45"/><polygon class="cls-36" points="598.83 676.04 507.05 653.53 541.81 613.3 636.93 637.32 598.83 676.04"/><polygon class="cls-37" points="1553.72 281.97 1617.77 215.55 1634.91 150.79 1568.62 218.56 1553.72 281.97"/><polygon class="cls-38" points="1409.24 225.7 1321.44 163.93 1316.24 229.06 1400.52 289.26 1409.24 225.7"/><polygon class="cls-39" points="1487.07 351.09 1575.97 414.61 1592.34 354.51 1499.5 289.2 1487.07 351.09"/><polygon class="cls-40" points="1575.97 414.61 1641.72 343.27 1660.44 281.51 1592.34 354.51 1575.97 414.61"/><polygon class="cls-41" points="1499.5 289.2 1427.4 362.92 1417.64 423.1 1487.07 351.09 1499.5 289.2"/><polygon class="cls-42" points="1479.27 157.31 1546.48 91.67 1634.91 150.79 1568.62 218.56 1660.44 281.51 1592.34 354.51 1499.5 289.2 1427.4 362.92 1336.22 297.01 1409.24 225.7 1321.44 163.93 1392.31 97.7 1479.27 157.31"/><polygon class="cls-43" points="1330.26 359.02 1417.64 423.1 1427.4 362.92 1336.22 297.01 1330.26 359.02"/><polygon class="cls-44" points="804.74 128.61 837.1 95.05 845.76 62.31 812.26 96.56 804.74 128.61"/><polygon class="cls-45" points="731.72 100.17 687.34 68.96 684.71 101.87 727.31 132.3 731.72 100.17"/><polygon class="cls-46" points="771.05 163.55 815.98 195.65 824.25 165.28 777.33 132.27 771.05 163.55"/><polygon class="cls-47" points="815.98 195.65 849.21 159.6 858.67 128.38 824.25 165.28 815.98 195.65"/><polygon class="cls-48" points="777.33 132.27 740.89 169.53 735.96 199.94 771.05 163.55 777.33 132.27"/><polygon class="cls-49" points="767.1 65.61 801.07 32.44 845.76 62.31 812.26 96.56 858.67 128.38 824.25 165.28 777.33 132.27 740.89 169.53 694.81 136.22 731.72 100.17 687.34 68.96 723.15 35.49 767.1 65.61"/><polygon class="cls-50" points="691.8 167.56 735.96 199.94 740.89 169.53 694.81 136.22 691.8 167.56"/><polygon class="cls-51" points="129.54 184.99 192.72 165.78 416.84 273.89 372.83 307.35 129.54 184.99"/><polygon class="cls-52" points="353.17 368.74 372.83 307.35 416.84 273.89 397.78 332.17 353.17 368.74"/><polygon class="cls-53" points="116.66 243.19 129.54 184.99 372.83 307.35 353.17 368.74 116.66 243.19"/><polygon class="cls-54" points="493.17 1189.32 475.45 1119.12 581.57 911.08 615.89 961.03 493.17 1189.32"/><polygon class="cls-55" points="682.08 985.78 615.89 961.03 581.57 911.08 644.38 935.01 682.08 985.78"/><polygon class="cls-56" points="556.22 1206.48 493.17 1189.32 615.89 961.03 682.08 985.78 556.22 1206.48"/><polygon class="cls-57" points="1204.47 933.76 1307.72 813.84 1398.45 867.05 1204.47 933.76"/><polygon class="cls-58" points="1307.72 813.84 1494.1 864.36 1398.45 867.05 1307.72 813.84"/><polygon class="cls-59" points="1529.19 1021.43 1398.45 867.05 1494.1 864.36 1529.19 1021.43"/><polygon class="cls-60" points="1343.31 1074.38 1529.19 1021.43 1415.6 1168.21 1343.31 1074.38"/><polygon class="cls-61" points="1343.31 1074.38 1415.6 1168.21 1224.58 1116.87 1343.31 1074.38"/><polygon class="cls-62" points="1343.31 1074.38 1224.58 1116.87 1204.47 933.76 1343.31 1074.38"/><polygon class="cls-63" points="1343.31 1074.38 1204.47 933.76 1398.45 867.05 1343.31 1074.38"/><polygon class="cls-64" points="1529.19 1021.43 1343.31 1074.38 1398.45 867.05 1529.19 1021.43"/><path class="cls-65" d="M847.9,706.37c16.8,0,16.8,14.49,33.59,14.49s16.79-14.49,33.58-14.49,16.79,14.49,33.57,14.49,16.8-14.49,33.61-14.49,16.82,14.49,33.64,14.49,16.82-14.49,33.63-14.49" transform="translate(-266.33 62.49)"/><path class="cls-66" d="M1173.68,591.71c10.43-13.16,34.45,5.88,44.88-7.28s-13.59-32.19-3.17-45.35,34.45,5.88,44.88-7.28-13.58-32.2-3.14-45.37,34.46,5.85,44.91-7.33-13.58-32.22-3.13-45.39" transform="translate(-266.33 62.49)"/><circle class="cls-67" cx="1739.46" cy="1104.55" r="5.22"/><path class="cls-67" d="M2005.78,1075.4a5.22,5.22,0,1,1,5.22-5.22A5.22,5.22,0,0,1,2005.78,1075.4Z" transform="translate(-266.33 62.49)"/><path class="cls-67" d="M1976,1047.28a5.22,5.22,0,1,1,5.21-5.21A5.21,5.21,0,0,1,1976,1047.28Z" transform="translate(-266.33 62.49)"/><path class="cls-67" d="M1976,1075.4a5.22,5.22,0,1,1,5.21-5.22A5.22,5.22,0,0,1,1976,1075.4Z" transform="translate(-266.33 62.49)"/><path class="cls-67" d="M1946.2,1047.28a5.22,5.22,0,1,1,5.21-5.21A5.22,5.22,0,0,1,1946.2,1047.28Z" transform="translate(-266.33 62.49)"/><path class="cls-67" d="M1946.2,1075.4a5.22,5.22,0,1,1,5.21-5.22A5.22,5.22,0,0,1,1946.2,1075.4Z" transform="translate(-266.33 62.49)"/><path class="cls-67" d="M1916.4,1047.28a5.22,5.22,0,1,1,5.22-5.21A5.21,5.21,0,0,1,1916.4,1047.28Z" transform="translate(-266.33 62.49)"/><path class="cls-67" d="M1916.4,1075.4a5.22,5.22,0,1,1,5.22-5.22A5.22,5.22,0,0,1,1916.4,1075.4Z" transform="translate(-266.33 62.49)"/><path class="cls-67" d="M1886.61,1047.28a5.22,5.22,0,1,1,5.21-5.21A5.21,5.21,0,0,1,1886.61,1047.28Z" transform="translate(-266.33 62.49)"/><path class="cls-67" d="M1886.61,1075.4a5.22,5.22,0,1,1,5.21-5.22A5.22,5.22,0,0,1,1886.61,1075.4Z" transform="translate(-266.33 62.49)"/><path class="cls-67" d="M1856.82,1047.28a5.22,5.22,0,1,1,5.21-5.21A5.22,5.22,0,0,1,1856.82,1047.28Z" transform="translate(-266.33 62.49)"/><path class="cls-67" d="M1856.82,1075.4a5.22,5.22,0,1,1,5.21-5.22A5.22,5.22,0,0,1,1856.82,1075.4Z" transform="translate(-266.33 62.49)"/><path class="cls-67" d="M1827,1047.28a5.22,5.22,0,1,1,5.22-5.21A5.21,5.21,0,0,1,1827,1047.28Z" transform="translate(-266.33 62.49)"/><path class="cls-67" d="M1827,1075.4a5.22,5.22,0,1,1,5.22-5.22A5.22,5.22,0,0,1,1827,1075.4Z" transform="translate(-266.33 62.49)"/><path class="cls-67" d="M1797.23,1047.28a5.22,5.22,0,1,1,5.21-5.21A5.21,5.21,0,0,1,1797.23,1047.28Z" transform="translate(-266.33 62.49)"/><path class="cls-67" d="M1797.23,1075.4a5.22,5.22,0,1,1,5.21-5.22A5.22,5.22,0,0,1,1797.23,1075.4Z" transform="translate(-266.33 62.49)"/><path class="cls-67" d="M1767.44,1047.28a5.22,5.22,0,1,1,5.21-5.21A5.22,5.22,0,0,1,1767.44,1047.28Z" transform="translate(-266.33 62.49)"/><path class="cls-67" d="M1767.44,1075.4a5.22,5.22,0,1,1,5.21-5.22A5.22,5.22,0,0,1,1767.44,1075.4Z" transform="translate(-266.33 62.49)"/><path class="cls-67" d="M1737.64,1047.28a5.22,5.22,0,1,1,5.22-5.21A5.21,5.21,0,0,1,1737.64,1047.28Z" transform="translate(-266.33 62.49)"/><path class="cls-67" d="M1737.64,1075.4a5.22,5.22,0,1,1,5.22-5.22A5.22,5.22,0,0,1,1737.64,1075.4Z" transform="translate(-266.33 62.49)"/><circle class="cls-67" cx="226.95" cy="385.88" r="5.21"/><circle class="cls-67" cx="198.84" cy="385.88" r="5.21"/><circle class="cls-67" cx="170.72" cy="385.88" r="5.21"/><circle class="cls-67" cx="142.61" cy="385.88" r="5.21"/><circle class="cls-67" cx="226.95" cy="356.09" r="5.21"/><circle class="cls-67" cx="198.84" cy="356.09" r="5.21"/><circle class="cls-67" cx="170.72" cy="356.09" r="5.21"/><circle class="cls-67" cx="142.61" cy="356.09" r="5.21"/><path class="cls-67" d="M488.07,263.81a5.21,5.21,0,1,1,5.21,5.21A5.22,5.22,0,0,1,488.07,263.81Z" transform="translate(-266.33 62.49)"/><path class="cls-67" d="M460,263.81a5.22,5.22,0,1,1,5.21,5.21A5.22,5.22,0,0,1,460,263.81Z" transform="translate(-266.33 62.49)"/><path class="cls-67" d="M431.84,263.81a5.21,5.21,0,1,1,5.21,5.21A5.22,5.22,0,0,1,431.84,263.81Z" transform="translate(-266.33 62.49)"/><path class="cls-67" d="M403.72,263.81a5.22,5.22,0,1,1,5.21,5.21A5.22,5.22,0,0,1,403.72,263.81Z" transform="translate(-266.33 62.49)"/><path class="cls-67" d="M488.07,234a5.21,5.21,0,1,1,5.21,5.22A5.21,5.21,0,0,1,488.07,234Z" transform="translate(-266.33 62.49)"/><path class="cls-67" d="M460,234a5.22,5.22,0,1,1,5.21,5.22A5.22,5.22,0,0,1,460,234Z" transform="translate(-266.33 62.49)"/><path class="cls-67" d="M431.84,234a5.21,5.21,0,1,1,5.21,5.22A5.21,5.21,0,0,1,431.84,234Z" transform="translate(-266.33 62.49)"/><path class="cls-67" d="M403.72,234a5.22,5.22,0,1,1,5.21,5.22A5.21,5.21,0,0,1,403.72,234Z" transform="translate(-266.33 62.49)"/><path class="cls-67" d="M488.07,204.22a5.21,5.21,0,1,1,5.21,5.21A5.21,5.21,0,0,1,488.07,204.22Z" transform="translate(-266.33 62.49)"/><path class="cls-67" d="M460,204.22a5.22,5.22,0,1,1,5.21,5.21A5.21,5.21,0,0,1,460,204.22Z" transform="translate(-266.33 62.49)"/><path class="cls-67" d="M431.84,204.22a5.21,5.21,0,1,1,5.21,5.21A5.21,5.21,0,0,1,431.84,204.22Z" transform="translate(-266.33 62.49)"/><path class="cls-67" d="M403.72,204.22a5.22,5.22,0,1,1,5.21,5.21A5.21,5.21,0,0,1,403.72,204.22Z" transform="translate(-266.33 62.49)"/><path class="cls-67" d="M488.07,174.43a5.21,5.21,0,1,1,5.21,5.21A5.22,5.22,0,0,1,488.07,174.43Z" transform="translate(-266.33 62.49)"/><path class="cls-67" d="M460,174.43a5.22,5.22,0,1,1,5.21,5.21A5.22,5.22,0,0,1,460,174.43Z" transform="translate(-266.33 62.49)"/><path class="cls-67" d="M431.84,174.43a5.21,5.21,0,1,1,5.21,5.21A5.22,5.22,0,0,1,431.84,174.43Z" transform="translate(-266.33 62.49)"/><path class="cls-67" d="M403.72,174.43a5.22,5.22,0,1,1,5.21,5.21A5.22,5.22,0,0,1,403.72,174.43Z" transform="translate(-266.33 62.49)"/><path class="cls-67" d="M488.07,144.63a5.21,5.21,0,1,1,5.21,5.22A5.21,5.21,0,0,1,488.07,144.63Z" transform="translate(-266.33 62.49)"/><path class="cls-67" d="M460,144.63a5.22,5.22,0,1,1,5.21,5.22A5.21,5.21,0,0,1,460,144.63Z" transform="translate(-266.33 62.49)"/><path class="cls-67" d="M431.84,144.63a5.21,5.21,0,1,1,5.21,5.22A5.21,5.21,0,0,1,431.84,144.63Z" transform="translate(-266.33 62.49)"/><path class="cls-67" d="M403.72,144.63a5.22,5.22,0,1,1,5.21,5.22A5.21,5.21,0,0,1,403.72,144.63Z" transform="translate(-266.33 62.49)"/><path class="cls-67" d="M488.07,114.84a5.21,5.21,0,1,1,5.21,5.21A5.21,5.21,0,0,1,488.07,114.84Z" transform="translate(-266.33 62.49)"/><path class="cls-67" d="M460,114.84a5.22,5.22,0,1,1,5.21,5.21A5.21,5.21,0,0,1,460,114.84Z" transform="translate(-266.33 62.49)"/><path class="cls-67" d="M431.84,114.84a5.21,5.21,0,1,1,5.21,5.21A5.21,5.21,0,0,1,431.84,114.84Z" transform="translate(-266.33 62.49)"/><path class="cls-67" d="M403.72,114.84a5.22,5.22,0,1,1,5.21,5.21A5.21,5.21,0,0,1,403.72,114.84Z" transform="translate(-266.33 62.49)"/><path class="cls-67" d="M488.07,85.05a5.21,5.21,0,1,1,5.21,5.21A5.22,5.22,0,0,1,488.07,85.05Z" transform="translate(-266.33 62.49)"/><path class="cls-67" d="M460,85.05a5.22,5.22,0,1,1,5.21,5.21A5.22,5.22,0,0,1,460,85.05Z" transform="translate(-266.33 62.49)"/><path class="cls-67" d="M431.84,85.05a5.21,5.21,0,1,1,5.21,5.21A5.22,5.22,0,0,1,431.84,85.05Z" transform="translate(-266.33 62.49)"/><path class="cls-67" d="M403.72,85.05a5.22,5.22,0,1,1,5.21,5.21A5.22,5.22,0,0,1,403.72,85.05Z" transform="translate(-266.33 62.49)"/><path class="cls-67" d="M488.07,55.25a5.21,5.21,0,1,1,5.21,5.22A5.21,5.21,0,0,1,488.07,55.25Z" transform="translate(-266.33 62.49)"/><path class="cls-67" d="M460,55.25a5.22,5.22,0,1,1,5.21,5.22A5.21,5.21,0,0,1,460,55.25Z" transform="translate(-266.33 62.49)"/><path class="cls-67" d="M431.84,55.25a5.21,5.21,0,1,1,5.21,5.22A5.21,5.21,0,0,1,431.84,55.25Z" transform="translate(-266.33 62.49)"/><path class="cls-67" d="M403.72,55.25a5.22,5.22,0,1,1,5.21,5.22A5.21,5.21,0,0,1,403.72,55.25Z" transform="translate(-266.33 62.49)"/><path class="cls-68" d="M773.57,895.11,788.33,887l-8.08-14.75a6.44,6.44,0,1,1,11.3-6.19l8.08,14.76,14.75-8.08a6.45,6.45,0,0,1,6.19,11.31l-14.75,8.07,8.07,14.75a6.44,6.44,0,0,1-11.3,6.19l-8.08-14.75-14.75,8.07a6.44,6.44,0,1,1-6.19-11.3Z" transform="translate(-266.33 62.49)"/><path class="cls-69" d="M1384.9,984.58a6.1,6.1,0,0,1-4.45-4.18l-13.11-43.77a6.09,6.09,0,0,1,7.25-7.68L1419,939.47a6.1,6.1,0,0,1,3,10.12l-31.34,33.24a6.1,6.1,0,0,1-4.44,1.92A5.53,5.53,0,0,1,1384.9,984.58Zm-2.83-41.32,7,23.51,16.83-17.86Z" transform="translate(-266.33 62.49)"/><path class="cls-70" d="M1774.92,549.24a7.58,7.58,0,0,1-5.5-5.18L1753.21,490a7.53,7.53,0,0,1,9-9.5l55,13A7.55,7.55,0,0,1,1820.9,506l-38.76,41.1a7.53,7.53,0,0,1-5.48,2.37A7.87,7.87,0,0,1,1774.92,549.24Zm-3.5-51.1,8.7,29.07L1801,505.13Z" transform="translate(-266.33 62.49)"/><path class="cls-71" d="M1049.94,588.26a33.6,33.6,0,1,1-33.6-33.59A33.61,33.61,0,0,1,1049.94,588.26Z" transform="translate(-266.33 62.49)"/><path class="cls-72" d="M1553,4.52a89.39,89.39,0,0,1-178.78,0" transform="translate(-266.33 62.49)"/><polyline class="cls-73" points="212.29 1114.41 219.75 1092.03 242.23 1084.84 249.68 1062.47 272.15 1055.27 279.63 1032.87 302.12 1025.66"/><polyline class="cls-73" points="1710.89 190.73 1703.43 168.35 1680.96 161.16 1673.51 138.79 1651.03 131.59 1643.55 109.2 1621.06 101.99"/><polyline class="cls-73" points="578.77 218.2 572.76 200.19 554.68 194.41 548.68 176.4 530.59 170.61 524.57 152.58 506.47 146.78"/><rect class="cls-74" x="1841.83" y="748.87" width="31.56" height="31.56" transform="translate(-15.79 2032.43) rotate(-59.24)"/></g></g></svg>