<svg xmlns="http://www.w3.org/2000/svg" xmlns:xlink="http://www.w3.org/1999/xlink" viewBox="0 0 1467.52 1412.22"><defs><style>.cls-1{isolation:isolate;}.cls-100,.cls-101,.cls-102,.cls-103,.cls-104,.cls-105,.cls-106,.cls-107,.cls-108,.cls-109,.cls-110,.cls-111,.cls-112,.cls-113,.cls-114,.cls-115,.cls-116,.cls-117,.cls-118,.cls-119,.cls-120,.cls-121,.cls-122,.cls-123,.cls-13,.cls-14,.cls-15,.cls-16,.cls-17,.cls-18,.cls-19,.cls-2,.cls-20,.cls-21,.cls-22,.cls-23,.cls-24,.cls-25,.cls-26,.cls-27,.cls-28,.cls-29,.cls-3,.cls-30,.cls-31,.cls-32,.cls-33,.cls-34,.cls-35,.cls-36,.cls-37,.cls-38,.cls-39,.cls-4,.cls-40,.cls-41,.cls-42,.cls-43,.cls-44,.cls-45,.cls-46,.cls-47,.cls-48,.cls-49,.cls-5,.cls-50,.cls-51,.cls-52,.cls-53,.cls-54,.cls-55,.cls-56,.cls-57,.cls-58,.cls-59,.cls-6,.cls-60,.cls-61,.cls-62,.cls-63,.cls-64,.cls-65,.cls-66,.cls-67,.cls-68,.cls-69,.cls-7,.cls-70,.cls-71,.cls-72,.cls-73,.cls-74,.cls-75,.cls-76,.cls-77,.cls-78,.cls-79,.cls-8,.cls-80,.cls-81,.cls-82,.cls-83,.cls-84,.cls-85,.cls-86,.cls-87,.cls-88,.cls-89,.cls-90,.cls-91,.cls-92,.cls-93,.cls-94,.cls-95,.cls-96,.cls-97,.cls-98,.cls-99{mix-blend-mode:screen;}.cls-2{fill:url(#radial-gradient);}.cls-3{fill:url(#radial-gradient-2);}.cls-4{fill:url(#radial-gradient-3);}.cls-5{fill:url(#radial-gradient-4);}.cls-6{fill:url(#radial-gradient-5);}.cls-7{fill:url(#radial-gradient-6);}.cls-8{fill:url(#radial-gradient-7);}.cls-12,.cls-9{fill:none;stroke:#fff;stroke-miterlimit:10;}.cls-9{stroke-width:0.2px;}.cls-10{fill:#fff;}.cls-11{opacity:0.71;}.cls-12{stroke-width:0.1px;}.cls-13{fill:url(#radial-gradient-8);}.cls-14{fill:url(#radial-gradient-9);}.cls-15{fill:url(#radial-gradient-10);}.cls-16{fill:url(#radial-gradient-11);}.cls-17{fill:url(#radial-gradient-12);}.cls-18{fill:url(#radial-gradient-13);}.cls-19{fill:url(#radial-gradient-14);}.cls-20{fill:url(#radial-gradient-15);}.cls-21{fill:url(#radial-gradient-16);}.cls-22{fill:url(#radial-gradient-17);}.cls-23{fill:url(#radial-gradient-18);}.cls-24{fill:url(#radial-gradient-19);}.cls-25{fill:url(#radial-gradient-20);}.cls-26{fill:url(#radial-gradient-21);}.cls-27{fill:url(#radial-gradient-22);}.cls-28{fill:url(#radial-gradient-23);}.cls-29{fill:url(#radial-gradient-24);}.cls-30{fill:url(#radial-gradient-25);}.cls-31{fill:url(#radial-gradient-26);}.cls-32{fill:url(#radial-gradient-27);}.cls-33{fill:url(#radial-gradient-28);}.cls-34{fill:url(#radial-gradient-29);}.cls-35{fill:url(#radial-gradient-30);}.cls-36{fill:url(#radial-gradient-31);}.cls-37{fill:url(#radial-gradient-32);}.cls-38{fill:url(#radial-gradient-33);}.cls-39{fill:url(#radial-gradient-34);}.cls-40{fill:url(#radial-gradient-35);}.cls-41{fill:url(#radial-gradient-36);}.cls-42{fill:url(#radial-gradient-37);}.cls-43{fill:url(#radial-gradient-38);}.cls-44{fill:url(#radial-gradient-39);}.cls-45{fill:url(#radial-gradient-40);}.cls-46{fill:url(#radial-gradient-41);}.cls-47{fill:url(#radial-gradient-42);}.cls-48{fill:url(#radial-gradient-43);}.cls-49{fill:url(#radial-gradient-44);}.cls-50{fill:url(#radial-gradient-45);}.cls-51{fill:url(#radial-gradient-46);}.cls-52{fill:url(#radial-gradient-47);}.cls-53{fill:url(#radial-gradient-48);}.cls-54{fill:url(#radial-gradient-49);}.cls-55{fill:url(#radial-gradient-50);}.cls-56{fill:url(#radial-gradient-51);}.cls-57{fill:url(#radial-gradient-52);}.cls-58{fill:url(#radial-gradient-53);}.cls-59{fill:url(#radial-gradient-54);}.cls-60{fill:url(#radial-gradient-55);}.cls-61{fill:url(#radial-gradient-56);}.cls-62{fill:url(#radial-gradient-57);}.cls-63{fill:url(#radial-gradient-58);}.cls-64{fill:url(#radial-gradient-59);}.cls-65{fill:url(#radial-gradient-60);}.cls-66{fill:url(#radial-gradient-61);}.cls-67{fill:url(#radial-gradient-62);}.cls-68{fill:url(#radial-gradient-63);}.cls-69{fill:url(#radial-gradient-64);}.cls-70{fill:url(#radial-gradient-65);}.cls-71{fill:url(#radial-gradient-66);}.cls-72{fill:url(#radial-gradient-67);}.cls-73{fill:url(#radial-gradient-68);}.cls-74{fill:url(#radial-gradient-69);}.cls-75{fill:url(#radial-gradient-70);}.cls-76{fill:url(#radial-gradient-71);}.cls-77{fill:url(#radial-gradient-72);}.cls-78{fill:url(#radial-gradient-73);}.cls-79{fill:url(#radial-gradient-74);}.cls-80{fill:url(#radial-gradient-75);}.cls-81{fill:url(#radial-gradient-76);}.cls-82{fill:url(#radial-gradient-77);}.cls-83{fill:url(#radial-gradient-78);}.cls-84{fill:url(#radial-gradient-79);}.cls-85{fill:url(#radial-gradient-80);}.cls-86{fill:url(#radial-gradient-81);}.cls-87{fill:url(#radial-gradient-82);}.cls-88{fill:url(#radial-gradient-83);}.cls-89{fill:url(#radial-gradient-84);}.cls-90{fill:url(#radial-gradient-85);}.cls-91{fill:url(#radial-gradient-86);}.cls-92{fill:url(#radial-gradient-87);}.cls-93{fill:url(#radial-gradient-88);}.cls-94{fill:url(#radial-gradient-89);}.cls-95{fill:url(#radial-gradient-90);}.cls-96{fill:url(#radial-gradient-91);}.cls-97{fill:url(#radial-gradient-92);}.cls-98{fill:url(#radial-gradient-93);}.cls-99{fill:url(#radial-gradient-94);}.cls-100{fill:url(#radial-gradient-95);}.cls-101{fill:url(#radial-gradient-96);}.cls-102{fill:url(#radial-gradient-97);}.cls-103{fill:url(#radial-gradient-98);}.cls-104{fill:url(#radial-gradient-99);}.cls-105{fill:url(#radial-gradient-100);}.cls-106{fill:url(#radial-gradient-101);}.cls-107{fill:url(#radial-gradient-102);}.cls-108{fill:url(#radial-gradient-103);}.cls-109,.cls-110,.cls-117{opacity:0.56;}.cls-109{fill:url(#radial-gradient-104);}.cls-110{fill:url(#radial-gradient-105);}.cls-111{fill:url(#radial-gradient-106);}.cls-112{fill:url(#radial-gradient-107);}.cls-113{fill:url(#radial-gradient-108);}.cls-114{fill:url(#radial-gradient-109);}.cls-115{fill:url(#radial-gradient-110);}.cls-116{fill:url(#radial-gradient-111);}.cls-117{fill:url(#radial-gradient-112);}.cls-118{fill:url(#radial-gradient-113);}.cls-119{fill:url(#radial-gradient-114);}.cls-120{fill:url(#radial-gradient-115);}.cls-121{fill:url(#radial-gradient-116);}.cls-122{fill:url(#radial-gradient-117);}.cls-123{fill:url(#radial-gradient-118);}</style><radialGradient id="radial-gradient" cx="668.49" cy="445.05" r="585.09" gradientUnits="userSpaceOnUse"><stop offset="0" stop-color="#2082ff"/><stop offset="0.04" stop-color="#1e7aef"/><stop offset="0.19" stop-color="#165ab0"/><stop offset="0.35" stop-color="#0f3e7a"/><stop offset="0.5" stop-color="#0a284f"/><stop offset="0.64" stop-color="#06172c"/><stop offset="0.77" stop-color="#020a14"/><stop offset="0.9" stop-color="#010305"/><stop offset="1"/></radialGradient><radialGradient id="radial-gradient-2" cx="626.61" cy="49.72" r="513.97" xlink:href="#radial-gradient"/><radialGradient id="radial-gradient-3" cx="1008.7" cy="864.05" r="492.89" xlink:href="#radial-gradient"/><radialGradient id="radial-gradient-4" cx="1147.47" cy="632.54" r="492.88" gradientTransform="translate(-43.59 1646.23) rotate(-99.64)" xlink:href="#radial-gradient"/><radialGradient id="radial-gradient-5" cx="636.8" cy="709.08" r="579.52" xlink:href="#radial-gradient"/><radialGradient id="radial-gradient-6" cx="1554.98" cy="1227.26" r="579.54" gradientTransform="translate(1089.9 -437.7) rotate(86.31)" xlink:href="#radial-gradient"/><radialGradient id="radial-gradient-7" cx="1007.71" cy="1561.82" r="323.07" gradientTransform="translate(-548.56 -338.91) rotate(-2.52)" xlink:href="#radial-gradient"/><radialGradient id="radial-gradient-8" cx="598.56" cy="787.38" r="4.41" gradientUnits="userSpaceOnUse"><stop offset="0" stop-color="#fff"/><stop offset="0.04" stop-color="#dbdbdb"/><stop offset="0.1" stop-color="#adadad"/><stop offset="0.17" stop-color="#848484"/><stop offset="0.23" stop-color="#606060"/><stop offset="0.31" stop-color="#424242"/><stop offset="0.39" stop-color="#2a2a2a"/><stop offset="0.48" stop-color="#171717"/><stop offset="0.59" stop-color="#0a0a0a"/><stop offset="0.72" stop-color="#020202"/><stop offset="1"/></radialGradient><radialGradient id="radial-gradient-9" cx="619.66" cy="818.35" r="4.41" xlink:href="#radial-gradient-8"/><radialGradient id="radial-gradient-10" cx="1309.24" cy="776.92" r="4.41" xlink:href="#radial-gradient-8"/><radialGradient id="radial-gradient-11" cx="1325.46" cy="753.9" r="4.41" xlink:href="#radial-gradient-8"/><radialGradient id="radial-gradient-12" cx="674.11" cy="780.56" r="4.41" xlink:href="#radial-gradient-8"/><radialGradient id="radial-gradient-13" cx="1357.6" cy="735.83" r="4.41" xlink:href="#radial-gradient-8"/><radialGradient id="radial-gradient-14" cx="1449.51" cy="773.95" r="4.41" xlink:href="#radial-gradient-8"/><radialGradient id="radial-gradient-15" cx="791.6" cy="879.35" r="4.81" xlink:href="#radial-gradient-8"/><radialGradient id="radial-gradient-16" cx="1468.02" cy="843.49" r="5.51" xlink:href="#radial-gradient-8"/><radialGradient id="radial-gradient-17" cx="1468.79" cy="735.71" r="4.41" xlink:href="#radial-gradient-8"/><radialGradient id="radial-gradient-18" cx="1460.87" cy="718.29" r="4.41" xlink:href="#radial-gradient-8"/><radialGradient id="radial-gradient-19" cx="796.27" cy="739.97" r="4.41" xlink:href="#radial-gradient-8"/><radialGradient id="radial-gradient-20" cx="1478.3" cy="657.8" r="4.27" xlink:href="#radial-gradient-8"/><radialGradient id="radial-gradient-21" cx="1348.62" cy="536.72" r="4.39" xlink:href="#radial-gradient-8"/><radialGradient id="radial-gradient-22" cx="1343.15" cy="595.42" r="3.09" xlink:href="#radial-gradient-8"/><radialGradient id="radial-gradient-23" cx="684.53" cy="695.54" r="3.45" xlink:href="#radial-gradient-8"/><radialGradient id="radial-gradient-24" cx="669.79" cy="691.29" r="3.53" xlink:href="#radial-gradient-8"/><radialGradient id="radial-gradient-25" cx="1020.09" cy="492.17" r="8.86" xlink:href="#radial-gradient-8"/><radialGradient id="radial-gradient-26" cx="983.82" cy="493.66" r="10.99" xlink:href="#radial-gradient-8"/><radialGradient id="radial-gradient-27" cx="951.17" cy="579.49" r="5.27" xlink:href="#radial-gradient-8"/><radialGradient id="radial-gradient-28" cx="953.23" cy="616.16" r="4.41" xlink:href="#radial-gradient-8"/><radialGradient id="radial-gradient-29" cx="936.19" cy="596.57" r="4.64" xlink:href="#radial-gradient-8"/><radialGradient id="radial-gradient-30" cx="910.37" cy="528.35" r="5.79" xlink:href="#radial-gradient-8"/><radialGradient id="radial-gradient-31" cx="1168.98" cy="431.79" r="6.39" xlink:href="#radial-gradient-8"/><radialGradient id="radial-gradient-32" cx="494.42" cy="467.46" r="5.9" xlink:href="#radial-gradient-8"/><radialGradient id="radial-gradient-33" cx="1003.03" cy="507.91" r="4.41" xlink:href="#radial-gradient-8"/><radialGradient id="radial-gradient-34" cx="454.39" cy="480.4" r="6.66" xlink:href="#radial-gradient-8"/><radialGradient id="radial-gradient-35" cx="1106.95" cy="471.23" r="8.81" xlink:href="#radial-gradient-8"/><radialGradient id="radial-gradient-36" cx="238.05" cy="515.17" r="7.96" xlink:href="#radial-gradient-8"/><radialGradient id="radial-gradient-37" cx="896.22" cy="552.87" r="4.83" xlink:href="#radial-gradient-8"/><radialGradient id="radial-gradient-38" cx="913.28" cy="607.07" r="4.41" xlink:href="#radial-gradient-8"/><radialGradient id="radial-gradient-39" cx="581.04" cy="450.91" r="4.41" xlink:href="#radial-gradient-8"/><radialGradient id="radial-gradient-40" cx="1538.72" cy="492.73" r="4.41" xlink:href="#radial-gradient-8"/><radialGradient id="radial-gradient-41" cx="1560.32" cy="526.74" r="4.41" xlink:href="#radial-gradient-8"/><radialGradient id="radial-gradient-42" cx="911.36" cy="651.06" r="4.41" xlink:href="#radial-gradient-8"/><radialGradient id="radial-gradient-43" cx="931.69" cy="716.15" r="4.41" xlink:href="#radial-gradient-8"/><radialGradient id="radial-gradient-44" cx="1607.94" cy="693.68" r="4.41" xlink:href="#radial-gradient-8"/><radialGradient id="radial-gradient-45" cx="794.96" cy="618.99" r="3.98" xlink:href="#radial-gradient-8"/><radialGradient id="radial-gradient-46" cx="1386.25" cy="553.16" r="3.83" xlink:href="#radial-gradient-8"/><radialGradient id="radial-gradient-47" cx="1287.61" cy="690.78" r="4.41" xlink:href="#radial-gradient-8"/><radialGradient id="radial-gradient-48" cx="672.72" cy="871.36" r="4.41" xlink:href="#radial-gradient-8"/><radialGradient id="radial-gradient-49" cx="742.24" cy="864.86" r="4.41" xlink:href="#radial-gradient-8"/><radialGradient id="radial-gradient-50" cx="1438.04" cy="841.24" r="5.17" xlink:href="#radial-gradient-8"/><radialGradient id="radial-gradient-51" cx="780.9" cy="942.23" r="7.46" xlink:href="#radial-gradient-8"/><radialGradient id="radial-gradient-52" cx="1448.83" cy="924.02" r="9.14" xlink:href="#radial-gradient-8"/><radialGradient id="radial-gradient-53" cx="1398.5" cy="847.28" r="4.61" xlink:href="#radial-gradient-8"/><radialGradient id="radial-gradient-54" cx="1479.22" cy="995.37" r="7.87" xlink:href="#radial-gradient-8"/><radialGradient id="radial-gradient-55" cx="1486.02" cy="914.22" r="9.09" xlink:href="#radial-gradient-8"/><radialGradient id="radial-gradient-56" cx="789.48" cy="1042" r="7.41" xlink:href="#radial-gradient-8"/><radialGradient id="radial-gradient-57" cx="1506.11" cy="894.49" r="7.56" xlink:href="#radial-gradient-8"/><radialGradient id="radial-gradient-58" cx="1526.07" cy="831.97" r="4.59" xlink:href="#radial-gradient-8"/><radialGradient id="radial-gradient-59" cx="973.12" cy="832.25" r="4.41" xlink:href="#radial-gradient-8"/><radialGradient id="radial-gradient-60" cx="1666.02" cy="749.04" r="4.41" xlink:href="#radial-gradient-8"/><radialGradient id="radial-gradient-61" cx="1599.71" cy="330" r="4.41" xlink:href="#radial-gradient-8"/><radialGradient id="radial-gradient-62" cx="1525.38" cy="281.35" r="5.07" xlink:href="#radial-gradient-8"/><radialGradient id="radial-gradient-63" cx="653.8" cy="343" r="4.41" xlink:href="#radial-gradient-8"/><radialGradient id="radial-gradient-64" cx="1346.84" cy="314.85" r="4.63" xlink:href="#radial-gradient-8"/><radialGradient id="radial-gradient-65" cx="798.8" cy="383.25" r="5.92" xlink:href="#radial-gradient-8"/><radialGradient id="radial-gradient-66" cx="618.42" cy="889.31" r="4.42" xlink:href="#radial-gradient-8"/><radialGradient id="radial-gradient-67" cx="1280.25" cy="792.79" r="4.41" xlink:href="#radial-gradient-8"/><radialGradient id="radial-gradient-68" cx="1249.13" cy="656.83" r="4.4" xlink:href="#radial-gradient-8"/><radialGradient id="radial-gradient-69" cx="1253.86" cy="742.92" r="4.4" xlink:href="#radial-gradient-8"/><radialGradient id="radial-gradient-70" cx="1262.44" cy="777.9" r="4.41" xlink:href="#radial-gradient-8"/><radialGradient id="radial-gradient-71" cx="1124.21" cy="737.96" r="4.62" xlink:href="#radial-gradient-8"/><radialGradient id="radial-gradient-72" cx="480.59" cy="814.2" r="4.5" xlink:href="#radial-gradient-8"/><radialGradient id="radial-gradient-73" cx="1164.04" cy="776.52" r="4.46" xlink:href="#radial-gradient-8"/><radialGradient id="radial-gradient-74" cx="1536.92" cy="569.04" r="4.29" xlink:href="#radial-gradient-8"/><radialGradient id="radial-gradient-75" cx="1572.17" cy="640.08" r="4.37" xlink:href="#radial-gradient-8"/><radialGradient id="radial-gradient-76" cx="1594.36" cy="700.66" r="4.39" xlink:href="#radial-gradient-8"/><radialGradient id="radial-gradient-77" cx="1595.12" cy="743.79" r="4.41" xlink:href="#radial-gradient-8"/><radialGradient id="radial-gradient-78" cx="881.17" cy="817.45" r="4.5" xlink:href="#radial-gradient-8"/><radialGradient id="radial-gradient-79" cx="1434.19" cy="1018.93" r="8.13" xlink:href="#radial-gradient-8"/><radialGradient id="radial-gradient-80" cx="1445.21" cy="1066.68" r="7.97" xlink:href="#radial-gradient-8"/><radialGradient id="radial-gradient-81" cx="1524.82" cy="995.96" r="8.11" xlink:href="#radial-gradient-8"/><radialGradient id="radial-gradient-82" cx="1515.03" cy="972.31" r="8.06" xlink:href="#radial-gradient-8"/><radialGradient id="radial-gradient-83" cx="815.39" cy="1007.31" r="7.72" xlink:href="#radial-gradient-8"/><radialGradient id="radial-gradient-84" cx="720.17" cy="736.66" r="4.14" xlink:href="#radial-gradient-8"/><radialGradient id="radial-gradient-85" cx="1286.45" cy="541.75" r="4.52" xlink:href="#radial-gradient-8"/><radialGradient id="radial-gradient-86" cx="1307.55" cy="339.67" r="4.49" xlink:href="#radial-gradient-8"/><radialGradient id="radial-gradient-87" cx="680.64" cy="440.95" r="4.98" xlink:href="#radial-gradient-8"/><radialGradient id="radial-gradient-88" cx="777.73" cy="575.13" r="4.48" xlink:href="#radial-gradient-8"/><radialGradient id="radial-gradient-89" cx="753.72" cy="419.5" r="5.55" xlink:href="#radial-gradient-8"/><radialGradient id="radial-gradient-90" cx="1431.42" cy="310.35" r="5.32" xlink:href="#radial-gradient-8"/><radialGradient id="radial-gradient-91" cx="1151.74" cy="1012.96" r="4.41" xlink:href="#radial-gradient-8"/><radialGradient id="radial-gradient-92" cx="408.18" cy="1109.97" r="4.41" xlink:href="#radial-gradient-8"/><radialGradient id="radial-gradient-93" cx="1186.68" cy="832.23" r="4.44" xlink:href="#radial-gradient-8"/><radialGradient id="radial-gradient-94" cx="1135.45" cy="910.13" r="4.44" xlink:href="#radial-gradient-8"/><radialGradient id="radial-gradient-95" cx="359.88" cy="1023.33" r="4.42" xlink:href="#radial-gradient-8"/><radialGradient id="radial-gradient-96" cx="799.89" cy="1037.3" r="4.41" xlink:href="#radial-gradient-8"/><radialGradient id="radial-gradient-97" cx="1186.18" cy="890.28" r="4.43" xlink:href="#radial-gradient-8"/><radialGradient id="radial-gradient-98" cx="971.06" cy="970.73" r="4.42" xlink:href="#radial-gradient-8"/><radialGradient id="radial-gradient-99" cx="928.36" cy="987.6" r="4.42" xlink:href="#radial-gradient-8"/><radialGradient id="radial-gradient-100" cx="258.81" cy="1026.46" r="4.42" xlink:href="#radial-gradient-8"/><radialGradient id="radial-gradient-101" cx="1213.63" cy="906.4" r="4.43" xlink:href="#radial-gradient-8"/><radialGradient id="radial-gradient-102" cx="1077.36" cy="939.87" r="4.43" xlink:href="#radial-gradient-8"/><radialGradient id="radial-gradient-103" cx="1040.67" cy="945.35" r="4.43" xlink:href="#radial-gradient-8"/><radialGradient id="radial-gradient-104" cx="754.44" cy="1196.76" r="452.55" gradientTransform="translate(-368.23 1493.57) rotate(-84.78)" gradientUnits="userSpaceOnUse"><stop offset="0" stop-color="#f0f"/><stop offset="0.04" stop-color="#ef00ef"/><stop offset="0.19" stop-color="#b000b0"/><stop offset="0.35" stop-color="#7a007a"/><stop offset="0.5" stop-color="#4f004f"/><stop offset="0.64" stop-color="#2c002c"/><stop offset="0.77" stop-color="#140014"/><stop offset="0.9" stop-color="#050005"/><stop offset="1"/></radialGradient><radialGradient id="radial-gradient-105" cx="1181.04" cy="164.94" r="221.95" gradientTransform="translate(-883.48 773.49) rotate(-41.45)" xlink:href="#radial-gradient-104"/><radialGradient id="radial-gradient-106" cx="738.82" cy="858.14" r="397.54" gradientTransform="translate(-38.53 1867.66) rotate(-104.53)" xlink:href="#radial-gradient"/><radialGradient id="radial-gradient-107" cx="1060.53" cy="1481.02" r="381.23" gradientTransform="translate(-599.41 749.07) rotate(-56.88)" xlink:href="#radial-gradient"/><radialGradient id="radial-gradient-108" cx="529.21" cy="-63.81" r="381.23" gradientTransform="translate(1394.61 768.57) rotate(162.2)" xlink:href="#radial-gradient"/><radialGradient id="radial-gradient-109" cx="669.42" cy="1387.34" r="448.24" gradientTransform="translate(-250.14 1721.02) rotate(-96.78)" xlink:href="#radial-gradient"/><radialGradient id="radial-gradient-110" cx="2162.35" cy="1692.61" r="448.26" gradientTransform="translate(-697.44 -304.32) rotate(1.53)" xlink:href="#radial-gradient"/><radialGradient id="radial-gradient-111" cx="427.54" cy="2176.53" r="249.89" gradientTransform="matrix(0.05, -1, 1, 0.05, -748.13, 1336.33)" xlink:href="#radial-gradient"/><radialGradient id="radial-gradient-112" cx="1329.95" cy="1241.77" r="290.3" gradientTransform="translate(-174.44 -1084.4) rotate(5.44)" xlink:href="#radial-gradient-104"/><radialGradient id="radial-gradient-113" cx="1309.17" cy="1045.63" r="255.02" gradientTransform="translate(-174.44 -1084.4) rotate(5.44)" xlink:href="#radial-gradient"/><radialGradient id="radial-gradient-114" cx="1498.75" cy="1449.67" r="244.55" gradientTransform="translate(-174.44 -1084.4) rotate(5.44)" xlink:href="#radial-gradient"/><radialGradient id="radial-gradient-115" cx="253.58" cy="498.01" r="244.55" gradientTransform="translate(543.74 681.24) rotate(-107.57)" xlink:href="#radial-gradient"/><radialGradient id="radial-gradient-116" cx="1320.68" cy="1356.9" r="287.54" gradientTransform="translate(-174.44 -1084.4) rotate(5.44)" xlink:href="#radial-gradient"/><radialGradient id="radial-gradient-117" cx="2049.86" cy="913.2" r="287.55" gradientTransform="matrix(-0.03, 1, -1, -0.03, 1624.72, -1406.64)" xlink:href="#radial-gradient"/><radialGradient id="radial-gradient-118" cx="1048.69" cy="2045.77" r="160.3" gradientTransform="translate(-15.72 -1463.69) rotate(2.92)" xlink:href="#radial-gradient"/></defs><g class="cls-1"><g id="Layer_4" data-name="Layer 4"><polygon class="cls-2" points="826.03 775.94 269.4 1132.7 568.13 681.38 826.03 775.94"/><polygon class="cls-3" points="1266.6 150.54 368.26 657.74 669.14 156.98 1266.6 150.54"/><polygon class="cls-4" points="568.13 681.38 1116.16 513.74 866.86 934.98 568.13 681.38"/><polygon class="cls-5" points="281.52 873.97 24.48 361.75 481.51 536.99 281.52 873.97"/><polygon class="cls-6" points="547.25 668.43 683.51 98.92 254.69 185.95 547.25 668.43"/><polygon class="cls-7" points="0 1100.92 577.09 1200.31 462.68 777.96 0 1100.92"/><polygon class="cls-8" points="476 1156.57 537.92 836.05 301.23 895.04 476 1156.57"/><polyline class="cls-9" points="1004.24 1035.87 829.84 992.94 803.01 1153.92 1076.69 845.37"/><circle class="cls-10" cx="1076.69" cy="845.37" r="5.12"/><path class="cls-10" d="M1677.51,982.09a5.13,5.13,0,1,1-5.12-5.12A5.13,5.13,0,0,1,1677.51,982.09Z" transform="translate(-670.58 53.72)"/><g class="cls-11"><polyline class="cls-9" points="391.43 405.22 339.23 592.09 391.73 512.86 332.33 332.1"/><path class="cls-10" d="M1004.1,276.33a2.36,2.36,0,1,1-3.23.85A2.36,2.36,0,0,1,1004.1,276.33Z" transform="translate(-670.58 53.72)"/><path class="cls-10" d="M1062.61,350.42a2.36,2.36,0,1,1-3.23.85A2.36,2.36,0,0,1,1062.61,350.42Z" transform="translate(-670.58 53.72)"/></g><polyline class="cls-9" points="630.25 209.04 687.77 149.4 629.76 101.41 689.48 282.07"/><path class="cls-10" d="M1358.88,230.39a2.36,2.36,0,1,1,3.23-.86A2.36,2.36,0,0,1,1358.88,230.39Z" transform="translate(-670.58 53.72)"/><path class="cls-10" d="M1300.23,156.4a2.37,2.37,0,1,1,3.23-.86A2.36,2.36,0,0,1,1300.23,156.4Z" transform="translate(-670.58 53.72)"/><polyline class="cls-9" points="646.22 1067.51 703.74 1007.87 645.72 959.87 705.44 1140.53"/><path class="cls-10" d="M1374.84,1088.85a2.36,2.36,0,1,1,3.23-.86A2.37,2.37,0,0,1,1374.84,1088.85Z" transform="translate(-670.58 53.72)"/><path class="cls-10" d="M1316.2,1014.86a2.36,2.36,0,1,1,3.23-.86A2.36,2.36,0,0,1,1316.2,1014.86Z" transform="translate(-670.58 53.72)"/><polyline class="cls-9" points="515.14 1042.55 779.02 1164.37 807.42 1087.81 643.8 1213.54"/><path class="cls-10" d="M1311.87,1159.33a2.56,2.56,0,1,1,2,3A2.55,2.55,0,0,1,1311.87,1159.33Z" transform="translate(-670.58 53.72)"/><path class="cls-10" d="M1184.4,988.59a2.56,2.56,0,1,1,2,3A2.56,2.56,0,0,1,1184.4,988.59Z" transform="translate(-670.58 53.72)"/><polyline class="cls-9" points="1273.5 334.47 866.88 331.49 874.87 445.45 1010.84 190.79"/><path class="cls-10" d="M1684.91,136.23a3.58,3.58,0,1,1-4.32-2.65A3.58,3.58,0,0,1,1684.91,136.23Z" transform="translate(-670.58 53.72)"/><path class="cls-10" d="M1945.9,280.27a3.58,3.58,0,1,1-4.32-2.65A3.6,3.6,0,0,1,1945.9,280.27Z" transform="translate(-670.58 53.72)"/><polyline class="cls-9" points="1144.11 446.64 1075.64 495.14 1093.02 448.27 992.85 525.24"/><path class="cls-10" d="M1661.89,471.22a1.57,1.57,0,1,1,1.25,1.84A1.57,1.57,0,0,1,1661.89,471.22Z" transform="translate(-670.58 53.72)"/><path class="cls-10" d="M1813.88,392.77a1.57,1.57,0,1,1,1.25,1.84A1.56,1.56,0,0,1,1813.88,392.77Z" transform="translate(-670.58 53.72)"/><path class="cls-10" d="M1744.68,441.12a1.57,1.57,0,1,1,3.08.59,1.57,1.57,0,0,1-3.08-.59Z" transform="translate(-670.58 53.72)"/><path class="cls-10" d="M1762.09,393.56a1.57,1.57,0,1,1,1.25,1.84A1.57,1.57,0,0,1,1762.09,393.56Z" transform="translate(-670.58 53.72)"/><polygon class="cls-12" points="279.43 937.57 340.99 810.92 434.38 900.07 279.43 937.57"/><path class="cls-10" d="M1013.37,757.52a1.48,1.48,0,1,1-1.47-1.48A1.47,1.47,0,0,1,1013.37,757.52Z" transform="translate(-670.58 53.72)"/><path class="cls-10" d="M1106.44,846.35a1.48,1.48,0,1,1-1.47-1.47A1.47,1.47,0,0,1,1106.44,846.35Z" transform="translate(-670.58 53.72)"/><path class="cls-10" d="M951.76,883.25a1.48,1.48,0,1,1-1.47-1.47A1.47,1.47,0,0,1,951.76,883.25Z" transform="translate(-670.58 53.72)"/><polygon class="cls-12" points="1138.13 560.71 1250.44 756.73 1047.88 800.02 1138.13 560.71"/><path class="cls-10" d="M1919,705.1a2.36,2.36,0,1,1,3.28-.62A2.37,2.37,0,0,1,1919,705.1Z" transform="translate(-670.58 53.72)"/><path class="cls-10" d="M1717.13,748.25a2.36,2.36,0,0,1,2.66-3.91,2.36,2.36,0,1,1-2.66,3.91Z" transform="translate(-670.58 53.72)"/><path class="cls-10" d="M1807.93,509.84a2.36,2.36,0,1,1,3.28-.63A2.37,2.37,0,0,1,1807.93,509.84Z" transform="translate(-670.58 53.72)"/><polygon class="cls-12" points="872.39 1.47 984.7 197.48 782.14 240.78 872.39 1.47"/><path class="cls-10" d="M1653.24,145.86a2.36,2.36,0,1,1,2.66-3.91,2.36,2.36,0,0,1-2.66,3.91Z" transform="translate(-670.58 53.72)"/><path class="cls-10" d="M1451.39,189a2.36,2.36,0,1,1,3.29-.63A2.37,2.37,0,0,1,1451.39,189Z" transform="translate(-670.58 53.72)"/><path class="cls-10" d="M1542.19-49.41a2.35,2.35,0,0,1-.62-3.28,2.35,2.35,0,0,1,3.28-.62,2.35,2.35,0,0,1,.62,3.28A2.35,2.35,0,0,1,1542.19-49.41Z" transform="translate(-670.58 53.72)"/><polygon class="cls-12" points="419.25 326.94 488.27 176.25 600.58 278.64 419.25 326.94"/><circle class="cls-10" cx="488.67" cy="176.61" r="1.73"/><path class="cls-10" d="M1272.9,224.87a1.74,1.74,0,1,1-1.78-1.69A1.74,1.74,0,0,1,1272.9,224.87Z" transform="translate(-670.58 53.72)"/><path class="cls-10" d="M1091.87,272.47a1.74,1.74,0,1,1-1.77-1.69A1.73,1.73,0,0,1,1091.87,272.47Z" transform="translate(-670.58 53.72)"/><polygon class="cls-12" points="1060.34 721.88 1172.65 917.89 970.09 961.18 1060.34 721.88"/><path class="cls-10" d="M1841.18,866.26a2.36,2.36,0,1,1,3.29-.62A2.37,2.37,0,0,1,1841.18,866.26Z" transform="translate(-670.58 53.72)"/><path class="cls-10" d="M1639.34,909.41a2.36,2.36,0,1,1,3.28-.62A2.35,2.35,0,0,1,1639.34,909.41Z" transform="translate(-670.58 53.72)"/><path class="cls-10" d="M1730.14,671a2.36,2.36,0,1,1,3.28-.62A2.37,2.37,0,0,1,1730.14,671Z" transform="translate(-670.58 53.72)"/><circle class="cls-13" cx="598.56" cy="787.38" r="4.41"/><circle class="cls-14" cx="619.66" cy="818.35" r="4.41"/><path class="cls-15" d="M1313.65,776.92a4.41,4.41,0,1,1-4.41-4.41A4.4,4.4,0,0,1,1313.65,776.92Z" transform="translate(-670.58 53.72)"/><path class="cls-16" d="M1329.87,753.9a4.41,4.41,0,1,1-4.41-4.41A4.41,4.41,0,0,1,1329.87,753.9Z" transform="translate(-670.58 53.72)"/><circle class="cls-17" cx="674.11" cy="780.56" r="4.41"/><path class="cls-18" d="M1362,735.83a4.41,4.41,0,1,1-4.41-4.41A4.4,4.4,0,0,1,1362,735.83Z" transform="translate(-670.58 53.72)"/><path class="cls-19" d="M1453.92,774a4.41,4.41,0,1,1-4.41-4.41A4.4,4.4,0,0,1,1453.92,774Z" transform="translate(-670.58 53.72)"/><circle class="cls-20" cx="791.6" cy="879.35" r="4.81"/><path class="cls-21" d="M1473.53,843.49A5.52,5.52,0,1,1,1468,838,5.51,5.51,0,0,1,1473.53,843.49Z" transform="translate(-670.58 53.72)"/><path class="cls-22" d="M1473.2,735.71a4.41,4.41,0,1,1-4.41-4.41A4.41,4.41,0,0,1,1473.2,735.71Z" transform="translate(-670.58 53.72)"/><path class="cls-23" d="M1465.27,718.29a4.41,4.41,0,1,1-4.4-4.41A4.4,4.4,0,0,1,1465.27,718.29Z" transform="translate(-670.58 53.72)"/><circle class="cls-24" cx="796.27" cy="739.97" r="4.41"/><path class="cls-25" d="M1482.57,657.8a4.27,4.27,0,1,1-4.27-4.26A4.27,4.27,0,0,1,1482.57,657.8Z" transform="translate(-670.58 53.72)"/><path class="cls-26" d="M1353,536.72a4.39,4.39,0,1,1-4.39-4.39A4.39,4.39,0,0,1,1353,536.72Z" transform="translate(-670.58 53.72)"/><path class="cls-27" d="M1346.24,595.42a3.1,3.1,0,1,1-3.09-3.09A3.09,3.09,0,0,1,1346.24,595.42Z" transform="translate(-670.58 53.72)"/><circle class="cls-28" cx="684.53" cy="695.54" r="3.45"/><circle class="cls-29" cx="669.79" cy="691.29" r="3.53"/><path class="cls-30" d="M1028.94,492.17a8.86,8.86,0,1,1-8.85-8.86A8.86,8.86,0,0,1,1028.94,492.17Z" transform="translate(-670.58 53.72)"/><path class="cls-31" d="M994.81,493.65a11,11,0,1,1-11-11A11,11,0,0,1,994.81,493.65Z" transform="translate(-670.58 53.72)"/><path class="cls-32" d="M956.44,579.49a5.27,5.27,0,1,1-5.27-5.27A5.27,5.27,0,0,1,956.44,579.49Z" transform="translate(-670.58 53.72)"/><path class="cls-33" d="M957.64,616.16a4.41,4.41,0,1,1-4.41-4.41A4.41,4.41,0,0,1,957.64,616.16Z" transform="translate(-670.58 53.72)"/><path class="cls-34" d="M940.84,596.57a4.65,4.65,0,1,1-4.65-4.65A4.65,4.65,0,0,1,940.84,596.57Z" transform="translate(-670.58 53.72)"/><path class="cls-35" d="M916.16,528.35a5.79,5.79,0,1,1-5.79-5.79A5.79,5.79,0,0,1,916.16,528.35Z" transform="translate(-670.58 53.72)"/><path class="cls-36" d="M1175.37,431.79a6.4,6.4,0,1,1-6.39-6.4A6.39,6.39,0,0,1,1175.37,431.79Z" transform="translate(-670.58 53.72)"/><circle class="cls-37" cx="494.42" cy="467.46" r="5.9"/><path class="cls-38" d="M1007.44,507.91a4.41,4.41,0,1,1-4.41-4.41A4.4,4.4,0,0,1,1007.44,507.91Z" transform="translate(-670.58 53.72)"/><circle class="cls-39" cx="454.39" cy="480.4" r="6.66"/><path class="cls-40" d="M1115.76,471.23a8.81,8.81,0,1,1-8.81-8.81A8.81,8.81,0,0,1,1115.76,471.23Z" transform="translate(-670.58 53.72)"/><circle class="cls-41" cx="238.05" cy="515.17" r="7.96"/><path class="cls-42" d="M901.05,552.87a4.83,4.83,0,1,1-4.83-4.83A4.83,4.83,0,0,1,901.05,552.87Z" transform="translate(-670.58 53.72)"/><path class="cls-43" d="M917.68,607.07a4.41,4.41,0,1,1-4.4-4.41A4.41,4.41,0,0,1,917.68,607.07Z" transform="translate(-670.58 53.72)"/><circle class="cls-44" cx="581.04" cy="450.91" r="4.41"/><path class="cls-45" d="M1543.13,492.73a4.41,4.41,0,1,1-4.41-4.41A4.41,4.41,0,0,1,1543.13,492.73Z" transform="translate(-670.58 53.72)"/><path class="cls-46" d="M1564.73,526.74a4.41,4.41,0,1,1-4.41-4.41A4.41,4.41,0,0,1,1564.73,526.74Z" transform="translate(-670.58 53.72)"/><circle class="cls-47" cx="911.36" cy="651.06" r="4.41"/><circle class="cls-48" cx="931.69" cy="716.15" r="4.41"/><path class="cls-49" d="M1612.35,693.68a4.41,4.41,0,1,1-4.41-4.4A4.4,4.4,0,0,1,1612.35,693.68Z" transform="translate(-670.58 53.72)"/><circle class="cls-50" cx="794.96" cy="618.99" r="3.98"/><path class="cls-51" d="M1390.09,553.16a3.84,3.84,0,1,1-3.84-3.83A3.84,3.84,0,0,1,1390.09,553.16Z" transform="translate(-670.58 53.72)"/><path class="cls-52" d="M1292,690.78a4.41,4.41,0,1,1-4.41-4.4A4.41,4.41,0,0,1,1292,690.78Z" transform="translate(-670.58 53.72)"/><circle class="cls-53" cx="672.72" cy="871.36" r="4.41"/><circle class="cls-54" cx="742.24" cy="864.86" r="4.41"/><path class="cls-55" d="M1443.21,841.24a5.17,5.17,0,1,1-5.17-5.17A5.16,5.16,0,0,1,1443.21,841.24Z" transform="translate(-670.58 53.72)"/><circle class="cls-56" cx="780.9" cy="942.23" r="7.46"/><path class="cls-57" d="M1458,924a9.14,9.14,0,1,1-9.14-9.14A9.14,9.14,0,0,1,1458,924Z" transform="translate(-670.58 53.72)"/><path class="cls-58" d="M1403.11,847.28a4.61,4.61,0,1,1-4.61-4.61A4.6,4.6,0,0,1,1403.11,847.28Z" transform="translate(-670.58 53.72)"/><path class="cls-59" d="M1487.09,995.37a7.87,7.87,0,1,1-7.87-7.87A7.87,7.87,0,0,1,1487.09,995.37Z" transform="translate(-670.58 53.72)"/><path class="cls-60" d="M1495.11,914.22a9.09,9.09,0,1,1-9.09-9.1A9.09,9.09,0,0,1,1495.11,914.22Z" transform="translate(-670.58 53.72)"/><circle class="cls-61" cx="789.48" cy="1042" r="7.41"/><path class="cls-62" d="M1513.66,894.49a7.56,7.56,0,1,1-7.55-7.55A7.55,7.55,0,0,1,1513.66,894.49Z" transform="translate(-670.58 53.72)"/><path class="cls-63" d="M1530.66,832a4.59,4.59,0,1,1-4.59-4.58A4.59,4.59,0,0,1,1530.66,832Z" transform="translate(-670.58 53.72)"/><circle class="cls-64" cx="973.12" cy="832.25" r="4.41"/><path class="cls-65" d="M1670.42,749a4.41,4.41,0,1,1-4.4-4.4A4.4,4.4,0,0,1,1670.42,749Z" transform="translate(-670.58 53.72)"/><path class="cls-66" d="M1604.12,330a4.41,4.41,0,1,1-4.41-4.4A4.4,4.4,0,0,1,1604.12,330Z" transform="translate(-670.58 53.72)"/><path class="cls-67" d="M1530.45,281.35a5.07,5.07,0,1,1-5.07-5.07A5.07,5.07,0,0,1,1530.45,281.35Z" transform="translate(-670.58 53.72)"/><circle class="cls-68" cx="653.8" cy="343" r="4.41"/><path class="cls-69" d="M1351.47,314.84a4.63,4.63,0,1,1-4.63-4.63A4.63,4.63,0,0,1,1351.47,314.84Z" transform="translate(-670.58 53.72)"/><circle class="cls-70" cx="798.8" cy="383.25" r="5.92"/><circle class="cls-71" cx="618.42" cy="889.31" r="4.42"/><path class="cls-72" d="M1284.66,792.79a4.41,4.41,0,1,1-4.41-4.4A4.41,4.41,0,0,1,1284.66,792.79Z" transform="translate(-670.58 53.72)"/><path class="cls-73" d="M1253.53,656.83a4.4,4.4,0,1,1-4.4-4.4A4.4,4.4,0,0,1,1253.53,656.83Z" transform="translate(-670.58 53.72)"/><path class="cls-74" d="M1258.27,742.92a4.41,4.41,0,1,1-4.41-4.4A4.41,4.41,0,0,1,1258.27,742.92Z" transform="translate(-670.58 53.72)"/><path class="cls-75" d="M1266.85,777.9a4.41,4.41,0,1,1-4.41-4.4A4.4,4.4,0,0,1,1266.85,777.9Z" transform="translate(-670.58 53.72)"/><path class="cls-76" d="M1128.83,738a4.62,4.62,0,1,1-4.62-4.62A4.62,4.62,0,0,1,1128.83,738Z" transform="translate(-670.58 53.72)"/><circle class="cls-77" cx="480.59" cy="814.2" r="4.5"/><path class="cls-78" d="M1168.5,776.52a4.47,4.47,0,1,1-4.46-4.46A4.47,4.47,0,0,1,1168.5,776.52Z" transform="translate(-670.58 53.72)"/><path class="cls-79" d="M1541.21,569a4.29,4.29,0,1,1-4.29-4.3A4.29,4.29,0,0,1,1541.21,569Z" transform="translate(-670.58 53.72)"/><path class="cls-80" d="M1576.54,640.08a4.37,4.37,0,1,1-4.37-4.37A4.37,4.37,0,0,1,1576.54,640.08Z" transform="translate(-670.58 53.72)"/><path class="cls-81" d="M1598.76,700.66a4.4,4.4,0,1,1-4.4-4.4A4.4,4.4,0,0,1,1598.76,700.66Z" transform="translate(-670.58 53.72)"/><path class="cls-82" d="M1599.53,743.79a4.42,4.42,0,1,1-4.41-4.42A4.42,4.42,0,0,1,1599.53,743.79Z" transform="translate(-670.58 53.72)"/><circle class="cls-83" cx="881.17" cy="817.45" r="4.5"/><path class="cls-84" d="M1442.32,1018.93a8.14,8.14,0,1,1-8.13-8.13A8.14,8.14,0,0,1,1442.32,1018.93Z" transform="translate(-670.58 53.72)"/><path class="cls-85" d="M1453.18,1066.68a8,8,0,1,1-8-8A8,8,0,0,1,1453.18,1066.68Z" transform="translate(-670.58 53.72)"/><path class="cls-86" d="M1532.93,996a8.11,8.11,0,1,1-8.11-8.11A8.11,8.11,0,0,1,1532.93,996Z" transform="translate(-670.58 53.72)"/><path class="cls-87" d="M1523.09,972.31a8.07,8.07,0,1,1-8.06-8.06A8.06,8.06,0,0,1,1523.09,972.31Z" transform="translate(-670.58 53.72)"/><circle class="cls-88" cx="815.39" cy="1007.31" r="7.72"/><circle class="cls-89" cx="720.17" cy="736.66" r="4.14"/><path class="cls-90" d="M1291,541.75a4.52,4.52,0,1,1-4.52-4.52A4.52,4.52,0,0,1,1291,541.75Z" transform="translate(-670.58 53.72)"/><path class="cls-91" d="M1312,339.67a4.49,4.49,0,1,1-4.49-4.49A4.49,4.49,0,0,1,1312,339.67Z" transform="translate(-670.58 53.72)"/><circle class="cls-92" cx="680.64" cy="440.95" r="4.98"/><circle class="cls-93" cx="777.73" cy="575.13" r="4.48"/><circle class="cls-94" cx="753.72" cy="419.5" r="5.55"/><path class="cls-95" d="M1436.74,310.35a5.32,5.32,0,1,1-5.32-5.31A5.32,5.32,0,0,1,1436.74,310.35Z" transform="translate(-670.58 53.72)"/><path class="cls-96" d="M1156.15,1013a4.41,4.41,0,1,1-4.41-4.41A4.41,4.41,0,0,1,1156.15,1013Z" transform="translate(-670.58 53.72)"/><circle class="cls-97" cx="408.18" cy="1109.97" r="4.41"/><path class="cls-98" d="M1191.12,832.23a4.44,4.44,0,1,1-4.44-4.44A4.43,4.43,0,0,1,1191.12,832.23Z" transform="translate(-670.58 53.72)"/><path class="cls-99" d="M1139.89,910.13a4.44,4.44,0,1,1-4.44-4.44A4.44,4.44,0,0,1,1139.89,910.13Z" transform="translate(-670.58 53.72)"/><circle class="cls-100" cx="359.88" cy="1023.33" r="4.42"/><path class="cls-101" d="M804.29,1037.3a4.41,4.41,0,1,1-4.4-4.4A4.4,4.4,0,0,1,804.29,1037.3Z" transform="translate(-670.58 53.72)"/><path class="cls-102" d="M1190.62,890.28a4.44,4.44,0,1,1-4.44-4.43A4.44,4.44,0,0,1,1190.62,890.28Z" transform="translate(-670.58 53.72)"/><path class="cls-103" d="M975.48,970.73a4.43,4.43,0,1,1-4.42-4.43A4.42,4.42,0,0,1,975.48,970.73Z" transform="translate(-670.58 53.72)"/><path class="cls-104" d="M932.78,987.6a4.42,4.42,0,1,1-4.42-4.43A4.42,4.42,0,0,1,932.78,987.6Z" transform="translate(-670.58 53.72)"/><circle class="cls-105" cx="258.81" cy="1026.46" r="4.42"/><path class="cls-106" d="M1218.06,906.4a4.43,4.43,0,1,1-4.43-4.43A4.43,4.43,0,0,1,1218.06,906.4Z" transform="translate(-670.58 53.72)"/><path class="cls-107" d="M1081.79,939.87a4.43,4.43,0,1,1-4.43-4.43A4.43,4.43,0,0,1,1081.79,939.87Z" transform="translate(-670.58 53.72)"/><path class="cls-108" d="M1045.1,945.35a4.43,4.43,0,1,1-4.43-4.43A4.43,4.43,0,0,1,1045.1,945.35Z" transform="translate(-670.58 53.72)"/><polygon class="cls-109" points="1158.17 753.1 1393.79 1206.95 1067.18 945.09 1158.17 753.1"/><polygon class="cls-110" points="238.78 169.77 170.12 410.99 141.71 207.65 238.78 169.77"/><polygon class="cls-111" points="558.14 438.44 1112.21 1012.66 678.9 884.54 558.14 438.44"/><polygon class="cls-112" points="915.91 878.38 1038.96 452.53 1206.45 792.06 915.91 878.38"/><polygon class="cls-113" points="1277.88 1021.47 913.89 1274.46 997.93 905.31 1277.88 1021.47"/><polygon class="cls-114" points="1025.37 964.89 575.51 912.27 681.53 1233.68 1025.37 964.89"/><polygon class="cls-115" points="1350.35 1412.22 1467.52 974.71 1134.15 1033.11 1350.35 1412.22"/><polygon class="cls-116" points="1426.71 1049.49 1184.19 979.25 1212.97 1165.71 1426.71 1049.49"/><polygon class="cls-117" points="1093.99 448.76 802.27 598.78 971.06 389.92 1093.99 448.76"/><polygon class="cls-118" points="1341.03 160.59 873.45 368.84 1045.62 135.66 1341.03 160.59"/><polygon class="cls-119" points="971.06 389.92 1249.63 332.91 1106.67 529.24 971.06 389.92"/><polygon class="cls-120" points="921.54 524.89 760.15 290.77 996.75 345.6 921.54 524.89"/><polygon class="cls-121" points="969.28 367.35 1063.38 92.47 847.48 115.27 969.28 367.35"/><polygon class="cls-122" points="670.7 570.41 951.06 646.65 914.43 432.66 670.7 570.41"/><polygon class="cls-123" points="903.19 620.29 948.86 464.9 829.17 482.9 903.19 620.29"/></g></g></svg>