<svg width="89" height="89" viewBox="0 0 89 89" fill="none" xmlns="http://www.w3.org/2000/svg">
<path d="M62.1 5.9V81.87C62.1 83.9 60.81 85.6 59.08 86.09V86.11C58.75 86.2 58.41 86.27 58.06 86.27C55.84 86.27 53.76 84.28 54.02 81.87C54.8 74.62 58.99 59.06 56.84 52.85C55.61 49.3 51.09 42.88 51.09 32.22C51.09 12.39 55.73 5.31 58.95 3.65C58.99 3.63 59.04 3.62 59.08 3.6C60.5 3 62.1 4.16 62.1 5.9ZM37.68 3C38.63 9.13 39.54 20.62 39.54 26.57C39.54 33.89 38.05 33.8 33.71 35.53L35.31 81.22C35.31 83.64 33.49 85.62 31.27 85.62C31.07 85.62 30.88 85.59 30.69 85.56V85.54C28.75 85.23 27.24 83.43 27.24 81.22L28.84 35.53C24.49 33.8 23 33.89 23 26.57C23 20.62 23.9 8.99 24.83 3H25.85L26.08 28.84H28.2L28.74 3H29.74L30.2 28.84H30.68H31H32.32L32.84 3H33.94L34.41 28.84H36.53L36.72 3H37.68Z" fill="white"/>
</svg>
