<svg width="76" height="75" viewBox="0 0 76 75" fill="none" xmlns="http://www.w3.org/2000/svg">
<g clip-path="url(#clip0)">
<path d="M35.12 10.5C37.62 8.56 40.75 10.17 42.85 11.96C45.05 13.64 47.34 15.54 49.35 17.49L49.72 17.7C55.29 22.86 60.46 28.6 64.7 34.67C65.39 35.73 66 36.92 65.61 38.32C64.19 41.86 61.32 44.68 58.8 47.77C53.36 53.63 47.61 59.3 41.19 63.82C39.89 64.74 38.14 65.59 36.58 64.86C31.85 62.38 27.86 58.33 23.72 54.63C18.92 50.18 14.1 44.99 10.46 39.57C9.92 38.81 9.77 37.87 9.78 36.87C10.25 35 11.53 33.46 12.74 31.88C17.04 26.4 22.31 21.2 27.63 16.45C27.75 16.33 27.98 16.07 28.17 15.95C30.45 13.97 32.72 12.22 35.12 10.5ZM42.43 4.8L39.61 0.800005C39.26 0.590005 38.83 0.240005 38.45 0.140005C37.62 -0.219995 36.72 0.220005 36.04 0.730005L30.93 7.39C22.73 17.55 13.02 27.03 2.43 34.3C1.59 34.95 0.349997 35.59 0.0899973 36.67C-0.190003 37.64 0.319997 38.44 0.919997 39.04C9.4 44.88 17.51 51.82 24.73 59.73C26.01 61.08 27.05 62.42 28.3 63.68C30.41 66.49 32.89 69.32 34.83 72.33C35.44 72.97 35.54 74.01 36.49 74.32C37.23 74.58 38.15 74.75 38.86 74.32L39.57 73.61C48.34 61.18 59.47 50.01 71.91 41C73.16 39.89 75.53 39.47 75.57 37.41C75.48 36.46 74.93 35.52 74.11 35L73.91 34.97C67.51 30.62 61.55 25.69 55.93 20.11L49.72 13.63C47.2 10.83 44.76 7.75001 42.43 4.8ZM36.03 12.03C38.58 10.29 40.87 12.72 42.85 14.11C50.49 20.26 57.71 27.3 63.2 35.26C63.89 36.29 64.21 37.88 63.59 39.04C62.16 41.42 60.24 43.59 58.42 45.79V45.91C53.88 50.75 49.08 55.72 43.89 59.82C41.36 61.36 39.04 64.72 35.78 62.64C28.36 57.22 21.25 50.47 15.23 43.24C14.21 41.65 12.62 40.35 11.91 38.54C10.92 36.1 13.1 34.35 14.35 32.51C20.49 24.93 28.11 17.51 36.03 12.03ZM37.65 17.02L36.96 19.24L33.49 29.17C34.36 29.26 35.43 29.17 36.29 29.26V29.34L35.78 40.58L35.87 40.7C36.98 40.81 38.36 40.86 39.49 40.67V40.49L39.04 29.59L39.11 29.22L42.16 29.17C40.64 25.15 39.16 21.09 37.74 17.02H37.65V17.02ZM25.84 32.59C23.9 33.57 21.03 35.04 21.35 37.71C21.77 39.17 23.34 40.11 24.59 40.71C31.49 43.75 40.65 43.85 47.93 41.58C49.73 40.89 52.14 39.88 52.47 37.68C52.45 35.86 50.52 34.71 49.14 34.02V33.93C49.62 33.74 50.18 33.57 50.68 33.51V33.46C48.24 33.02 45.89 32.39 43.52 31.76C43.97 32.8 44.3 33.89 44.68 34.97C45.39 34.74 46.12 34.57 46.88 34.47C48.13 34.95 49.91 35.65 50.09 37.21C50.23 38.67 48.63 39.38 47.63 39.97C42.29 41.91 36.28 42.1 30.71 40.63C29.17 40.14 26.95 39.52 26.76 37.56C27.85 34.98 30.68 34.44 33.04 33.82C31.83 33.04 30.59 32.35 29.42 31.48C28.15 31.53 26.99 32.09 25.84 32.59ZM35.71 43.79C35.5 47.78 35.45 51.47 35.16 55.47C36.74 55.61 38.52 55.75 40.2 55.51L39.7 44.36L39.61 43.83C38.32 43.88 37.11 43.93 35.71 43.79Z" fill="white"/>
<path fill-rule="evenodd" clip-rule="evenodd" d="M50.43 66.61C49.03 66.61 47.79 67.58 47.79 69.23C47.79 70.89 49.03 71.86 50.43 71.86C51.82 71.86 53.06 70.89 53.06 69.23C53.06 67.58 51.82 66.61 50.43 66.61ZM50.43 71.26C49.39 71.26 48.55 70.45 48.55 69.24C48.55 68.03 49.39 67.23 50.43 67.23C51.45 67.23 52.31 68.03 52.31 69.24C52.31 70.45 51.45 71.26 50.43 71.26ZM51.61 68.67C51.61 68.02 51.18 67.82 50.45 67.82H49.39V70.65H50V69.46H50.29L50.94 70.65H51.66L50.93 69.41C51.31 69.38 51.61 69.19 51.61 68.67ZM50.53 68.98H50V68.3H50.43C50.66 68.3 50.97 68.32 50.97 68.62C50.97 68.92 50.81 68.98 50.53 68.98Z" fill="white"/>
</g>
<defs>
<clipPath id="clip0">
<rect width="75.57" height="74.58" fill="white"/>
</clipPath>
</defs>
</svg>
