<svg width="77" height="75" viewBox="0 0 77 75" fill="none" xmlns="http://www.w3.org/2000/svg">
<g clip-path="url(#clip0)">
<path d="M15.03 38.84L13.92 38.87L15.03 38.84Z" fill="white"/>
<path d="M19.8 56.7C15 51.89 12.29 46.17 11.75 39.69L5.06 40.44L4.97 40.45H4.88C4.37 40.47 3.68 40.49 3 40.58C2.85 40.6 2.71 40.62 2.56 40.64C3.41 49.18 7.18 57.16 13.26 63.24C20.29 70.27 29.63 74.14 39.57 74.14C48.94 74.14 57.78 70.7 64.65 64.41L58.1 57.86C52.99 62.4 46.48 64.88 39.58 64.88C32.11 64.88 25.08 61.98 19.8 56.7Z" fill="white"/>
<path d="M39.29 0C29.35 0 20.01 3.87 12.98 10.9C12.15 11.73 11.37 12.59 10.64 13.48L17.23 20.07C17.94 19.15 18.7 18.27 19.52 17.44C24.8 12.17 31.81 9.26 39.28 9.26C46.77 9.26 53.8 12.17 59.08 17.44C64.17 22.54 67.05 29.27 67.24 36.48C70.3 35.98 73.37 35.49 76.44 34.99C75.9 25.89 72.09 17.37 65.62 10.9C58.58 3.87 49.24 0 39.29 0Z" fill="white"/>
<path d="M3.85 6.69L0 32.72L25.97 28.8L17.22 20.06L10.64 13.47L3.85 6.69Z" fill="white"/>
<path d="M58.12 57.86L64.66 64.4L71.37 71.11L75.28 45.14L49.25 48.99L58.12 57.86Z" fill="white"/>
</g>
<defs>
<clipPath id="clip0">
<rect width="76.43" height="74.14" fill="white"/>
</clipPath>
</defs>
</svg>
