<svg width="88" height="51" viewBox="0 0 88 51" fill="none" xmlns="http://www.w3.org/2000/svg">
<g clip-path="url(#clip0)">
<path d="M3.74 16.05H0V50.01H3.74V16.05Z" fill="white"/>
<path d="M87.67 16.06H83.93V50.02H87.67V16.06Z" fill="white"/>
<path d="M82.51 41.26V44.49H5.17V35.97H34.22C34.35 36.31 34.54 36.63 34.8 36.91C35.71 37.9 37.35 38.41 39.66 38.41C40.2 38.41 40.62 38.38 40.81 38.36C42.28 38.27 43.69 37.94 45.06 37.63C46.53 37.3 47.91 36.98 49.36 36.94C49.46 36.93 49.56 36.93 49.65 36.93C51.19 36.93 52.5 37.65 54.01 38.48C54.81 38.93 55.63 39.37 56.57 39.77C58.47 40.54 61.34 41.45 64.28 41.45C65.76 41.45 67.14 41.22 68.32 40.78C70.2 40.18 71.89 39.9 73.66 39.9C74.38 39.9 75.12 39.95 75.92 40.04C76.57 40.11 77.25 40.38 77.97 40.68C78.93 41.08 79.94 41.48 81.07 41.48C81.51 41.48 81.92 41.42 82.33 41.3L82.51 41.26Z" fill="white"/>
<path d="M35.01 30.63H35.02C35.01 30.68 35.01 30.73 35.01 30.78C34.98 31.31 34.91 31.82 34.77 32.3C34.67 32.64 34.55 32.98 34.35 33.38C34.19 33.8 34.09 34.2 34.05 34.59V34.68H5.17V30.63H6.32C5.96 30.34 5.61 29.97 5.36 29.77C5.3 29.71 5.24 29.66 5.18 29.61V25.01C5.26 24.98 5.31 24.95 5.36 24.92C6.11 24.38 6.7 23.85 7.58 23.45C8.31 23.18 9.26 22.98 10.21 22.93C10.49 23.33 10.71 23.73 10.82 24.24C10.86 24.47 10.82 24.73 10.9 24.94C10.99 25.21 11.31 25.57 11.5 25.76C11.9 26.18 12.54 26.5 13.04 26.78C13.53 27.07 14.08 27.11 14.62 27.07C15.61 27.01 16.4 27.38 17.35 27.52C17.81 27.58 18.23 27.35 18.68 27.39C19.02 27.43 19.33 27.5 19.66 27.53C20.06 27.44 20.43 27.34 20.81 27.15C20.85 27.13 20.88 27.11 20.93 27.09C20.95 27.09 20.95 27.08 20.97 27.07C20.98 27.07 20.99 27.07 21 27.06C21.01 27.06 21.01 27.06 21.01 27.06C21.01 27.05 21.02 27.05 21.02 27.05C21.01 27.05 21.01 27.05 21.01 27.05C20.97 27.06 20.93 27.07 20.89 27.07C20.54 27.11 20.22 27.07 19.82 26.99C19.68 26.97 19.53 26.95 19.38 26.94C19.24 26.93 19.1 26.93 18.95 26.93H18.62C18.53 26.93 18.44 26.93 18.35 26.92C18.34 26.93 18.33 26.92 18.32 26.92H18.3C18.23 26.92 18.16 26.91 18.08 26.91C17.92 26.89 17.77 26.86 17.61 26.82C17.54 26.8 17.46 26.78 17.39 26.75C17.25 26.71 17.11 26.66 16.96 26.62H16.95C16.89 26.59 16.81 26.58 16.74 26.56C16.59 26.53 16.44 26.51 16.27 26.51H16.14C16.13 26.51 16.13 26.51 16.13 26.51C15.64 26.51 15.16 26.49 14.67 26.47C14.59 26.47 14.51 26.46 14.43 26.44C14.2 26.39 13.98 26.29 13.79 26.17C13.66 26.09 13.54 26 13.4 25.9C13.28 25.8 13.15 25.7 13.02 25.61C12.95 25.57 12.88 25.52 12.81 25.47C12.58 25.32 12.34 25.15 12.2 24.96C12.06 24.78 12.08 24.68 12.11 24.53C12.12 24.45 12.14 24.37 12.13 24.25C12.13 24.18 12.11 24.11 12.08 24.03C12.05 23.96 12.01 23.88 11.97 23.8C11.92 23.7 11.85 23.59 11.79 23.48C11.75 23.4 11.71 23.32 11.68 23.24C11.65 23.16 11.63 23.09 11.63 23.01C11.62 22.88 11.65 22.76 11.76 22.65C11.87 22.52 12.04 22.56 12.12 22.39C12.16 22.28 12.07 22.08 12.07 21.96C12.1 21.67 12.27 21.47 12.34 21.2C12.67 20.11 13.85 19.26 15.01 19.24C16.08 19.22 17.21 19.33 18.22 19.71C18.67 19.88 19.11 20.06 19.54 20.25C19.63 20.29 19.71 20.32 19.8 20.36C20.15 20.52 20.57 20.89 20.97 21.05C21.19 21.16 21.43 21.27 21.67 21.39C21.53 20.56 22.43 19.87 22.59 19.18C22.74 18.52 22.74 17.69 23.28 17.22C23.76 16.77 24.64 16.5 25.27 16.33C25.98 16.12 26.81 16.09 27.53 16.21C28.53 16.41 29.57 16.54 30.57 16.76C30.55 16.82 30.54 16.88 30.53 16.95C30.39 18.28 31.28 19.65 32 20.76C32.16 21.01 32.31 21.24 32.42 21.43C32.5 21.58 32.57 21.72 32.64 21.89C32.95 22.57 33.19 23.33 33.44 24.13C33.63 24.75 33.84 25.37 34.07 25.97C34.72 27.64 35.02 29.16 35 30.52C35 30.51 35 30.57 35.01 30.63Z" fill="white"/>
<path d="M82.51 26.43V38.91C82.32 39.27 82.09 39.58 81.92 39.95C81.64 40.03 81.36 40.07 81.08 40.07C79.47 40.07 77.88 38.84 76.1 38.64C73.16 38.28 70.66 38.55 67.9 39.44C64.52 40.69 60.42 39.8 57.12 38.46C54.36 37.3 52.31 35.34 49.27 35.53C46.34 35.62 43.58 36.78 40.72 36.95C39.83 37.03 35.22 37.26 35.46 34.73C35.48 34.49 35.54 34.22 35.66 33.92C35.85 33.52 36.01 33.11 36.13 32.7C36.31 32.03 36.41 31.36 36.43 30.67V30.64C36.49 28.9 36.07 27.11 35.39 25.4C34.86 24.05 34.53 22.56 33.93 21.24C33.85 21.07 33.76 20.89 33.67 20.71C33.3 19.97 31.83 18.18 31.94 17.06C31.96 16.83 32.05 16.62 32.23 16.46H32.24C32.31 16.41 32.37 16.36 32.44 16.32C32.45 16.31 32.47 16.3 32.48 16.3C33.48 15.74 34.44 16.3 35.5 16.61C36.8 16.97 37.99 16.97 39.36 16.97C42.03 16.97 44.65 17.03 47.32 16.55C50.09 16.05 74.32 20.03 79.95 21.45C81.48 22.97 82.11 24.64 82.51 26.43Z" fill="white"/>
<g opacity="0.86">
<path opacity="0.86" d="M21.02 27.05C21.02 27.05 21.01 27.05 21.01 27.06V27.05C21.01 27.05 21.01 27.05 21.02 27.05Z" fill="white"/>
</g>
<path d="M35.59 5.93C34.85 6.4 33.9 6.61 33.03 6.62C30.37 6.64 27.67 6.73 25.04 7.16C23.47 7.42 21.92 7.64 20.33 7.56C19.62 7.52 19.56 7.15 20.12 6.77C23.07 4.75 26.65 3.7 29.47 1.5C26.7 1.46 23.94 1.52 21.16 1.53C20.45 1.53 20.39 1.09 20.95 0.739999C21.69 0.269999 22.64 0.0599994 23.51 0.0499994C26.67 0.0399994 29.83 -0.0300006 32.98 0.0499994C33.34 0.0599994 33.89 0.249999 33.44 0.649999C30.72 3.08 27.28 4.25 24.18 6.06C25.9 5.93 27.64 5.52 29.36 5.38C31.36 5.23 33.36 5.16 35.37 5.14C36.09 5.13 36.15 5.58 35.59 5.93Z" fill="white"/>
<path d="M22.67 10.76C21.31 12.14 19.52 12.91 17.87 13.88C19.26 13.99 20.66 13.91 22.05 13.9C22.52 13.9 22.56 14.18 22.19 14.41C21.69 14.72 21.06 14.87 20.48 14.87C18.74 14.88 17.01 14.95 15.27 14.75C14.85 14.7 15.18 14.37 15.34 14.26C16.92 13.2 18.78 12.51 20.19 11.23C18.85 10.99 17.47 11.21 16.11 11.23C15.64 11.24 15.6 10.95 15.97 10.72C16.47 10.41 17.09 10.27 17.67 10.26C19.31 10.23 20.94 9.99001 22.56 10.38C22.8 10.45 22.83 10.59 22.67 10.76Z" fill="white"/>
</g>
<defs>
<clipPath id="clip0">
<rect width="87.67" height="50.01" fill="white"/>
</clipPath>
</defs>
</svg>
