<svg xmlns="http://www.w3.org/2000/svg" xmlns:xlink="http://www.w3.org/1999/xlink" viewBox="0 0 2026.99 2198.88"><defs><style>.cls-1{fill:none;}.cls-2{fill:#fef;}.cls-3{isolation:isolate;}.cls-10,.cls-11,.cls-26,.cls-28,.cls-4,.cls-5,.cls-6,.cls-7,.cls-8,.cls-9{mix-blend-mode:multiply;}.cls-4{fill:url(#radial-gradient);}.cls-5{fill:url(#radial-gradient-2);}.cls-6{fill:url(#radial-gradient-3);}.cls-7{fill:url(#radial-gradient-4);}.cls-8{fill:url(#radial-gradient-5);}.cls-9{fill:url(#radial-gradient-6);}.cls-10{fill:url(#radial-gradient-7);}.cls-11{fill:url(#radial-gradient-8);}.cls-12{fill:url(#linear-gradient);}.cls-13{fill:url(#linear-gradient-2);}.cls-14{fill:url(#linear-gradient-3);}.cls-15{fill:url(#linear-gradient-4);}.cls-16{fill:url(#linear-gradient-5);}.cls-17{fill:url(#linear-gradient-6);}.cls-18{fill:url(#linear-gradient-7);}.cls-19{fill:url(#linear-gradient-8);}.cls-20{fill:url(#linear-gradient-9);}.cls-21{fill:url(#linear-gradient-10);}.cls-22{fill:url(#linear-gradient-11);}.cls-23{fill:url(#linear-gradient-12);}.cls-24{fill:url(#radial-gradient-9);}.cls-25{fill:url(#radial-gradient-10);}.cls-26{fill:url(#radial-gradient-11);}.cls-27{fill:url(#radial-gradient-12);}.cls-28{fill:url(#radial-gradient-13);}.cls-29{fill:url(#radial-gradient-14);}.cls-30{fill:url(#radial-gradient-15);}.cls-31,.cls-32,.cls-33,.cls-34,.cls-35,.cls-36{mix-blend-mode:screen;}.cls-31{fill:url(#radial-gradient-16);}.cls-32{fill:url(#radial-gradient-17);}.cls-33{fill:url(#radial-gradient-18);}.cls-34{fill:url(#radial-gradient-19);}.cls-35{fill:url(#radial-gradient-20);}.cls-36{fill:url(#radial-gradient-21);}.cls-37{fill:#a5b7c6;}.cls-38{clip-path:url(#clip-path);}.cls-39{opacity:0.55;mix-blend-mode:color-dodge;}</style><radialGradient id="radial-gradient" cx="587.2" cy="872.52" r="84.95" gradientUnits="userSpaceOnUse"><stop offset="0" stop-color="#9fb2c0"/><stop offset="0.12" stop-color="#a7b8c5" stop-opacity="0.92"/><stop offset="0.36" stop-color="#bbc9d2" stop-opacity="0.71"/><stop offset="0.68" stop-color="#dce3e8" stop-opacity="0.37"/><stop offset="1" stop-color="#fff" stop-opacity="0"/></radialGradient><radialGradient id="radial-gradient-2" cx="1492.16" cy="328.47" r="106.78" gradientTransform="translate(669.31 -958.91) rotate(45)" xlink:href="#radial-gradient"/><radialGradient id="radial-gradient-3" cx="1002.44" cy="789.14" r="67.44" gradientUnits="userSpaceOnUse"><stop offset="0" stop-color="#9fb2c0"/><stop offset="0.22" stop-color="#afbeca"/><stop offset="0.64" stop-color="#d7dfe5"/><stop offset="1" stop-color="#fff"/></radialGradient><radialGradient id="radial-gradient-4" cx="1225.72" cy="710.69" r="155.73" gradientTransform="translate(861.54 -658.56) rotate(45)" xlink:href="#radial-gradient"/><radialGradient id="radial-gradient-5" cx="798.05" cy="1237" r="109.13" xlink:href="#radial-gradient-3"/><radialGradient id="radial-gradient-6" cx="803.7" cy="712.38" r="109.13" xlink:href="#radial-gradient"/><radialGradient id="radial-gradient-7" cx="555.82" cy="580.96" r="77.32" gradientUnits="userSpaceOnUse"><stop offset="0" stop-color="#9fb2c0"/><stop offset="0.25" stop-color="#becbd4" stop-opacity="0.68"/><stop offset="0.5" stop-color="#dae1e6" stop-opacity="0.39"/><stop offset="0.72" stop-color="#eef1f4" stop-opacity="0.18"/><stop offset="0.9" stop-color="#fafbfc" stop-opacity="0.05"/><stop offset="1" stop-color="#fff" stop-opacity="0"/></radialGradient><radialGradient id="radial-gradient-8" cx="801.89" cy="868.88" r="98.91" gradientTransform="translate(849.26 -312.53) rotate(45)" xlink:href="#radial-gradient-7"/><linearGradient id="linear-gradient" x1="1050.19" y1="292.79" x2="1123.09" y2="419.06" gradientUnits="userSpaceOnUse"><stop offset="0" stop-color="#00bbd8"/><stop offset="0.48" stop-color="#4a5197"/><stop offset="0.54" stop-color="#534d95"/><stop offset="0.64" stop-color="#6c438f"/><stop offset="0.77" stop-color="#943284"/><stop offset="0.92" stop-color="#cb1a77"/><stop offset="1" stop-color="#ed0c6e"/></linearGradient><linearGradient id="linear-gradient-2" x1="1059.65" y1="328.12" x2="1132.55" y2="454.39" gradientUnits="userSpaceOnUse"><stop offset="0" stop-color="aqua"/><stop offset="0.51" stop-color="#00bbd8"/><stop offset="1" stop-color="#ed0c6e"/></linearGradient><linearGradient id="linear-gradient-3" x1="1125.12" y1="573" x2="1246.48" y2="783.21" xlink:href="#linear-gradient"/><linearGradient id="linear-gradient-4" x1="1189.42" y1="535.88" x2="1310.78" y2="746.09" xlink:href="#linear-gradient-2"/><linearGradient id="linear-gradient-5" x1="1454.41" y1="628.69" x2="1632.86" y2="937.78" xlink:href="#linear-gradient"/><linearGradient id="linear-gradient-6" x1="1565.32" y1="564.66" x2="1743.77" y2="873.75" xlink:href="#linear-gradient-2"/><linearGradient id="linear-gradient-7" x1="749.07" y1="794.92" x2="817.85" y2="914.05" xlink:href="#linear-gradient"/><linearGradient id="linear-gradient-8" x1="791.82" y1="770.24" x2="860.6" y2="889.37" xlink:href="#linear-gradient-2"/><linearGradient id="linear-gradient-9" x1="1408.34" y1="297.87" x2="1573.73" y2="297.87" xlink:href="#linear-gradient"/><linearGradient id="linear-gradient-10" x1="1491.03" y1="215.17" x2="1491.03" y2="380.56" xlink:href="#linear-gradient-2"/><linearGradient id="linear-gradient-11" x1="769.79" y1="454.23" x2="852.48" y2="454.23" gradientTransform="translate(587.85 -640.37) rotate(45)" xlink:href="#linear-gradient"/><linearGradient id="linear-gradient-12" x1="811.14" y1="412.88" x2="811.14" y2="495.58" gradientTransform="translate(587.85 -640.37) rotate(45)" xlink:href="#linear-gradient-2"/><radialGradient id="radial-gradient-9" cx="598.61" cy="814.1" r="124.42" gradientUnits="userSpaceOnUse"><stop offset="0" stop-color="#ed0c6e"/><stop offset="0.19" stop-color="#b5097f"/><stop offset="0.39" stop-color="#83068f"/><stop offset="0.57" stop-color="#5b039b"/><stop offset="0.74" stop-color="#3f01a4"/><stop offset="0.89" stop-color="#2d00a9"/><stop offset="1" stop-color="#2700ab"/></radialGradient><radialGradient id="radial-gradient-10" cx="818.06" cy="1216.31" r="197.55" xlink:href="#radial-gradient-9"/><radialGradient id="radial-gradient-11" cx="1305.12" cy="295.71" r="32.41" gradientTransform="translate(1293.07 -1042.44) rotate(76.72)" xlink:href="#radial-gradient-3"/><radialGradient id="radial-gradient-12" cx="1022.23" cy="571.24" r="47.46" xlink:href="#radial-gradient-9"/><radialGradient id="radial-gradient-13" cx="1641.11" cy="453.85" r="32.41" gradientTransform="translate(1826.22 -1238.77) rotate(80.78)" xlink:href="#radial-gradient-3"/><radialGradient id="radial-gradient-14" cx="1645.46" cy="431.56" r="47.46" gradientTransform="translate(1688.57 -1260.52) rotate(76.72)" xlink:href="#radial-gradient-9"/><radialGradient id="radial-gradient-15" cx="1011.62" cy="751.48" r="90.63" xlink:href="#radial-gradient-9"/><radialGradient id="radial-gradient-16" cx="1149.21" cy="587.87" r="76.57" gradientTransform="translate(1543.54 -638.47) rotate(80.78)" gradientUnits="userSpaceOnUse"><stop offset="0" stop-color="#0056ef"/><stop offset="0.11" stop-color="#004acd" stop-opacity="0.86"/><stop offset="0.35" stop-color="#003085" stop-opacity="0.56"/><stop offset="0.57" stop-color="#001b4c" stop-opacity="0.32"/><stop offset="0.76" stop-color="#000c23" stop-opacity="0.15"/><stop offset="0.91" stop-color="#000309" stop-opacity="0.04"/><stop offset="1" stop-opacity="0"/></radialGradient><radialGradient id="radial-gradient-17" cx="738.29" cy="675.19" r="58.74" gradientUnits="userSpaceOnUse"><stop offset="0" stop-color="#0056ef"/><stop offset="0.13" stop-color="#0049ca" stop-opacity="0.85"/><stop offset="0.45" stop-color="#002a75" stop-opacity="0.49"/><stop offset="0.71" stop-color="#001336" stop-opacity="0.22"/><stop offset="0.9" stop-color="#00050f" stop-opacity="0.06"/><stop offset="1" stop-opacity="0"/></radialGradient><radialGradient id="radial-gradient-18" cx="841.22" cy="208.56" r="40.09" gradientTransform="translate(868.52 -656.53) rotate(77.94)" xlink:href="#radial-gradient-17"/><radialGradient id="radial-gradient-19" cx="1434.72" cy="237.39" r="58.74" gradientTransform="translate(-287.25 297.2)" xlink:href="#radial-gradient-17"/><radialGradient id="radial-gradient-20" cx="1582.1" cy="591.39" r="86.85" gradientTransform="translate(1910.31 -1062.52) rotate(80.78)" gradientUnits="userSpaceOnUse"><stop offset="0" stop-color="#0056ef"/><stop offset="0.06" stop-color="#0050dd" stop-opacity="0.92"/><stop offset="0.32" stop-color="#00348f" stop-opacity="0.6"/><stop offset="0.56" stop-color="#001d52" stop-opacity="0.34"/><stop offset="0.76" stop-color="#000d25" stop-opacity="0.16"/><stop offset="0.91" stop-color="#00040a" stop-opacity="0.04"/><stop offset="1" stop-opacity="0"/></radialGradient><radialGradient id="radial-gradient-21" cx="802.63" cy="782.96" r="59.04" gradientTransform="translate(1398.18 -164.54) rotate(77.87)" gradientUnits="userSpaceOnUse"><stop offset="0" stop-color="#0056ef"/><stop offset="0.07" stop-color="#004ed8" stop-opacity="0.9"/><stop offset="0.33" stop-color="#00328c" stop-opacity="0.59"/><stop offset="0.56" stop-color="#001d50" stop-opacity="0.33"/><stop offset="0.76" stop-color="#000d25" stop-opacity="0.15"/><stop offset="0.91" stop-color="#00040a" stop-opacity="0.04"/><stop offset="1" stop-opacity="0"/></radialGradient><clipPath id="clip-path" transform="translate(-287.25 297.82)"><rect class="cls-1" x="415.79" y="104.84" width="1946" height="1297.33" transform="translate(-189.35 830.81) rotate(-31.29)"/></clipPath><symbol id="New_Symbol_5" data-name="New Symbol 5" viewBox="0 0 1.85 1.85"><circle class="cls-2" cx="0.93" cy="0.93" r="0.93"/></symbol></defs><g class="cls-3"><g id="Layer_6" data-name="Layer 6"><circle class="cls-4" cx="587.2" cy="872.52" r="84.95"/><circle class="cls-5" cx="1492.16" cy="328.47" r="106.78" transform="translate(-82.47 1449.14) rotate(-45)"/><circle class="cls-6" cx="1002.44" cy="789.14" r="67.44"/><circle class="cls-7" cx="1225.72" cy="710.69" r="155.72" transform="translate(-430.78 1372.68) rotate(-45)"/><circle class="cls-8" cx="798.05" cy="1237" r="109.13"/><circle class="cls-9" cx="803.7" cy="712.38" r="109.13"/><circle class="cls-10" cx="555.82" cy="580.96" r="77.32"/><circle class="cls-11" cx="801.89" cy="868.88" r="98.91" transform="translate(-666.78 1119.33) rotate(-45)"/><path class="cls-12" d="M1040.66,373.59a50.34,50.34,0,0,1,4-19.73A50.94,50.94,0,0,1,1063,331.53a50.81,50.81,0,0,1,48.07-4.67,50.94,50.94,0,0,1,22.33,18.39,50.39,50.39,0,0,1,8.65,28.34,19.93,19.93,0,0,0,39.85,0,90.56,90.56,0,1,0-181.12,0,19.93,19.93,0,0,0,39.85,0Z" transform="translate(-287.25 297.82)"/><path class="cls-13" d="M1142.08,373.59a50.34,50.34,0,0,1-4,19.73,50.94,50.94,0,0,1-18.39,22.33,50.81,50.81,0,0,1-48.07,4.67,50.94,50.94,0,0,1-22.33-18.39,50.39,50.39,0,0,1-8.65-28.34,19.93,19.93,0,0,0-39.85,0,90.56,90.56,0,1,0,181.12,0,19.93,19.93,0,0,0-39.85,0Z" transform="translate(-287.25 297.82)"/><path class="cls-14" d="M1292.21,713.88h-128.6V585.29a19.93,19.93,0,1,0-39.85,0V733.8a19.92,19.92,0,0,0,19.92,19.93h148.52a19.93,19.93,0,0,0,0-39.85Z" transform="translate(-287.25 297.82)"/><path class="cls-15" d="M1143.69,605.21h128.6V733.8a19.92,19.92,0,1,0,39.84,0V585.29a19.92,19.92,0,0,0-19.92-19.93H1143.69a19.93,19.93,0,0,0,0,39.85Z" transform="translate(-287.25 297.82)"/><path class="cls-16" d="M1580.61,591.14l-26.48-15.29L1406.25,832a30.58,30.58,0,0,0,26.48,45.86h295.75A30.58,30.58,0,0,0,1755,832L1607.08,575.85a30.57,30.57,0,0,0-52.95,0l26.48,15.29-26.48,15.28,121.4,210.27H1485.68l121.4-210.27-26.47-15.28-26.48,15.28Z" transform="translate(-287.25 297.82)"/><path class="cls-17" d="M1755,832,1607.08,575.85a30.57,30.57,0,0,0-52.95,30.57L1702,862.55A30.57,30.57,0,1,0,1755,832" transform="translate(-287.25 297.82)"/><path class="cls-18" d="M797.71,780.44l-10.2-5.89-57,98.72A11.79,11.79,0,0,0,740.71,891h114a11.79,11.79,0,0,0,10.2-17.68l-57-98.72a11.79,11.79,0,0,0-20.41,0l10.2,5.89-10.2,5.89,46.79,81H761.12l46.8-81-10.21-5.89-10.2,5.89Z" transform="translate(-287.25 297.82)"/><path class="cls-19" d="M864.91,873.27l-57-98.72a11.78,11.78,0,0,0-20.41,11.78l57,98.73a11.79,11.79,0,0,0,20.41-11.79" transform="translate(-287.25 297.82)"/><path class="cls-20" d="M1539.72,221,1414.17,346.55a19.93,19.93,0,0,0,28.18,28.18l125.54-125.55A19.92,19.92,0,0,0,1539.72,221" transform="translate(-287.25 297.82)"/><path class="cls-21" d="M1414.17,249.18l125.55,125.55a19.92,19.92,0,0,0,28.17-28.18L1442.35,221a19.92,19.92,0,0,0-28.18,28.17" transform="translate(-287.25 297.82)"/><path class="cls-22" d="M884.61,244.41H795.84a10,10,0,1,0,0,19.92h88.77a10,10,0,1,0,0-19.92" transform="translate(-287.25 297.82)"/><path class="cls-23" d="M830.26,210v88.78a10,10,0,1,0,19.92,0V210a10,10,0,1,0-19.92,0" transform="translate(-287.25 297.82)"/><circle class="cls-24" cx="586.01" cy="827.13" r="62.35"/><circle class="cls-25" cx="798.05" cy="1237" r="99"/><circle class="cls-26" cx="1305.12" cy="295.71" r="32.41" transform="translate(430.21 1795.8) rotate(-76.72)"/><circle class="cls-27" cx="1017.42" cy="576.22" r="23.79"/><circle class="cls-28" cx="1641.11" cy="453.85" r="32.41" transform="translate(642.99 2298.88) rotate(-80.78)"/><circle class="cls-29" cx="1640.65" cy="436.54" r="23.79" transform="translate(551.6 2230.82) rotate(-76.72)"/><circle class="cls-30" cx="1002.44" cy="760.97" r="45.42"/><circle class="cls-31" cx="1146.99" cy="587.87" r="87.5" transform="translate(95.73 1923.7) rotate(-80.78)"/><circle class="cls-32" cx="736.58" cy="675.19" r="67.12"/><circle class="cls-33" cx="840.06" cy="208.56" r="45.81" transform="translate(173.35 1284.32) rotate(-77.94)"/><ellipse class="cls-34" cx="1145.76" cy="535.07" rx="67.12" ry="67.26"/><circle class="cls-35" cx="1579.57" cy="591.39" r="99.24" transform="translate(455.55 2353.65) rotate(-80.78)"/><circle class="cls-36" cx="800.91" cy="782.96" r="67.47" transform="translate(-420.06 1699.36) rotate(-77.87)"/><path class="cls-37" d="M1411.4,493a22.81,22.81,0,1,1,22.81-22.81A22.84,22.84,0,0,1,1411.4,493Zm0-37.83a15,15,0,1,0,15,15A15,15,0,0,0,1411.4,455.13Z" transform="translate(-287.25 297.82)"/><path class="cls-37" d="M968.14,710.85h-52v-52h52ZM925,702h34.28V667.71H925Z" transform="translate(-287.25 297.82)"/><path class="cls-37" d="M1203.35,250.36l-24.23-24.24,24.23-24.24,24.24,24.24Zm-14.08-24.24,14.08,14.09,14.09-14.09L1203.35,212Z" transform="translate(-287.25 297.82)"/><path class="cls-37" d="M1593.71,484.93h-14.14V470.79a3.61,3.61,0,1,0-7.22,0v14.14h-14.13a3.61,3.61,0,0,0,0,7.22h14.13v14.13a3.61,3.61,0,1,0,7.22,0V492.15h14.14a3.61,3.61,0,0,0,0-7.22Z" transform="translate(-287.25 297.82)"/><path class="cls-37" d="M699.26,824.3a5.78,5.78,0,1,1,8.18,0A5.8,5.8,0,0,1,699.26,824.3Z" transform="translate(-287.25 297.82)"/><path class="cls-37" d="M661.64,861.93a5.78,5.78,0,1,1,8.18,0A5.78,5.78,0,0,1,661.64,861.93Z" transform="translate(-287.25 297.82)"/><path class="cls-37" d="M624,899.55a5.78,5.78,0,1,1,8.18,0A5.78,5.78,0,0,1,624,899.55Z" transform="translate(-287.25 297.82)"/><circle class="cls-37" cx="303.23" cy="1230.9" r="5.78"/><circle class="cls-37" cx="265.61" cy="1268.52" r="5.78"/><path class="cls-37" d="M664.91,825.66a5.78,5.78,0,1,1,8.18,0A5.78,5.78,0,0,1,664.91,825.66Z" transform="translate(-287.25 297.82)"/><path class="cls-37" d="M627.28,863.29a5.78,5.78,0,1,1,8.18,0A5.8,5.8,0,0,1,627.28,863.29Z" transform="translate(-287.25 297.82)"/><circle class="cls-37" cx="306.5" cy="1194.64" r="5.78"/><path class="cls-37" d="M552,938.53a5.78,5.78,0,1,1,8.18,0A5.78,5.78,0,0,1,552,938.53Z" transform="translate(-287.25 297.82)"/><path class="cls-37" d="M514.41,976.16a5.78,5.78,0,1,1,8.18,0A5.8,5.8,0,0,1,514.41,976.16Z" transform="translate(-287.25 297.82)"/><path class="cls-37" d="M1706.46,176.88a4.41,4.41,0,1,1,6.24,0A4.4,4.4,0,0,1,1706.46,176.88Z" transform="translate(-287.25 297.82)"/><path class="cls-37" d="M1677.72,205.62a4.42,4.42,0,1,1,6.25,0A4.43,4.43,0,0,1,1677.72,205.62Z" transform="translate(-287.25 297.82)"/><path class="cls-37" d="M1649,234.35a4.42,4.42,0,1,1,6.25,0A4.41,4.41,0,0,1,1649,234.35Z" transform="translate(-287.25 297.82)"/><path class="cls-37" d="M1620.26,263.09a4.42,4.42,0,1,1,6.24,0A4.41,4.41,0,0,1,1620.26,263.09Z" transform="translate(-287.25 297.82)"/><path class="cls-37" d="M1591.52,291.82a4.42,4.42,0,1,1,6.25,0A4.43,4.43,0,0,1,1591.52,291.82Z" transform="translate(-287.25 297.82)"/><circle class="cls-37" cx="1396.09" cy="472.62" r="4.42"/><circle class="cls-37" cx="1367.36" cy="501.35" r="4.42"/><circle class="cls-37" cx="1338.62" cy="530.08" r="4.42"/><path class="cls-37" d="M1594,264.12a4.41,4.41,0,1,1,6.24,0A4.4,4.4,0,0,1,1594,264.12Z" transform="translate(-287.25 297.82)"/><circle class="cls-37" cx="1281.16" cy="587.55" r="4.42"/><path class="cls-37" d="M1274.48,877.05l-26.92-46.63a3.37,3.37,0,0,0-5.82,0l-26.92,46.63a3.36,3.36,0,0,0,2.91,5h53.84a3.36,3.36,0,0,0,2.91-5Zm-50.94-1.67,21.11-36.57,21.11,36.57Z" transform="translate(-287.25 297.82)"/><g class="cls-38"><g class="cls-39"><use width="1.85" height="1.85" transform="translate(1227.72 1054.61) rotate(-31.29) scale(2.59 2.59)" xlink:href="#New_Symbol_5"/><use width="1.85" height="1.85" transform="translate(1149.35 1106.8) rotate(-31.29) scale(2.59 2.59)" xlink:href="#New_Symbol_5"/><use width="1.85" height="1.85" transform="matrix(3.18, -1.93, 1.93, 3.18, 1065.38, 1206.79)" xlink:href="#New_Symbol_5"/><use width="1.85" height="1.85" transform="matrix(3.5, -2.13, 2.13, 3.5, 1080.86, 1233.07)" xlink:href="#New_Symbol_5"/><use width="1.85" height="1.85" transform="translate(1163.11 1216.85) rotate(-31.29) scale(2.59 2.59)" xlink:href="#New_Symbol_5"/><use width="1.85" height="1.85" transform="translate(1339.48 1174.04) rotate(-31.29) scale(2.59 2.59)" xlink:href="#New_Symbol_5"/><use width="1.85" height="1.85" transform="translate(1474 1181.01) rotate(-31.29) scale(2.59 2.59)" xlink:href="#New_Symbol_5"/><use width="1.85" height="1.85" transform="translate(1568.87 1252.05) rotate(-31.29) scale(2.59 2.59)" xlink:href="#New_Symbol_5"/><use width="1.85" height="1.85" transform="translate(1446.71 1382.38) rotate(-31.29) scale(2.59 2.59)" xlink:href="#New_Symbol_5"/><use width="1.85" height="1.85" transform="translate(1250.67 1505.32) rotate(-31.29) scale(2.59 2.59)" xlink:href="#New_Symbol_5"/><use width="1.85" height="1.85" transform="translate(1238.2 1522.22) rotate(-31.29) scale(2.59 2.59)" xlink:href="#New_Symbol_5"/><use width="1.85" height="1.85" transform="translate(1250.04 1478.77) rotate(-31.29) scale(2.59 2.59)" xlink:href="#New_Symbol_5"/><use width="1.85" height="1.85" transform="matrix(3.31, -2.01, 2.01, 3.31, 1311.26, 1263.91)" xlink:href="#New_Symbol_5"/><use width="1.85" height="1.85" transform="translate(1436.91 1238.23) rotate(-31.29) scale(2.59 2.59)" xlink:href="#New_Symbol_5"/><use width="1.85" height="1.85" transform="matrix(5.07, -3.08, 3.08, 5.07, 1626.56, 1117.9)" xlink:href="#New_Symbol_5"/><use width="1.85" height="1.85" transform="translate(1807.48 982.29) rotate(-31.29) scale(2.59 2.59)" xlink:href="#New_Symbol_5"/><use width="1.85" height="1.85" transform="translate(1857.11 733.65) rotate(-31.29) scale(2.59 2.59)" xlink:href="#New_Symbol_5"/><use width="1.85" height="1.85" transform="translate(1768.21 734.69) rotate(-31.29) scale(2.59 2.59)" xlink:href="#New_Symbol_5"/><use width="1.85" height="1.85" transform="translate(1725.46 662.85) rotate(-31.29) scale(2.59 2.59)" xlink:href="#New_Symbol_5"/><use width="1.85" height="1.85" transform="matrix(4.52, -2.75, 2.75, 4.52, 1632.78, 739.75)" xlink:href="#New_Symbol_5"/><use width="1.85" height="1.85" transform="matrix(6.57, -4, 4, 6.57, 1641.36, 758.2)" xlink:href="#New_Symbol_5"/><use width="1.85" height="1.85" transform="translate(1572.79 798.88) rotate(-31.29) scale(2.59 2.59)" xlink:href="#New_Symbol_5"/><use width="1.85" height="1.85" transform="translate(1462.18 737.78) rotate(-31.29) scale(2.59 2.59)" xlink:href="#New_Symbol_5"/><use width="1.85" height="1.85" transform="translate(1326.44 707.74) rotate(-31.29) scale(2.59 2.59)" xlink:href="#New_Symbol_5"/><use width="1.85" height="1.85" transform="translate(1212.65 732.51) rotate(-31.29) scale(2.59 2.59)" xlink:href="#New_Symbol_5"/><use width="1.85" height="1.85" transform="translate(1152.26 731.36) rotate(-31.29) scale(2.59 2.59)" xlink:href="#New_Symbol_5"/><use width="1.85" height="1.85" transform="translate(923.9 992.25) rotate(-31.29) scale(2.59 2.59)" xlink:href="#New_Symbol_5"/><use width="1.85" height="1.85" transform="translate(794.22 1026.35) rotate(-31.29) scale(2.59 2.59)" xlink:href="#New_Symbol_5"/><use width="1.85" height="1.85" transform="translate(859.83 778.37) rotate(-31.29) scale(2.59 2.59)" xlink:href="#New_Symbol_5"/><use width="1.85" height="1.85" transform="translate(1074.58 602.48) rotate(-31.29) scale(2.59 2.59)" xlink:href="#New_Symbol_5"/><use width="1.85" height="1.85" transform="translate(1181.16 519.99) rotate(-31.29) scale(2.59 2.59)" xlink:href="#New_Symbol_5"/><use width="1.85" height="1.85" transform="translate(1228.02 478.53) rotate(-31.29) scale(2.59 2.59)" xlink:href="#New_Symbol_5"/><use width="1.85" height="1.85" transform="translate(1391.02 258.49) rotate(-31.29) scale(2.59 2.59)" xlink:href="#New_Symbol_5"/><use width="1.85" height="1.85" transform="translate(1410.59 355.13) rotate(-31.29) scale(2.59 2.59)" xlink:href="#New_Symbol_5"/><use width="1.85" height="1.85" transform="translate(1261.29 583) rotate(-31.29) scale(2.59 2.59)" xlink:href="#New_Symbol_5"/><use width="1.85" height="1.85" transform="translate(970.83 873.2) rotate(-31.29) scale(2.59 2.59)" xlink:href="#New_Symbol_5"/><use width="1.85" height="1.85" transform="translate(1046.01 934.98) rotate(-31.29) scale(2.59 2.59)" xlink:href="#New_Symbol_5"/><use width="1.85" height="1.85" transform="matrix(5.48, -3.33, 3.33, 5.48, 1012.41, 1018.35)" xlink:href="#New_Symbol_5"/><use width="1.85" height="1.85" transform="translate(886.03 1174.58) rotate(-31.29) scale(2.59 2.59)" xlink:href="#New_Symbol_5"/><use width="1.85" height="1.85" transform="translate(714.26 1302.18) rotate(-31.29) scale(2.59 2.59)" xlink:href="#New_Symbol_5"/><use width="1.85" height="1.85" transform="translate(687.6 1441.59) rotate(-31.29) scale(4.44)" xlink:href="#New_Symbol_5"/><use width="1.85" height="1.85" transform="matrix(4.3, -2.61, 2.61, 4.3, 705.24, 1479.46)" xlink:href="#New_Symbol_5"/><use width="1.85" height="1.85" transform="translate(686.83 1571.25) rotate(-31.29) scale(2.59 2.59)" xlink:href="#New_Symbol_5"/><use width="1.85" height="1.85" transform="translate(708.09 1693.25) rotate(-31.29) scale(2.59 2.59)" xlink:href="#New_Symbol_5"/><use width="1.85" height="1.85" transform="translate(709.4 1645.31) rotate(-31.29) scale(2.59 2.59)" xlink:href="#New_Symbol_5"/><use width="1.85" height="1.85" transform="translate(707.93 1670.13) rotate(-31.29) scale(2.59 2.59)" xlink:href="#New_Symbol_5"/><use width="1.85" height="1.85" transform="translate(763.64 1646.96) rotate(-31.29) scale(2.59 2.59)" xlink:href="#New_Symbol_5"/><use width="1.85" height="1.85" transform="translate(713.47 1610.73) rotate(-31.29) scale(2.59 2.59)" xlink:href="#New_Symbol_5"/><use width="1.85" height="1.85" transform="translate(694.75 1610.63) rotate(-31.29) scale(2.59 2.59)" xlink:href="#New_Symbol_5"/><use width="1.85" height="1.85" transform="translate(1016.78 1655.79) rotate(-31.29) scale(2.59 2.59)" xlink:href="#New_Symbol_5"/><use width="1.85" height="1.85" transform="translate(1114.41 1642.34) rotate(-31.29) scale(3.94 3.94)" xlink:href="#New_Symbol_5"/><use width="1.85" height="1.85" transform="matrix(2.82, -1.71, 1.71, 2.82, 1164.24, 1635.34)" xlink:href="#New_Symbol_5"/><use width="1.85" height="1.85" transform="matrix(6.12, -3.72, 3.72, 6.12, 1100.05, 1551.78)" xlink:href="#New_Symbol_5"/><use width="1.85" height="1.85" transform="translate(1062.13 1510.55) rotate(-31.29) scale(2.59 2.59)" xlink:href="#New_Symbol_5"/><use width="1.85" height="1.85" transform="translate(1129.09 1506.49) rotate(-31.29) scale(4.85 4.85)" xlink:href="#New_Symbol_5"/><use width="1.85" height="1.85" transform="translate(1313.01 1511.63) rotate(-31.29) scale(2.59 2.59)" xlink:href="#New_Symbol_5"/><use width="1.85" height="1.85" transform="translate(1113.05 1660.08) rotate(-31.29) scale(2.6 2.6)" xlink:href="#New_Symbol_5"/><use width="1.85" height="1.85" transform="matrix(3.12, -1.9, 1.9, 3.12, 1008.44, 1758.67)" xlink:href="#New_Symbol_5"/><use width="1.85" height="1.85" transform="translate(966.8 1759.84) rotate(-31.29) scale(2.59 2.59)" xlink:href="#New_Symbol_5"/><use width="1.85" height="1.85" transform="matrix(4.4, -2.67, 2.67, 4.4, 923.36, 1799.68)" xlink:href="#New_Symbol_5"/><use width="1.85" height="1.85" transform="translate(1240.79 1589.54) rotate(-31.29) scale(2.59 2.59)" xlink:href="#New_Symbol_5"/><use width="1.85" height="1.85" transform="translate(1310.79 1531.68) rotate(-31.29) scale(2.59 2.59)" xlink:href="#New_Symbol_5"/><use width="1.85" height="1.85" transform="translate(1441.44 1503.14) rotate(-31.29) scale(2.59 2.59)" xlink:href="#New_Symbol_5"/><use width="1.85" height="1.85" transform="translate(1507.82 1380.56) rotate(-31.29) scale(2.59 2.59)" xlink:href="#New_Symbol_5"/><use width="1.85" height="1.85" transform="translate(1526.34 1417.14) rotate(-31.29) scale(2.59 2.59)" xlink:href="#New_Symbol_5"/><use width="1.85" height="1.85" transform="translate(1466.6 1396.84) rotate(-31.29) scale(2.59 2.59)" xlink:href="#New_Symbol_5"/><use width="1.85" height="1.85" transform="translate(1487.54 1420.22) rotate(-31.29) scale(2.59 2.59)" xlink:href="#New_Symbol_5"/><use width="1.85" height="1.85" transform="translate(1575.45 1371.68) rotate(-31.29) scale(2.59 2.59)" xlink:href="#New_Symbol_5"/><use width="1.85" height="1.85" transform="translate(1894.03 1229.63) rotate(-31.29) scale(2.59 2.59)" xlink:href="#New_Symbol_5"/><use width="1.85" height="1.85" transform="translate(1937.08 1200.26) rotate(-31.29) scale(2.59 2.59)" xlink:href="#New_Symbol_5"/><use width="1.85" height="1.85" transform="translate(2021.28 1155.35) rotate(-31.29) scale(2.59 2.59)" xlink:href="#New_Symbol_5"/><use width="1.85" height="1.85" transform="translate(1855.16 1158.81) rotate(-31.29) scale(2.59 2.59)" xlink:href="#New_Symbol_5"/><use width="1.85" height="1.85" transform="translate(1483.65 942.49) rotate(-31.29) scale(2.59 2.59)" xlink:href="#New_Symbol_5"/><use width="1.85" height="1.85" transform="translate(1465.48 1021.82) rotate(-31.29) scale(2.59 2.59)" xlink:href="#New_Symbol_5"/><use width="1.85" height="1.85" transform="translate(1369.8 905.79) rotate(-31.29) scale(2.59 2.59)" xlink:href="#New_Symbol_5"/><use width="1.85" height="1.85" transform="translate(1359.89 871.09) rotate(-31.29) scale(2.59 2.59)" xlink:href="#New_Symbol_5"/><use width="1.85" height="1.85" transform="translate(1313.84 889.71) rotate(-31.29) scale(2.59 2.59)" xlink:href="#New_Symbol_5"/><use width="1.85" height="1.85" transform="matrix(7.4, -4.5, 4.5, 7.4, 1403.97, 530.23)" xlink:href="#New_Symbol_5"/><use width="1.85" height="1.85" transform="translate(1372.11 483.04) rotate(-31.29) scale(2.97 2.97)" xlink:href="#New_Symbol_5"/><use width="1.85" height="1.85" transform="matrix(2.34, -1.42, 1.42, 2.34, 1398.91, 471.91)" xlink:href="#New_Symbol_5"/><use width="1.85" height="1.85" transform="matrix(2.66, -1.62, 1.62, 2.66, 1442.22, 419.63)" xlink:href="#New_Symbol_5"/><use width="1.85" height="1.85" transform="translate(1430.25 407.41) rotate(-31.29) scale(2.59 2.59)" xlink:href="#New_Symbol_5"/><use width="1.85" height="1.85" transform="translate(1407.8 409.64) rotate(-31.29) scale(2.59 2.59)" xlink:href="#New_Symbol_5"/><use width="1.85" height="1.85" transform="translate(1412.05 420.81) rotate(-31.29) scale(2.59 2.59)" xlink:href="#New_Symbol_5"/><use width="1.85" height="1.85" transform="translate(1520.56 523.32) rotate(-31.29) scale(2.59 2.59)" xlink:href="#New_Symbol_5"/><use width="1.85" height="1.85" transform="translate(1599.74 562.11) rotate(-31.29) scale(2.59 2.59)" xlink:href="#New_Symbol_5"/><use width="1.85" height="1.85" transform="translate(1715.2 484.09) rotate(-31.29) scale(2.59 2.59)" xlink:href="#New_Symbol_5"/><use width="1.85" height="1.85" transform="translate(881.35 805.53) rotate(-31.29) scale(2.59 2.59)" xlink:href="#New_Symbol_5"/><use width="1.85" height="1.85" transform="matrix(6.41, -3.9, 3.9, 6.41, 665.11, 824.56)" xlink:href="#New_Symbol_5"/><use width="1.85" height="1.85" transform="matrix(3.38, -2.05, 2.05, 3.38, 600.26, 819.17)" xlink:href="#New_Symbol_5"/><use width="1.85" height="1.85" transform="translate(547.54 880.03) rotate(-31.29) scale(2.59 2.59)" xlink:href="#New_Symbol_5"/><use width="1.85" height="1.85" transform="translate(484.59 843.86) rotate(-31.29) scale(2.59 2.59)" xlink:href="#New_Symbol_5"/><use width="1.85" height="1.85" transform="translate(512.58 782.47) rotate(-31.29) scale(2.59 2.59)" xlink:href="#New_Symbol_5"/><use width="1.85" height="1.85" transform="translate(421.31 832.98) rotate(-31.29) scale(2.59 2.59)" xlink:href="#New_Symbol_5"/><use width="1.85" height="1.85" transform="translate(384.2 791.89) rotate(-31.29) scale(2.59 2.59)" xlink:href="#New_Symbol_5"/><use width="1.85" height="1.85" transform="translate(414.62 849.46) rotate(-31.29) scale(2.59 2.59)" xlink:href="#New_Symbol_5"/><use width="1.85" height="1.85" transform="translate(601.77 999.45) rotate(-31.29) scale(2.59 2.59)" xlink:href="#New_Symbol_5"/><use width="1.85" height="1.85" transform="translate(539.57 992.14) rotate(-31.29) scale(2.59 2.59)" xlink:href="#New_Symbol_5"/><use width="1.85" height="1.85" transform="translate(414.43 993.84) rotate(-31.29) scale(2.59 2.59)" xlink:href="#New_Symbol_5"/><use width="1.85" height="1.85" transform="translate(463.55 1017.09) rotate(-31.29) scale(2.59 2.59)" xlink:href="#New_Symbol_5"/><use width="1.85" height="1.85" transform="translate(562.24 1082.24) rotate(-31.29) scale(2.59 2.59)" xlink:href="#New_Symbol_5"/><use width="1.85" height="1.85" transform="translate(436.14 1210.65) rotate(-31.29) scale(2.59 2.59)" xlink:href="#New_Symbol_5"/><use width="1.85" height="1.85" transform="translate(771 594.96) rotate(-31.29) scale(2.59 2.59)" xlink:href="#New_Symbol_5"/><use width="1.85" height="1.85" transform="translate(738.19 530.04) rotate(-31.29) scale(2.59 2.59)" xlink:href="#New_Symbol_5"/><use width="1.85" height="1.85" transform="translate(713.26 516.74) rotate(-31.29) scale(2.59 2.59)" xlink:href="#New_Symbol_5"/><use width="1.85" height="1.85" transform="translate(663.21 534) rotate(-31.29) scale(2.59 2.59)" xlink:href="#New_Symbol_5"/></g><g class="cls-39"><use width="1.85" height="1.85" transform="matrix(2.22, -1.35, 1.35, 2.22, 331.52, 1117.46)" xlink:href="#New_Symbol_5"/><use width="1.85" height="1.85" transform="matrix(2.22, -1.35, 1.35, 2.22, 161.81, 1023.24)" xlink:href="#New_Symbol_5"/><use width="1.85" height="1.85" transform="matrix(2.22, -1.35, 1.35, 2.22, 193.49, 989.16)" xlink:href="#New_Symbol_5"/><use width="1.85" height="1.85" transform="matrix(2.22, -1.35, 1.35, 2.22, 177.49, 923.07)" xlink:href="#New_Symbol_5"/><use width="1.85" height="1.85" transform="matrix(2.22, -1.35, 1.35, 2.22, 73.63, 1012.35)" xlink:href="#New_Symbol_5"/><use width="1.85" height="1.85" transform="matrix(2.22, -1.35, 1.35, 2.22, 59.47, 1021.08)" xlink:href="#New_Symbol_5"/><use width="1.85" height="1.85" transform="matrix(2.22, -1.35, 1.35, 2.22, 96.13, 1214.74)" xlink:href="#New_Symbol_5"/><use width="1.85" height="1.85" transform="matrix(2.22, -1.35, 1.35, 2.22, 106.64, 1132.16)" xlink:href="#New_Symbol_5"/><use width="1.85" height="1.85" transform="matrix(2.22, -1.35, 1.35, 2.22, 134.29, 1157.44)" xlink:href="#New_Symbol_5"/><use width="1.85" height="1.85" transform="matrix(2.22, -1.35, 1.35, 2.22, 240.71, 1050.02)" xlink:href="#New_Symbol_5"/><use width="1.85" height="1.85" transform="matrix(2.22, -1.35, 1.35, 2.22, 285.34, 952.61)" xlink:href="#New_Symbol_5"/><use width="1.85" height="1.85" transform="matrix(2.22, -1.35, 1.35, 2.22, 290.76, 911.75)" xlink:href="#New_Symbol_5"/><use width="1.85" height="1.85" transform="matrix(2.22, -1.35, 1.35, 2.22, 210.16, 881.18)" xlink:href="#New_Symbol_5"/><use width="1.85" height="1.85" transform="matrix(2.22, -1.35, 1.35, 2.22, 61.51, 896.05)" xlink:href="#New_Symbol_5"/><use width="1.85" height="1.85" transform="matrix(2.22, -1.35, 1.35, 2.22, 5.99, 938.38)" xlink:href="#New_Symbol_5"/><use width="1.85" height="1.85" transform="matrix(2.22, -1.35, 1.35, 2.22, -0.9, 918.24)" xlink:href="#New_Symbol_5"/><use width="1.85" height="1.85" transform="matrix(2.22, -1.35, 1.35, 2.22, 98.31, 907.79)" xlink:href="#New_Symbol_5"/><use width="1.85" height="1.85" transform="matrix(2.22, -1.35, 1.35, 2.22, 259.87, 823.47)" xlink:href="#New_Symbol_5"/><use width="1.85" height="1.85" transform="matrix(2.22, -1.35, 1.35, 2.22, 322.83, 765.57)" xlink:href="#New_Symbol_5"/><use width="1.85" height="1.85" transform="matrix(2.22, -1.35, 1.35, 2.22, 234.71, 1317.34)" xlink:href="#New_Symbol_5"/><use width="1.85" height="1.85" transform="matrix(2.22, -1.35, 1.35, 2.22, 253.85, 1379.76)" xlink:href="#New_Symbol_5"/><use width="1.85" height="1.85" transform="matrix(2.22, -1.35, 1.35, 2.22, 303.83, 1420.01)" xlink:href="#New_Symbol_5"/><use width="1.85" height="1.85" transform="matrix(2.22, -1.35, 1.35, 2.22, 306, 1506.19)" xlink:href="#New_Symbol_5"/><use width="1.85" height="1.85" transform="matrix(2.22, -1.35, 1.35, 2.22, 307.41, 1585.83)" xlink:href="#New_Symbol_5"/><use width="1.85" height="1.85" transform="matrix(2.22, -1.35, 1.35, 2.22, 318.52, 1628.05)" xlink:href="#New_Symbol_5"/><use width="1.85" height="1.85" transform="matrix(2.22, -1.35, 1.35, 2.22, 412.5, 1448.42)" xlink:href="#New_Symbol_5"/><use width="1.85" height="1.85" transform="matrix(2.22, -1.35, 1.35, 2.22, 416.35, 1421.1)" xlink:href="#New_Symbol_5"/><use width="1.85" height="1.85" transform="matrix(2.22, -1.35, 1.35, 2.22, 483.74, 1379.95)" xlink:href="#New_Symbol_5"/><use width="1.85" height="1.85" transform="matrix(2.22, -1.35, 1.35, 2.22, 479.37, 1351.35)" xlink:href="#New_Symbol_5"/><use width="1.85" height="1.85" transform="matrix(2.22, -1.35, 1.35, 2.22, 408.24, 1322.6)" xlink:href="#New_Symbol_5"/><use width="1.85" height="1.85" transform="matrix(2.22, -1.35, 1.35, 2.22, 450.65, 1310.74)" xlink:href="#New_Symbol_5"/><use width="1.85" height="1.85" transform="matrix(2.22, -1.35, 1.35, 2.22, 513.02, 1298.67)" xlink:href="#New_Symbol_5"/><use width="1.85" height="1.85" transform="matrix(2.22, -1.35, 1.35, 2.22, 549.47, 1315.69)" xlink:href="#New_Symbol_5"/><use width="1.85" height="1.85" transform="matrix(2.22, -1.35, 1.35, 2.22, 506.97, 1394.38)" xlink:href="#New_Symbol_5"/><use width="1.85" height="1.85" transform="matrix(2.22, -1.35, 1.35, 2.22, 357.41, 1575.05)" xlink:href="#New_Symbol_5"/><use width="1.85" height="1.85" transform="matrix(2.22, -1.35, 1.35, 2.22, 386.65, 1661.08)" xlink:href="#New_Symbol_5"/><use width="1.85" height="1.85" transform="matrix(2.22, -1.35, 1.35, 2.22, 456.83, 1609.37)" xlink:href="#New_Symbol_5"/><use width="1.85" height="1.85" transform="matrix(2.22, -1.35, 1.35, 2.22, 491.24, 1489.96)" xlink:href="#New_Symbol_5"/><use width="1.85" height="1.85" transform="matrix(2.22, -1.35, 1.35, 2.22, 506.81, 1507.12)" xlink:href="#New_Symbol_5"/><use width="1.85" height="1.85" transform="matrix(2.22, -1.35, 1.35, 2.22, 478.32, 1638.31)" xlink:href="#New_Symbol_5"/><use width="1.85" height="1.85" transform="matrix(2.22, -1.35, 1.35, 2.22, 522.24, 1800.08)" xlink:href="#New_Symbol_5"/><use width="1.85" height="1.85" transform="matrix(2.22, -1.35, 1.35, 2.22, 498.16, 1895.63)" xlink:href="#New_Symbol_5"/><use width="1.85" height="1.85" transform="matrix(2.22, -1.35, 1.35, 2.22, 600.34, 1851.42)" xlink:href="#New_Symbol_5"/><use width="1.85" height="1.85" transform="matrix(2.22, -1.35, 1.35, 2.22, 724.27, 1791.47)" xlink:href="#New_Symbol_5"/><use width="1.85" height="1.85" transform="matrix(2.22, -1.35, 1.35, 2.22, 627.51, 1642.06)" xlink:href="#New_Symbol_5"/><use width="1.85" height="1.85" transform="matrix(2.22, -1.35, 1.35, 2.22, 725.35, 1690.39)" xlink:href="#New_Symbol_5"/><use width="1.85" height="1.85" transform="matrix(2.22, -1.35, 1.35, 2.22, 746.97, 1748.74)" xlink:href="#New_Symbol_5"/><use width="1.85" height="1.85" transform="matrix(2.22, -1.35, 1.35, 2.22, 812.87, 1829.1)" xlink:href="#New_Symbol_5"/><use width="1.85" height="1.85" transform="matrix(2.22, -1.35, 1.35, 2.22, 778.03, 1924.18)" xlink:href="#New_Symbol_5"/><use width="1.85" height="1.85" transform="matrix(2.22, -1.35, 1.35, 2.22, 709.33, 2020.65)" xlink:href="#New_Symbol_5"/><use width="1.85" height="1.85" transform="matrix(2.22, -1.35, 1.35, 2.22, 630.63, 1748.58)" xlink:href="#New_Symbol_5"/><use width="1.85" height="1.85" transform="matrix(2.22, -1.35, 1.35, 2.22, 401.95, 1033.35)" xlink:href="#New_Symbol_5"/><use width="1.85" height="1.85" transform="matrix(2.22, -1.35, 1.35, 2.22, 434.48, 1063.07)" xlink:href="#New_Symbol_5"/><use width="1.85" height="1.85" transform="matrix(2.22, -1.35, 1.35, 2.22, 448.43, 1078.37)" xlink:href="#New_Symbol_5"/><use width="1.85" height="1.85" transform="matrix(2.22, -1.35, 1.35, 2.22, 255.93, 1152.93)" xlink:href="#New_Symbol_5"/><use width="1.85" height="1.85" transform="matrix(2.22, -1.35, 1.35, 2.22, 421.09, 693.33)" xlink:href="#New_Symbol_5"/><use width="1.85" height="1.85" transform="matrix(2.22, -1.35, 1.35, 2.22, 480.15, 650.88)" xlink:href="#New_Symbol_5"/><use width="1.85" height="1.85" transform="matrix(2.22, -1.35, 1.35, 2.22, 688.18, 497.61)" xlink:href="#New_Symbol_5"/><use width="1.85" height="1.85" transform="matrix(2.22, -1.35, 1.35, 2.22, 1293.46, 173.88)" xlink:href="#New_Symbol_5"/><use width="1.85" height="1.85" transform="matrix(2.22, -1.35, 1.35, 2.22, 1455.71, 77.01)" xlink:href="#New_Symbol_5"/><use width="1.85" height="1.85" transform="matrix(2.22, -1.35, 1.35, 2.22, 1559.79, 1.6)" xlink:href="#New_Symbol_5"/><use width="1.85" height="1.85" transform="matrix(2.22, -1.35, 1.35, 2.22, 1532.69, 83.58)" xlink:href="#New_Symbol_5"/><use width="1.85" height="1.85" transform="matrix(2.22, -1.35, 1.35, 2.22, 1562.02, 145.86)" xlink:href="#New_Symbol_5"/><use width="1.85" height="1.85" transform="matrix(2.22, -1.35, 1.35, 2.22, 1585.62, 162.45)" xlink:href="#New_Symbol_5"/><use width="1.85" height="1.85" transform="matrix(2.22, -1.35, 1.35, 2.22, 1724.88, 206.12)" xlink:href="#New_Symbol_5"/><use width="1.85" height="1.85" transform="matrix(2.22, -1.35, 1.35, 2.22, 1746.88, 235.43)" xlink:href="#New_Symbol_5"/><use width="1.85" height="1.85" transform="matrix(2.22, -1.35, 1.35, 2.22, 1564.41, 250.81)" xlink:href="#New_Symbol_5"/><use width="1.85" height="1.85" transform="matrix(2.22, -1.35, 1.35, 2.22, 1462.54, 247.64)" xlink:href="#New_Symbol_5"/><use width="1.85" height="1.85" transform="matrix(2.22, -1.35, 1.35, 2.22, 1488.07, 211.33)" xlink:href="#New_Symbol_5"/><use width="1.85" height="1.85" transform="matrix(2.22, -1.35, 1.35, 2.22, 1641.04, 62.29)" xlink:href="#New_Symbol_5"/><use width="1.85" height="1.85" transform="matrix(2.22, -1.35, 1.35, 2.22, 1666.42, 33.91)" xlink:href="#New_Symbol_5"/><use width="1.85" height="1.85" transform="matrix(2.22, -1.35, 1.35, 2.22, 1656.72, 19.6)" xlink:href="#New_Symbol_5"/><use width="1.85" height="1.85" transform="matrix(2.22, -1.35, 1.35, 2.22, 1761.65, 154.42)" xlink:href="#New_Symbol_5"/><use width="1.85" height="1.85" transform="matrix(2.22, -1.35, 1.35, 2.22, 1857.57, 267.19)" xlink:href="#New_Symbol_5"/><use width="1.85" height="1.85" transform="matrix(2.22, -1.35, 1.35, 2.22, 1853.37, 296.3)" xlink:href="#New_Symbol_5"/><use width="1.85" height="1.85" transform="matrix(2.22, -1.35, 1.35, 2.22, 1757.4, 253.58)" xlink:href="#New_Symbol_5"/><use width="1.85" height="1.85" transform="matrix(2.22, -1.35, 1.35, 2.22, 1827.65, 339.25)" xlink:href="#New_Symbol_5"/><use width="1.85" height="1.85" transform="matrix(2.22, -1.35, 1.35, 2.22, 1967.45, 417.81)" xlink:href="#New_Symbol_5"/><use width="1.85" height="1.85" transform="matrix(2.22, -1.35, 1.35, 2.22, 994.31, 344.64)" xlink:href="#New_Symbol_5"/><use width="1.85" height="1.85" transform="matrix(2.22, -1.35, 1.35, 2.22, 1171.23, 252.1)" xlink:href="#New_Symbol_5"/><use width="1.85" height="1.85" transform="matrix(2.22, -1.35, 1.35, 2.22, 1066.43, 362.77)" xlink:href="#New_Symbol_5"/><use width="1.85" height="1.85" transform="matrix(2.22, -1.35, 1.35, 2.22, 1244.93, 273.45)" xlink:href="#New_Symbol_5"/><use width="1.85" height="1.85" transform="matrix(2.22, -1.35, 1.35, 2.22, 1040.31, 481.62)" xlink:href="#New_Symbol_5"/><use width="1.85" height="1.85" transform="matrix(2.22, -1.35, 1.35, 2.22, 1224.83, 407.86)" xlink:href="#New_Symbol_5"/><use width="1.85" height="1.85" transform="matrix(2.22, -1.35, 1.35, 2.22, 640.48, 1301.67)" xlink:href="#New_Symbol_5"/><use width="1.85" height="1.85" transform="matrix(2.22, -1.35, 1.35, 2.22, 1617.49, 287.98)" xlink:href="#New_Symbol_5"/><use width="1.85" height="1.85" transform="matrix(2.22, -1.35, 1.35, 2.22, 1781.95, 323.4)" xlink:href="#New_Symbol_5"/><use width="1.85" height="1.85" transform="matrix(2.22, -1.35, 1.35, 2.22, 1858.69, 428.91)" xlink:href="#New_Symbol_5"/><use width="1.85" height="1.85" transform="matrix(2.22, -1.35, 1.35, 2.22, 2016.14, 486.9)" xlink:href="#New_Symbol_5"/><use width="1.85" height="1.85" transform="matrix(2.22, -1.35, 1.35, 2.22, 672.84, 1904.69)" xlink:href="#New_Symbol_5"/><use width="1.85" height="1.85" transform="matrix(2.22, -1.35, 1.35, 2.22, 533.73, 2195.67)" xlink:href="#New_Symbol_5"/><use width="1.85" height="1.85" transform="matrix(2.22, -1.35, 1.35, 2.22, 613.14, 1984.41)" xlink:href="#New_Symbol_5"/><use width="1.85" height="1.85" transform="matrix(2.22, -1.35, 1.35, 2.22, 634.58, 2095.34)" xlink:href="#New_Symbol_5"/><use width="1.85" height="1.85" transform="matrix(2.22, -1.35, 1.35, 2.22, 623.09, 2032.99)" xlink:href="#New_Symbol_5"/><use width="1.85" height="1.85" transform="matrix(2.22, -1.35, 1.35, 2.22, 723.35, 2062.12)" xlink:href="#New_Symbol_5"/></g></g></g></g></svg>