<svg xmlns="http://www.w3.org/2000/svg" xmlns:xlink="http://www.w3.org/1999/xlink" viewBox="0 0 1932.16 1284.97"><defs><style>.cls-1{isolation:isolate;}.cls-2{opacity:0.54;}.cls-11,.cls-12,.cls-13,.cls-14,.cls-16,.cls-18,.cls-20,.cls-21,.cls-22,.cls-23,.cls-24,.cls-25,.cls-26,.cls-3,.cls-4,.cls-49,.cls-5,.cls-6,.cls-7,.cls-74,.cls-79,.cls-8,.cls-9{fill:none;}.cls-11,.cls-12,.cls-13,.cls-14,.cls-16,.cls-18,.cls-20,.cls-21,.cls-22,.cls-23,.cls-24,.cls-25,.cls-26,.cls-3,.cls-4,.cls-5,.cls-6,.cls-7,.cls-8,.cls-9{stroke-linecap:round;stroke-linejoin:round;stroke-width:2px;}.cls-10,.cls-11,.cls-12,.cls-13,.cls-14,.cls-15,.cls-16,.cls-18,.cls-19,.cls-20,.cls-21,.cls-22,.cls-23,.cls-24,.cls-25,.cls-26,.cls-3,.cls-4,.cls-5,.cls-6,.cls-7,.cls-8,.cls-9{fill-rule:evenodd;}.cls-10,.cls-11,.cls-12,.cls-13,.cls-14,.cls-15,.cls-16,.cls-17,.cls-18,.cls-19,.cls-20,.cls-21,.cls-22,.cls-23,.cls-24,.cls-25,.cls-26,.cls-29,.cls-3,.cls-30,.cls-35,.cls-39,.cls-4,.cls-43,.cls-47,.cls-5,.cls-53,.cls-6,.cls-62,.cls-63,.cls-66,.cls-69,.cls-7,.cls-73,.cls-78,.cls-8,.cls-83,.cls-84,.cls-85,.cls-86,.cls-87,.cls-88,.cls-89,.cls-9,.cls-90,.cls-91,.cls-92{mix-blend-mode:screen;}.cls-3{stroke:url(#Degradado_sin_nombre_9);}.cls-4{stroke:url(#Degradado_sin_nombre_9-2);}.cls-5{stroke:url(#Degradado_sin_nombre_6);}.cls-6{stroke:url(#Degradado_sin_nombre_6-2);}.cls-7{stroke:url(#Degradado_sin_nombre_6-3);}.cls-8{stroke:url(#Degradado_sin_nombre_6-4);}.cls-9{stroke:url(#Degradado_sin_nombre_6-5);}.cls-10{fill:#24a2ee;}.cls-10,.cls-17{opacity:0.15;}.cls-11{stroke:url(#Degradado_sin_nombre_9-3);}.cls-12{stroke:url(#Degradado_sin_nombre_6-6);}.cls-13{stroke:url(#Degradado_sin_nombre_6-7);}.cls-14{stroke:url(#Degradado_sin_nombre_6-8);}.cls-15,.cls-17,.cls-19{fill:#0df1f9;}.cls-15{opacity:0.24;}.cls-16{stroke:url(#Degradado_sin_nombre_6-9);}.cls-18{stroke:url(#Degradado_sin_nombre_8);}.cls-19{opacity:0.28;}.cls-20{stroke:url(#Degradado_sin_nombre_9-4);}.cls-21{stroke:url(#Degradado_sin_nombre_9-5);}.cls-22{stroke:url(#Degradado_sin_nombre_6-10);}.cls-23{stroke:url(#Degradado_sin_nombre_6-11);}.cls-24{stroke:url(#Degradado_sin_nombre_6-12);}.cls-25{stroke:url(#Degradado_sin_nombre_6-13);}.cls-26{stroke:url(#Degradado_sin_nombre_6-14);}.cls-27{fill:url(#linear-gradient);}.cls-28{fill:url(#linear-gradient-2);}.cls-29{fill:url(#linear-gradient-3);}.cls-31,.cls-63{fill:#c90186;}.cls-32{fill:url(#linear-gradient-4);}.cls-33{fill:url(#linear-gradient-5);}.cls-34{fill:url(#linear-gradient-6);}.cls-35{fill:url(#linear-gradient-7);}.cls-36{fill:url(#linear-gradient-8);}.cls-37{fill:url(#linear-gradient-9);}.cls-38{fill:url(#linear-gradient-10);}.cls-39{fill:url(#linear-gradient-11);}.cls-40{fill:url(#linear-gradient-12);}.cls-41{fill:url(#linear-gradient-13);}.cls-42{fill:url(#linear-gradient-14);}.cls-43{fill:url(#linear-gradient-15);}.cls-44{fill:url(#linear-gradient-16);}.cls-45{fill:url(#linear-gradient-17);}.cls-46{fill:url(#linear-gradient-18);}.cls-47{fill:url(#linear-gradient-19);}.cls-48{fill:#00ccfe;}.cls-49,.cls-74,.cls-79{stroke:#00ccfe;stroke-miterlimit:10;}.cls-49{stroke-width:0.42px;}.cls-50{fill:url(#linear-gradient-20);}.cls-51{fill:url(#linear-gradient-21);}.cls-52{fill:url(#linear-gradient-22);}.cls-53{fill:url(#linear-gradient-23);}.cls-54{fill:url(#linear-gradient-24);}.cls-55{fill:url(#linear-gradient-25);}.cls-56{fill:url(#linear-gradient-26);}.cls-57{fill:url(#linear-gradient-27);}.cls-58{fill:url(#linear-gradient-28);}.cls-59{fill:url(#linear-gradient-29);}.cls-60{fill:url(#linear-gradient-30);}.cls-61{fill:url(#linear-gradient-31);}.cls-62{fill:url(#linear-gradient-32);}.cls-64{fill:url(#linear-gradient-33);}.cls-65{fill:url(#linear-gradient-34);}.cls-66{fill:url(#linear-gradient-35);}.cls-67{fill:url(#linear-gradient-36);}.cls-68{fill:url(#linear-gradient-37);}.cls-69{fill:url(#linear-gradient-38);}.cls-70{fill:url(#linear-gradient-39);}.cls-71{fill:url(#linear-gradient-40);}.cls-72{fill:url(#linear-gradient-41);}.cls-73{fill:url(#linear-gradient-42);}.cls-74{stroke-width:0.24px;}.cls-75{fill:url(#linear-gradient-43);}.cls-76{fill:url(#linear-gradient-44);}.cls-77{fill:url(#linear-gradient-45);}.cls-78{fill:url(#linear-gradient-46);}.cls-79{stroke-width:0.41px;}.cls-80{fill:url(#linear-gradient-47);}.cls-81{fill:url(#linear-gradient-48);}.cls-82{fill:url(#linear-gradient-49);}.cls-83{fill:url(#linear-gradient-50);}.cls-84{fill:url(#radial-gradient);}.cls-85{fill:url(#radial-gradient-2);}.cls-86{fill:url(#radial-gradient-3);}.cls-87{fill:url(#radial-gradient-4);}.cls-88{opacity:0.5;}.cls-89{fill:url(#radial-gradient-5);}.cls-90{fill:url(#radial-gradient-6);}.cls-91{fill:url(#radial-gradient-7);}.cls-92{fill:url(#radial-gradient-8);}.cls-93{fill:url(#linear-gradient-51);}.cls-94{fill:url(#linear-gradient-52);}.cls-95{fill:url(#linear-gradient-53);}.cls-96{fill:url(#linear-gradient-54);}.cls-97{fill:url(#linear-gradient-55);}.cls-98{fill:url(#linear-gradient-56);}.cls-99{fill:url(#linear-gradient-57);}.cls-100{fill:url(#linear-gradient-58);}.cls-101{fill:url(#linear-gradient-59);}.cls-102{fill:url(#linear-gradient-60);}.cls-103{fill:url(#linear-gradient-61);}.cls-104{fill:url(#linear-gradient-62);}.cls-105{fill:url(#linear-gradient-63);}</style><linearGradient id="Degradado_sin_nombre_9" x1="391.7" y1="928.42" x2="712.84" y2="928.42" gradientUnits="userSpaceOnUse"><stop offset="0"/><stop offset="0.09" stop-color="#000303"/><stop offset="0.15" stop-color="#010c0d"/><stop offset="0.22" stop-color="#021c1d"/><stop offset="0.27" stop-color="#033335"/><stop offset="0.33" stop-color="#045053"/><stop offset="0.38" stop-color="#067477"/><stop offset="0.43" stop-color="#099ea3"/><stop offset="0.48" stop-color="#0bced5"/><stop offset="0.51" stop-color="#0df1f9"/><stop offset="0.51" stop-color="#0deff7"/><stop offset="0.57" stop-color="#0ab8be"/><stop offset="0.63" stop-color="#07878b"/><stop offset="0.69" stop-color="#055d60"/><stop offset="0.75" stop-color="#033c3e"/><stop offset="0.81" stop-color="#022123"/><stop offset="0.87" stop-color="#010f0f"/><stop offset="0.93" stop-color="#000404"/><stop offset="1"/></linearGradient><linearGradient id="Degradado_sin_nombre_9-2" x1="821.34" y1="794.61" x2="1059.32" y2="794.61" xlink:href="#Degradado_sin_nombre_9"/><linearGradient id="Degradado_sin_nombre_6" x1="803.6" y1="484.81" x2="953.93" y2="484.81" gradientUnits="userSpaceOnUse"><stop offset="0"/><stop offset="0.09" stop-color="#000203"/><stop offset="0.16" stop-color="#02090d"/><stop offset="0.22" stop-color="#04141d"/><stop offset="0.28" stop-color="#082435"/><stop offset="0.33" stop-color="#0c3853"/><stop offset="0.39" stop-color="#125177"/><stop offset="0.44" stop-color="#196fa3"/><stop offset="0.49" stop-color="#2091d5"/><stop offset="0.51" stop-color="#24a2ee"/><stop offset="0.56" stop-color="#1fb4f0"/><stop offset="0.67" stop-color="#17cff4"/><stop offset="0.78" stop-color="#11e2f7"/><stop offset="0.89" stop-color="#0eedf8"/><stop offset="1" stop-color="#0df1f9"/></linearGradient><linearGradient id="Degradado_sin_nombre_6-2" x1="197.64" y1="1139.63" x2="347.97" y2="1139.63" xlink:href="#Degradado_sin_nombre_6"/><linearGradient id="Degradado_sin_nombre_6-3" x1="348.22" y1="1186.83" x2="498.55" y2="1186.83" xlink:href="#Degradado_sin_nombre_6"/><linearGradient id="Degradado_sin_nombre_6-4" x1="350.09" y1="555.17" x2="500.42" y2="555.17" gradientTransform="translate(909.46 210.34) rotate(89.47)" xlink:href="#Degradado_sin_nombre_6"/><linearGradient id="Degradado_sin_nombre_6-5" x1="461.43" y1="668.65" x2="671.69" y2="668.65" gradientTransform="translate(250.59 -60.11) rotate(37.06)" xlink:href="#Degradado_sin_nombre_6"/><linearGradient id="Degradado_sin_nombre_9-3" x1="1339.13" y1="805.67" x2="1577.11" y2="805.67" xlink:href="#Degradado_sin_nombre_9"/><linearGradient id="Degradado_sin_nombre_6-6" x1="772.82" y1="1066.97" x2="923.15" y2="1066.97" xlink:href="#Degradado_sin_nombre_6"/><linearGradient id="Degradado_sin_nombre_6-7" x1="590" y1="157.01" x2="740.33" y2="157.01" xlink:href="#Degradado_sin_nombre_6"/><linearGradient id="Degradado_sin_nombre_6-8" x1="1128.38" y1="1024.44" x2="1278.71" y2="1024.44" gradientTransform="matrix(0.69, -0.72, 0.72, 0.69, -347.8, 1181.28)" xlink:href="#Degradado_sin_nombre_6"/><linearGradient id="Degradado_sin_nombre_6-9" x1="1678.01" y1="516.49" x2="1828.35" y2="516.49" gradientTransform="matrix(0.69, -0.72, 0.72, 0.69, -347.8, 1181.28)" xlink:href="#Degradado_sin_nombre_6"/><linearGradient id="Degradado_sin_nombre_8" x1="1192.67" y1="-197.48" x2="1402.91" y2="-197.48" gradientTransform="matrix(0.82, 0.57, -0.57, 0.82, 227.75, -19.53)" gradientUnits="userSpaceOnUse"><stop offset="0"/><stop offset="0.05" stop-color="#030c11"/><stop offset="0.16" stop-color="#092a3e"/><stop offset="0.31" stop-color="#145b86"/><stop offset="0.5" stop-color="#239ee8"/><stop offset="0.51" stop-color="#24a2ee"/><stop offset="0.56" stop-color="#1fb4f0"/><stop offset="0.67" stop-color="#17cff4"/><stop offset="0.78" stop-color="#11e2f7"/><stop offset="0.89" stop-color="#0eedf8"/><stop offset="1" stop-color="#0df1f9"/></linearGradient><linearGradient id="Degradado_sin_nombre_9-4" x1="681.18" y1="396.38" x2="1002.31" y2="396.38" gradientTransform="translate(2398.1 906.93) rotate(180)" xlink:href="#Degradado_sin_nombre_9"/><linearGradient id="Degradado_sin_nombre_9-5" x1="777.82" y1="670.57" x2="1015.79" y2="670.57" gradientTransform="translate(2398.1 906.93) rotate(180)" xlink:href="#Degradado_sin_nombre_9"/><linearGradient id="Degradado_sin_nombre_6-10" x1="662.07" y1="608.76" x2="812.4" y2="608.76" gradientTransform="translate(2398.1 906.93) rotate(180)" xlink:href="#Degradado_sin_nombre_6"/><linearGradient id="Degradado_sin_nombre_6-11" x1="517.11" y1="761.59" x2="667.44" y2="761.59" gradientTransform="translate(2398.1 906.93) rotate(180)" xlink:href="#Degradado_sin_nombre_6"/><linearGradient id="Degradado_sin_nombre_6-12" x1="667.69" y1="808.78" x2="818.02" y2="808.78" gradientTransform="translate(2398.1 906.93) rotate(180)" xlink:href="#Degradado_sin_nombre_6"/><linearGradient id="Degradado_sin_nombre_6-13" x1="36.87" y1="301.5" x2="187.19" y2="301.5" gradientTransform="translate(1419.95 759.07) rotate(-90.53)" xlink:href="#Degradado_sin_nombre_6"/><linearGradient id="Degradado_sin_nombre_6-14" x1="471.41" y1="265.68" x2="681.66" y2="265.68" gradientTransform="translate(2078.83 1029.52) rotate(-142.94)" xlink:href="#Degradado_sin_nombre_6"/><linearGradient id="linear-gradient" x1="1751.87" y1="186.49" x2="1786.33" y2="245.13" gradientTransform="matrix(0.28, -0.96, 0.96, 0.28, 358.91, 2483.31)" gradientUnits="userSpaceOnUse"><stop offset="0" stop-color="#c90186"/><stop offset="1" stop-color="#2e0065"/></linearGradient><linearGradient id="linear-gradient-2" x1="1748.67" y1="190.48" x2="1817.14" y2="229.49" xlink:href="#linear-gradient"/><linearGradient id="linear-gradient-3" x1="1790.41" y1="242.22" x2="1777.98" y2="175.87" gradientTransform="matrix(0.28, -0.96, 0.96, 0.28, 427.6, 2420.83)" gradientUnits="userSpaceOnUse"><stop offset="0" stop-color="#c90186"/><stop offset="1" stop-color="#a3007d" stop-opacity="0"/></linearGradient><linearGradient id="linear-gradient-4" x1="1597.23" y1="916.74" x2="1873.16" y2="1041.98" gradientTransform="translate(-221.69 853.99) rotate(-24.49)" xlink:href="#linear-gradient"/><linearGradient id="linear-gradient-5" x1="1596.09" y1="814.24" x2="1915.59" y2="996.28" gradientTransform="translate(-221.69 853.99) rotate(-24.49)" gradientUnits="userSpaceOnUse"><stop offset="0" stop-color="#2e0065"/><stop offset="1" stop-color="#c90186"/></linearGradient><linearGradient id="linear-gradient-6" x1="1483.15" y1="955.88" x2="1792.48" y2="1096.27" gradientTransform="translate(-221.69 853.99) rotate(-24.49)" gradientUnits="userSpaceOnUse"><stop offset="0" stop-color="#18c"/><stop offset="1" stop-color="#2e0065"/></linearGradient><linearGradient id="linear-gradient-7" x1="1603.63" y1="941.74" x2="1572.79" y2="815.2" gradientTransform="matrix(0.93, -0.37, 0.37, 0.93, -162.8, 707.16)" gradientUnits="userSpaceOnUse"><stop offset="0" stop-color="#dd4fa6"/><stop offset="1" stop-color="#2e0065" stop-opacity="0"/></linearGradient><linearGradient id="linear-gradient-8" x1="1211.25" y1="357.61" x2="1209.88" y2="152.45" gradientTransform="matrix(0.94, -0.33, 0.33, 0.94, -219.06, 675.49)" xlink:href="#linear-gradient-5"/><linearGradient id="linear-gradient-9" x1="1253.18" y1="342.25" x2="1462.1" y2="259.65" gradientTransform="matrix(0.94, -0.33, 0.33, 0.94, -219.06, 675.49)" xlink:href="#linear-gradient"/><linearGradient id="linear-gradient-10" x1="1062.79" y1="408.19" x2="1337.67" y2="564.81" gradientTransform="translate(-161.97 45.9) rotate(2.45)" xlink:href="#linear-gradient-6"/><linearGradient id="linear-gradient-11" x1="1396.91" y1="571.39" x2="1354.28" y2="344.02" gradientTransform="translate(-93.28 -16.59) rotate(2.45)" xlink:href="#linear-gradient-3"/><linearGradient id="linear-gradient-12" x1="975.43" y1="93.03" x2="974.71" y2="-14.21" gradientTransform="translate(-82.16 1127.78) rotate(-38.62)" xlink:href="#linear-gradient-5"/><linearGradient id="linear-gradient-13" x1="997.34" y1="85" x2="1106.55" y2="41.82" gradientTransform="translate(-82.16 1127.78) rotate(-38.62)" xlink:href="#linear-gradient"/><linearGradient id="linear-gradient-14" x1="824.65" y1="301.32" x2="968.34" y2="383.19" gradientTransform="translate(-237.29 514.58) rotate(-16.92)" xlink:href="#linear-gradient-6"/><linearGradient id="linear-gradient-15" x1="999.31" y1="386.63" x2="977.02" y2="267.77" gradientTransform="translate(-168.61 452.1) rotate(-16.92)" xlink:href="#linear-gradient-3"/><linearGradient id="linear-gradient-16" x1="1288.83" y1="628.31" x2="1378.93" y2="679.64" gradientTransform="translate(-89.96 47.11) rotate(3.06)" gradientUnits="userSpaceOnUse"><stop offset="0" stop-color="#00ccfe"/><stop offset="1" stop-color="#1b49a1"/></linearGradient><linearGradient id="linear-gradient-17" x1="1492.74" y1="582.39" x2="1346.07" y2="699.73" gradientTransform="translate(-89.96 47.11) rotate(3.06)" gradientUnits="userSpaceOnUse"><stop offset="0" stop-color="#00ccfe"/><stop offset="1" stop-color="#18c"/></linearGradient><linearGradient id="linear-gradient-18" x1="1231.34" y1="646.94" x2="1416.21" y2="752.27" gradientTransform="translate(-89.96 47.11) rotate(3.06)" gradientUnits="userSpaceOnUse"><stop offset="0" stop-color="#18c"/><stop offset="1" stop-color="#1b49a1"/></linearGradient><linearGradient id="linear-gradient-19" x1="1419.12" y1="678.63" x2="1399.87" y2="575.96" gradientTransform="translate(-21.27 -15.37) rotate(3.06)" gradientUnits="userSpaceOnUse"><stop offset="0" stop-color="#00ccfe"/><stop offset="1" stop-color="#18c" stop-opacity="0"/></linearGradient><linearGradient id="linear-gradient-20" x1="1747.02" y1="445.91" x2="1837.1" y2="497.24" gradientTransform="matrix(-0.84, 0.55, 0.55, 0.84, 2754.06, -721.42)" xlink:href="#linear-gradient-16"/><linearGradient id="linear-gradient-21" x1="1950.94" y1="399.99" x2="1804.26" y2="517.33" gradientTransform="matrix(-0.84, 0.55, 0.55, 0.84, 2754.06, -721.42)" xlink:href="#linear-gradient-17"/><linearGradient id="linear-gradient-22" x1="1689.52" y1="464.54" x2="1874.39" y2="569.87" gradientTransform="matrix(-0.84, 0.55, 0.55, 0.84, 2754.06, -721.42)" xlink:href="#linear-gradient-18"/><linearGradient id="linear-gradient-23" x1="1877.31" y1="496.23" x2="1858.06" y2="393.56" gradientTransform="matrix(-0.84, 0.55, 0.55, 0.84, 2822.74, -783.9)" xlink:href="#linear-gradient-19"/><linearGradient id="linear-gradient-24" x1="864.56" y1="515.8" x2="970.88" y2="696.7" gradientTransform="translate(-180.3 251.37) rotate(-3.92)" xlink:href="#linear-gradient-17"/><linearGradient id="linear-gradient-25" x1="889.91" y1="569.34" x2="1148.19" y2="716.5" gradientTransform="translate(-180.3 251.37) rotate(-3.92)" xlink:href="#linear-gradient-18"/><linearGradient id="linear-gradient-26" x1="1033.01" y1="700.63" x2="998.61" y2="517.12" gradientTransform="translate(-111.62 188.89) rotate(-3.92)" xlink:href="#linear-gradient-19"/><linearGradient id="linear-gradient-27" x1="561.51" y1="-258.36" x2="610.5" y2="-175.02" gradientTransform="matrix(0.92, -0.39, 0.39, 0.92, -219.63, 728.4)" xlink:href="#linear-gradient-17"/><linearGradient id="linear-gradient-28" x1="573.19" y1="-233.69" x2="692.19" y2="-165.89" gradientTransform="matrix(0.92, -0.39, 0.39, 0.92, -219.63, 728.4)" xlink:href="#linear-gradient-18"/><linearGradient id="linear-gradient-29" x1="639.13" y1="-173.2" x2="623.27" y2="-257.75" gradientTransform="matrix(0.92, -0.39, 0.39, 0.92, -150.95, 665.92)" xlink:href="#linear-gradient-19"/><linearGradient id="linear-gradient-30" x1="2361.41" y1="-211.35" x2="2440.29" y2="-77.15" gradientTransform="matrix(-0.95, 0.32, 0.32, 0.95, 3241.97, -397.31)" xlink:href="#linear-gradient"/><linearGradient id="linear-gradient-31" x1="2453.15" y1="-130.07" x2="2644.76" y2="-20.9" gradientTransform="matrix(-0.95, 0.32, 0.32, 0.95, 3241.97, -397.31)" xlink:href="#linear-gradient"/><linearGradient id="linear-gradient-32" x1="2486.38" y1="-74.22" x2="2460.85" y2="-210.36" gradientTransform="matrix(-0.95, 0.32, 0.32, 0.95, 3310.66, -459.8)" xlink:href="#linear-gradient-3"/><linearGradient id="linear-gradient-33" x1="1963.72" y1="452.34" x2="2003.78" y2="520.51" gradientTransform="matrix(-0.95, -0.32, -0.32, 0.95, 3551.84, 764.51)" xlink:href="#linear-gradient"/><linearGradient id="linear-gradient-34" x1="1960.01" y1="456.98" x2="2039.6" y2="502.33" gradientTransform="matrix(-0.95, -0.32, -0.32, 0.95, 3551.84, 764.51)" xlink:href="#linear-gradient"/><linearGradient id="linear-gradient-35" x1="2008.53" y1="517.12" x2="1994.07" y2="439.99" gradientTransform="matrix(-0.95, -0.32, -0.32, 0.95, 3620.53, 702.02)" xlink:href="#linear-gradient-3"/><linearGradient id="linear-gradient-36" x1="3094.47" y1="514.3" x2="3134.54" y2="582.47" gradientTransform="matrix(-0.99, -0.12, -0.12, 0.99, 3545.11, 294.14)" xlink:href="#linear-gradient"/><linearGradient id="linear-gradient-37" x1="3090.76" y1="518.94" x2="3170.36" y2="564.29" gradientTransform="matrix(-0.99, -0.12, -0.12, 0.99, 3545.11, 294.14)" xlink:href="#linear-gradient"/><linearGradient id="linear-gradient-38" x1="3139.29" y1="579.08" x2="3124.83" y2="501.95" gradientTransform="matrix(-0.99, -0.12, -0.12, 0.99, 3613.8, 231.66)" xlink:href="#linear-gradient-3"/><linearGradient id="linear-gradient-39" x1="2159.88" y1="147.93" x2="2211.86" y2="177.54" gradientTransform="matrix(-0.97, -0.24, -0.24, 0.97, 3224.31, 587.14)" xlink:href="#linear-gradient-16"/><linearGradient id="linear-gradient-40" x1="2277.54" y1="121.43" x2="2192.91" y2="189.13" gradientTransform="matrix(-0.97, -0.24, -0.24, 0.97, 3224.31, 587.14)" xlink:href="#linear-gradient-17"/><linearGradient id="linear-gradient-41" x1="2126.7" y1="158.67" x2="2233.37" y2="219.45" gradientTransform="matrix(-0.97, -0.24, -0.24, 0.97, 3224.31, 587.14)" xlink:href="#linear-gradient-18"/><linearGradient id="linear-gradient-42" x1="2235.05" y1="176.96" x2="2223.95" y2="117.72" gradientTransform="matrix(-0.97, -0.24, -0.24, 0.97, 3293, 524.65)" xlink:href="#linear-gradient-19"/><linearGradient id="linear-gradient-43" x1="1305.95" y1="-303.77" x2="1392.97" y2="-254.19" gradientTransform="translate(-272.98 1531.83) rotate(-44.29)" xlink:href="#linear-gradient-16"/><linearGradient id="linear-gradient-44" x1="1502.93" y1="-348.13" x2="1361.24" y2="-234.78" gradientTransform="translate(-272.98 1531.83) rotate(-44.29)" xlink:href="#linear-gradient-17"/><linearGradient id="linear-gradient-45" x1="1250.39" y1="-285.78" x2="1428.98" y2="-184.02" gradientTransform="translate(-272.98 1531.83) rotate(-44.29)" xlink:href="#linear-gradient-18"/><linearGradient id="linear-gradient-46" x1="1431.81" y1="-255.16" x2="1413.21" y2="-354.34" gradientTransform="translate(-204.29 1469.34) rotate(-44.29)" xlink:href="#linear-gradient-19"/><linearGradient id="linear-gradient-47" x1="1871.1" y1="576.22" x2="1923.06" y2="605.83" gradientTransform="matrix(-0.44, 0.9, 0.9, 0.44, 1800.82, -1041.49)" xlink:href="#linear-gradient-16"/><linearGradient id="linear-gradient-48" x1="1988.74" y1="549.73" x2="1904.12" y2="617.43" gradientTransform="matrix(-0.44, 0.9, 0.9, 0.44, 1800.82, -1041.49)" xlink:href="#linear-gradient-17"/><linearGradient id="linear-gradient-49" x1="1837.91" y1="586.97" x2="1944.58" y2="647.74" gradientTransform="matrix(-0.44, 0.9, 0.9, 0.44, 1800.82, -1041.49)" xlink:href="#linear-gradient-18"/><linearGradient id="linear-gradient-50" x1="1946.26" y1="605.26" x2="1935.15" y2="546.02" gradientTransform="matrix(-0.44, 0.9, 0.9, 0.44, 1869.51, -1103.98)" xlink:href="#linear-gradient-19"/><radialGradient id="radial-gradient" cx="1847.12" cy="1329.53" r="156.71" gradientTransform="matrix(0.03, 0.06, -0.42, 0.24, 1752.01, 347.77)" gradientUnits="userSpaceOnUse"><stop offset="0" stop-color="#0172c9"/><stop offset="1" stop-color="#006da3" stop-opacity="0"/></radialGradient><radialGradient id="radial-gradient-2" cx="1847.12" cy="1329.53" r="99.8" xlink:href="#radial-gradient"/><radialGradient id="radial-gradient-3" cx="1309.98" cy="611.28" r="32.21" gradientTransform="translate(-144.36 498.92) rotate(-15.12)" xlink:href="#radial-gradient"/><radialGradient id="radial-gradient-4" cx="1309.98" cy="611.28" r="20.51" gradientTransform="translate(-144.36 498.92) rotate(-15.12)" xlink:href="#radial-gradient"/><radialGradient id="radial-gradient-5" cx="1307.38" cy="613.1" r="16.03" gradientTransform="translate(-144.36 498.92) rotate(-15.12)" gradientUnits="userSpaceOnUse"><stop offset="0" stop-color="#fff"/><stop offset="1" stop-color="#fff" stop-opacity="0"/></radialGradient><radialGradient id="radial-gradient-6" cx="1307.38" cy="613.1" r="10.21" xlink:href="#radial-gradient-5"/><radialGradient id="radial-gradient-7" cx="1307.38" cy="613.1" r="7.45" xlink:href="#radial-gradient-5"/><radialGradient id="radial-gradient-8" cx="1307.38" cy="613.1" r="4.74" xlink:href="#radial-gradient-5"/><linearGradient id="linear-gradient-51" x1="639.03" y1="916.5" x2="679.59" y2="776.19" gradientTransform="translate(120.67 -327.96) rotate(18.25)" gradientUnits="userSpaceOnUse"><stop offset="0" stop-color="#fff"/><stop offset="1" stop-color="#ff97f8"/></linearGradient><linearGradient id="linear-gradient-52" x1="680.59" y1="740.87" x2="850.85" y2="837.88" gradientTransform="translate(120.67 -327.96) rotate(18.25)" gradientUnits="userSpaceOnUse"><stop offset="0" stop-color="#ff97f8"/><stop offset="1" stop-color="#b148e3"/></linearGradient><linearGradient id="linear-gradient-53" x1="644.54" y1="863.87" x2="789.08" y2="879.79" gradientTransform="translate(120.67 -327.96) rotate(18.25)" gradientUnits="userSpaceOnUse"><stop offset="0" stop-color="#b148e3"/><stop offset="1" stop-color="#9322ca"/></linearGradient><linearGradient id="linear-gradient-54" x1="1609.04" y1="1042.22" x2="1632.46" y2="961.19" gradientTransform="matrix(0.79, 0.62, -0.62, 0.79, 615.09, -820.81)" xlink:href="#linear-gradient-51"/><linearGradient id="linear-gradient-55" x1="1633.04" y1="940.79" x2="1731.37" y2="996.81" gradientTransform="matrix(0.79, 0.62, -0.62, 0.79, 615.09, -820.81)" xlink:href="#linear-gradient-52"/><linearGradient id="linear-gradient-56" x1="1612.22" y1="1011.82" x2="1695.7" y2="1021.02" gradientTransform="matrix(0.79, 0.62, -0.62, 0.79, 615.09, -820.81)" xlink:href="#linear-gradient-53"/><linearGradient id="linear-gradient-57" x1="245.98" y1="1301.78" x2="271.38" y2="1213.89" gradientTransform="matrix(0.79, 0.62, -0.62, 0.79, 615.09, -820.81)" xlink:href="#linear-gradient-51"/><linearGradient id="linear-gradient-58" x1="272.01" y1="1191.77" x2="378.66" y2="1252.53" gradientTransform="matrix(0.79, 0.62, -0.62, 0.79, 615.09, -820.81)" xlink:href="#linear-gradient-52"/><linearGradient id="linear-gradient-59" x1="249.43" y1="1268.81" x2="339.97" y2="1278.78" gradientTransform="matrix(0.79, 0.62, -0.62, 0.79, 615.09, -820.81)" xlink:href="#linear-gradient-53"/><linearGradient id="linear-gradient-60" x1="1514.46" y1="124.77" x2="1541.04" y2="32.81" gradientTransform="matrix(0.85, -0.53, 0.53, 0.85, -33.35, 1148.99)" xlink:href="#linear-gradient-51"/><linearGradient id="linear-gradient-61" x1="1513.16" y1="26.53" x2="1618.93" y2="86.79" gradientTransform="matrix(0.85, -0.53, 0.53, 0.85, -33.35, 1148.99)" xlink:href="#linear-gradient-52"/><linearGradient id="linear-gradient-62" x1="760.97" y1="339.72" x2="778.4" y2="279.42" gradientTransform="translate(71.24 -398.6) rotate(26.92)" xlink:href="#linear-gradient-51"/><linearGradient id="linear-gradient-63" x1="764.8" y1="259.1" x2="834.15" y2="298.61" gradientTransform="translate(71.24 -398.6) rotate(26.92)" xlink:href="#linear-gradient-52"/></defs><g class="cls-1"><g id="Layer_3" data-name="Layer 3"><g class="cls-2"><polygon class="cls-3" points="392.7 919.43 657.9 1137.43 711.84 719.41 392.7 919.43"/><polygon class="cls-4" points="822.34 787.96 1018.44 949.16 1058.32 640.06 822.34 787.96"/><polygon class="cls-5" points="804.6 480.63 927.86 581.95 952.93 387.66 804.6 480.63"/><polygon class="cls-6" points="198.64 1135.45 321.9 1236.78 346.97 1042.48 198.64 1135.45"/><polygon class="cls-7" points="349.22 1182.65 472.48 1283.97 497.55 1089.68 349.22 1182.65"/><polygon class="cls-8" points="361.7 566.5 261.52 690.69 456.03 713.97 361.7 566.5"/><polygon class="cls-9" points="220.22 747.45 272.59 965.25 465.06 768.79 220.22 747.45"/><polygon class="cls-10" points="220.22 747.45 272.59 965.25 465.06 768.79 220.22 747.45"/></g><g class="cls-2"><polygon class="cls-11" points="1340.13 799.02 1536.23 960.22 1576.11 651.12 1340.13 799.02"/><polygon class="cls-12" points="773.82 1062.79 897.08 1164.12 922.15 969.83 773.82 1062.79"/><polygon class="cls-13" points="591 152.83 714.26 254.16 739.33 59.87 591 152.83"/><polygon class="cls-14" points="1170.45 1075.87 1328.93 1057.4 1206.41 904.55 1170.45 1075.87"/><polygon class="cls-15" points="1170.45 1075.87 1328.93 1057.4 1206.41 904.55 1170.45 1075.87"/><polygon class="cls-16" points="1186.02 327.66 1344.51 309.2 1221.98 156.34 1186.02 327.66"/><line class="cls-17" x1="1344.51" y1="309.2" x2="1221.98" y2="156.34"/><polygon class="cls-18" points="1323.84 494.99 1384.71 710.57 1569.33 506.71 1323.84 494.99"/><polygon class="cls-19" points="1323.84 494.99 1384.71 710.57 1569.33 506.71 1323.84 494.99"/></g><g class="cls-2"><polygon class="cls-20" points="1715.92 519.54 1450.73 301.54 1396.79 719.56 1715.92 519.54"/><polygon class="cls-21" points="1619.29 243.01 1423.19 81.81 1383.31 390.91 1619.29 243.01"/><polygon class="cls-22" points="1735.03 302.34 1611.77 201.02 1586.7 395.31 1735.03 302.34"/><polygon class="cls-23" points="1879.98 149.52 1756.72 48.2 1731.65 242.49 1879.98 149.52"/><polygon class="cls-24" points="1729.41 102.32 1606.15 1 1581.08 195.29 1729.41 102.32"/><polygon class="cls-25" points="1716.92 718.47 1817.11 594.28 1622.6 571 1716.92 718.47"/><polygon class="cls-26" points="1858.41 537.52 1806.04 319.72 1613.57 516.18 1858.41 537.52"/></g></g><g id="Layer_5" data-name="Layer 5"><polygon class="cls-27" points="989.5 821.39 1102.74 860.76 1046.27 888.92 989.5 821.39"/><polygon class="cls-28" points="989.5 821.39 1073.35 794.65 1102.74 860.76 989.5 821.39"/><path class="cls-29" d="M1148.3,790.24s-39.2-24-36.8-48.33l-53.31,17Z" transform="translate(-68.69 62.49)"/><g class="cls-30"><polygon class="cls-31" points="991.41 822.06 1019.28 831.64 1047.13 841.26 1074.94 850.98 1102.74 860.76 1074.87 851.19 1047.02 841.56 1019.21 831.84 991.41 822.06"/></g><polygon class="cls-32" points="1577.92 826.87 1731.41 1055.39 1569.91 1225.43 1577.92 826.87"/><polygon class="cls-33" points="1577.92 826.87 1932.16 991.95 1731.41 1055.39 1577.92 826.87"/><polygon class="cls-34" points="1932.16 991.95 1804.29 1137.96 1569.91 1225.43 1731.41 1055.39 1932.16 991.95"/><g class="cls-30"><polygon class="cls-31" points="1731.01 1055.66 1577.92 826.87 1731.82 1055.11 1731.01 1055.66"/></g><g class="cls-30"><polygon class="cls-31" points="1569.91 1225.43 1610.11 1182.75 1650.42 1140.18 1731.07 1055.06 1731.15 1054.97 1731.27 1054.93 1831.69 1023.36 1881.91 1007.59 1932.16 991.95 1882.05 1008.02 1831.88 1023.97 1731.56 1055.84 1731.76 1055.71 1650.9 1140.64 1610.47 1183.09 1569.91 1225.43"/></g><path class="cls-35" d="M1639.56,1115s14-190.61,83.73-236.49c-45.57-67-76.68-114.16-76.68-114.16h0Z" transform="translate(-68.69 62.49)"/><polygon class="cls-36" points="1084.92 341.39 1091.35 597.87 914.44 646.65 1084.92 341.39"/><polygon class="cls-37" points="1084.92 341.39 1297.2 631.94 1091.35 597.87 1084.92 341.39"/><polygon class="cls-38" points="1297.2 631.94 1093.74 689.49 914.44 646.65 1091.35 597.87 1297.2 631.94"/><path class="cls-39" d="M1153.61,278.9l4.72,158.66s76.67-26.78,207.56,131.89Z" transform="translate(-68.69 62.49)"/><g class="cls-30"><polygon class="cls-31" points="914.44 646.65 958.54 634 1002.69 621.53 1091.08 596.9 1091.29 596.84 1091.51 596.88 1194.41 614.09 1245.83 622.9 1297.2 631.94 1245.65 623.94 1194.14 615.72 1091.18 598.85 1091.61 598.83 1003.09 622.98 958.79 634.9 914.44 646.65"/></g><g class="cls-30"><polygon class="cls-31" points="1090.32 597.89 1084.92 341.39 1092.37 597.84 1090.32 597.89"/></g><polygon class="cls-40" points="711.83 450.06 759.43 575.43 680.65 630.14 711.83 450.06"/><polygon class="cls-41" points="711.83 450.06 866.85 556.56 759.43 575.43 711.83 450.06"/><polygon class="cls-42" points="866.85 556.56 776.49 620.2 680.65 630.14 759.43 575.43 866.85 556.56"/><path class="cls-43" d="M780.51,387.58,810.33,465s33.17-26.49,125.21,29.08Z" transform="translate(-68.69 62.49)"/><g class="cls-30"><polygon class="cls-31" points="680.65 630.14 700.2 616.26 719.82 602.46 759.13 575 759.23 574.93 759.34 574.91 813.07 565.57 839.95 561.01 866.85 556.56 840.04 561.55 813.22 566.42 759.52 575.95 759.73 575.86 720.26 603.11 700.48 616.66 680.65 630.14"/></g><g class="cls-30"><polygon class="cls-31" points="758.93 575.62 711.83 450.06 759.93 575.24 758.93 575.62"/></g><polygon class="cls-44" points="1247.85 647.17 1209.53 811.9 1120.47 866.16 1247.85 647.17"/><polygon class="cls-45" points="1247.85 647.17 1388.02 843.42 1209.53 811.9 1247.85 647.17"/><polygon class="cls-46" points="1388.02 843.42 1273.01 897.72 1120.47 866.16 1209.53 811.9 1388.02 843.42"/><path class="cls-47" d="M1316.53,584.68l-20.11,86.45s53.22-16.67,114.54,45.77Z" transform="translate(-68.69 62.49)"/><g class="cls-30"><polygon class="cls-48" points="1208.86 811.75 1247.85 647.17 1210.2 812.06 1208.86 811.75"/></g><path class="cls-49" d="M1196,804" transform="translate(-68.69 62.49)"/><path class="cls-48" d="M1442.43,778.42l-41.12-6.87-41.09-7-41.07-7.17-41-7.3.43-.08q-20.49,12.46-41.07,24.79c-13.69,8.27-27.46,16.4-41.19,24.6,13.58-8.45,27.12-17,40.74-25.33s27.22-16.8,40.87-25.12l.2-.13.23,0,41.07,7.19,41,7.33,41,7.45Z" transform="translate(-68.69 62.49)"/><polygon class="cls-50" points="1417.17 569.57 1533.22 692.61 1637.48 694.64 1417.17 569.57"/><polygon class="cls-51" points="1417.17 569.57 1394.88 809.71 1533.22 692.61 1417.17 569.57"/><polygon class="cls-52" points="1394.88 809.71 1521.58 798.71 1637.48 694.64 1533.22 692.61 1394.88 809.71"/><path class="cls-53" d="M1485.86,507.08l60.9,64.57s-54.38,12.39-75.92,97.21Z" transform="translate(-68.69 62.49)"/><g class="cls-30"><polygon class="cls-48" points="1533.72 692.13 1417.17 569.57 1532.72 693.08 1533.72 692.13"/></g><path class="cls-49" d="M1700.42,635.93" transform="translate(-68.69 62.49)"/><path class="cls-48" d="M1474.62,737.86l32.08-26.64,32-26.78,31.87-26.87,31.79-27-.42.15q24,.46,48,.74c16,.26,32,.35,48,.51-16-.46-32-1-47.95-1.36s-32-.81-48-1.13h-.24l-.18.16-31.85,26.89-31.77,27-31.69,27.1Z" transform="translate(-68.69 62.49)"/><polygon class="cls-54" points="818.51 609.18 823.45 979.73 676.01 891.46 818.51 609.18"/><polygon class="cls-55" points="818.51 609.18 1030.03 854.87 823.45 979.73 818.51 609.18"/><path class="cls-56" d="M890.72,810.74s53.07-107.86,116.77-124.32L887.19,546.7Z" transform="translate(-68.69 62.49)"/><polygon class="cls-48" points="821.4 979.76 818.77 628.95 825.49 979.71 821.4 979.76"/><polygon class="cls-57" points="224.59 212.62 282.85 373.12 205.32 357.03 224.59 212.62"/><polygon class="cls-58" points="224.59 212.62 353.83 287.51 282.85 373.12 224.59 212.62"/><path class="cls-59" d="M334.79,264.5s6.76-55,32-71.78c-37.38-21.65-73.5-42.59-73.5-42.59Z" transform="translate(-68.69 62.49)"/><polygon class="cls-48" points="281.96 373.44 227.7 221.18 283.73 372.8 281.96 373.44"/><polygon class="cls-60" points="838.03 110.48 939.24 366.12 1015.48 263.94 838.03 110.48"/><polygon class="cls-61" points="838.03 110.48 762.26 338.76 939.24 366.12 838.03 110.48"/><path class="cls-62" d="M978.83,230.16s-66.86-59-115.21-52.34L906.72,48Z" transform="translate(-68.69 62.49)"/><polygon class="cls-63" points="940.65 365.56 843.43 124.13 937.83 366.68 940.65 365.56"/><polygon class="cls-64" points="1541.05 508.95 1503.42 643.14 1567.79 607.96 1541.05 508.95"/><polygon class="cls-65" points="1541.05 508.95 1459.86 571.2 1503.42 643.14 1541.05 508.95"/><path class="cls-66" d="M1579.79,553.25s3.12-53.35-21.67-67.21l51.62-39.57Z" transform="translate(-68.69 62.49)"/><g class="cls-30"><path class="cls-31" d="M1609.11,448.73l-9.13,33-9.19,33-9.31,33q-4.63,16.49-9.37,32.94,4.52-16.51,9.13-33l9.19-33,9.31-33Z" transform="translate(-68.69 62.49)"/></g><polygon class="cls-67" points="394.56 380.57 385.08 519.61 440.93 472.04 394.56 380.57"/><polygon class="cls-68" points="394.56 380.57 327.76 458.06 385.08 519.61 394.56 380.57"/><path class="cls-69" d="M455.7,428.73s-7.82-52.86-34.92-61.38l42.46-49.27Z" transform="translate(-68.69 62.49)"/><g class="cls-30"><path class="cls-31" d="M463.09,320.43l-2.21,34.18-2.26,34.18L456.22,423q-1.17,17.09-2.45,34.16,1.05-17.08,2.2-34.18l2.27-34.18,2.39-34.17Z" transform="translate(-68.69 62.49)"/></g><polygon class="cls-70" points="1063.14 138.55 1056.29 235.89 1096.18 280.93 1063.14 138.55"/><polygon class="cls-71" points="1063.14 138.55 952.52 222.96 1056.29 235.89 1063.14 138.55"/><polygon class="cls-72" points="952.52 222.96 1006.71 272.43 1096.18 280.93 1056.29 235.89 952.52 222.96"/><path class="cls-73" d="M1131.83,76.06l-3.6,51.09s-26.51-18.23-70.93,5.78Z" transform="translate(-68.69 62.49)"/><g class="cls-30"><polygon class="cls-48" points="1056.69 235.92 1063.14 138.55 1055.89 235.86 1056.69 235.92"/></g><path class="cls-74" d="M1161,217.48" transform="translate(-68.69 62.49)"/><path class="cls-48" d="M1029.5,161.51l23.84,3.19,23.86,3.1,23.86,3,23.87,2.94-.22-.12q9.18,10.37,18.43,20.65c6.15,6.88,12.36,13.71,18.54,20.56-6-7-12.08-14-18.17-20.89s-12.15-13.88-18.26-20.79l-.09-.1-.14,0-23.86-3-23.88-2.93-23.88-2.85Z" transform="translate(-68.69 62.49)"/><polygon class="cls-75" points="436.54 279.54 528.51 414.59 508.77 513.38 436.54 279.54"/><polygon class="cls-76" points="436.54 279.54 667.73 308.4 528.51 414.59 436.54 279.54"/><polygon class="cls-77" points="667.73 308.4 631.04 425.65 508.77 513.38 528.51 414.59 667.73 308.4"/><path class="cls-78" d="M505.22,217.06l48.27,70.87s23-48.73,107.48-51.43Z" transform="translate(-68.69 62.49)"/><g class="cls-30"><polygon class="cls-48" points="527.96 414.96 436.54 279.54 529.06 414.21 527.96 414.96"/></g><path class="cls-79" d="M582.22,446.25" transform="translate(-68.69 62.49)"/><path class="cls-48" d="M725.29,254.4l-31.8,24.73-31.9,24.58-32,24.49-32.06,24.38.23-.36q-4.56,22.72-9.27,45.41c-3.08,15.14-6.31,30.25-9.48,45.37,2.88-15.18,5.7-30.37,8.67-45.53s5.88-30.33,8.9-45.48l0-.23.18-.13,32-24.47,32.07-24.36L693,278.53Z" transform="translate(-68.69 62.49)"/><polygon class="cls-80" points="1424.65 908.07 1518.45 934.99 1570.79 905.33 1424.65 908.07"/><polygon class="cls-81" points="1424.65 908.07 1484.24 1033.81 1518.45 934.99 1424.65 908.07"/><polygon class="cls-82" points="1484.24 1033.81 1543.89 991.08 1570.79 905.33 1518.45 934.99 1484.24 1033.81"/><path class="cls-83" d="M1493.34,845.59l49.22,14.12s-23.34,22.15-9.08,70.59C1516.54,894.54,1493.34,845.59,1493.34,845.59Z" transform="translate(-68.69 62.49)"/><g class="cls-30"><polygon class="cls-48" points="1518.56 934.61 1424.65 908.07 1518.34 935.37 1518.56 934.61"/></g><path class="cls-74" d="M1637.74,846.4" transform="translate(-68.69 62.49)"/><path class="cls-48" d="M1555.67,963.43l8.07-22.66,8-22.69,7.91-22.72,7.84-22.74-.16.2q12-6.84,24-13.75c8-4.58,16-9.24,24-13.86-8.06,4.48-16.15,8.91-24.2,13.43s-16.1,9-24.13,13.55l-.12.07,0,.13-7.9,22.72-7.83,22.74-7.75,22.77Z" transform="translate(-68.69 62.49)"/><path class="cls-84" d="M1257.1,775.88c-36.39,20.43-68.13,33-70.9,28.07s24.48-25.5,60.87-45.93S1315.2,725,1318,730,1293.49,755.44,1257.1,775.88Z" transform="translate(-68.69 62.49)"/><path class="cls-85" d="M1255.28,772.63c-23.18,13-43.39,21-45.15,17.88s15.59-16.23,38.76-29.25,43.39-21,45.15-17.88S1278.45,759.62,1255.28,772.63Z" transform="translate(-68.69 62.49)"/><path class="cls-86" d="M1310.72,739a32.2,32.2,0,1,1-39.49-22.69A32.2,32.2,0,0,1,1310.72,739Z" transform="translate(-68.69 62.49)"/><path class="cls-87" d="M1299.43,742a20.51,20.51,0,1,1-25.15-14.45A20.51,20.51,0,0,1,1299.43,742Z" transform="translate(-68.69 62.49)"/><g class="cls-88"><path class="cls-89" d="M1293.07,745.63a16,16,0,1,1-19.65-11.29A16,16,0,0,1,1293.07,745.63Z" transform="translate(-68.69 62.49)"/><path class="cls-90" d="M1287.45,747.15a10.21,10.21,0,1,1-12.52-7.19A10.21,10.21,0,0,1,1287.45,747.15Z" transform="translate(-68.69 62.49)"/></g><g class="cls-88"><path class="cls-91" d="M1284.79,747.87a7.45,7.45,0,1,1-9.14-5.25A7.45,7.45,0,0,1,1284.79,747.87Z" transform="translate(-68.69 62.49)"/><path class="cls-92" d="M1282.18,748.58a4.74,4.74,0,1,1-5.82-3.35A4.75,4.75,0,0,1,1282.18,748.58Z" transform="translate(-68.69 62.49)"/></g><polygon class="cls-93" points="582.01 546.29 527.83 675.43 420.65 710.98 582.01 546.29"/><polygon class="cls-94" points="582.01 546.29 646.56 752.01 527.83 675.43 582.01 546.29"/><polygon class="cls-95" points="646.56 752.01 539.79 778.48 420.65 710.98 527.83 675.43 646.56 752.01"/><polygon class="cls-96" points="1352.88 913.57 1298.1 973.08 1232.91 971.35 1352.88 913.57"/><polygon class="cls-97" points="1352.88 913.57 1347.56 1037.98 1298.1 973.08 1352.88 913.57"/><polygon class="cls-98" points="1347.56 1037.98 1284.37 1031.4 1232.91 971.35 1298.1 973.08 1347.56 1037.98"/><polygon class="cls-99" points="130.12 269.64 70.7 334.18 0 332.3 130.12 269.64"/><polygon class="cls-100" points="130.12 269.64 124.35 404.57 70.7 334.18 130.12 269.64"/><polygon class="cls-101" points="124.35 404.57 55.81 397.44 0 332.3 70.7 334.18 124.35 404.57"/><polygon class="cls-102" points="1265.59 309.99 1354.63 439.64 1279.43 452.55 1265.59 309.99"/><polygon class="cls-103" points="1265.59 309.99 1389.23 361.51 1354.63 439.64 1265.59 309.99"/><polygon class="cls-104" points="672.19 154.67 630.01 248.77 597.11 211.08 672.19 154.67"/><polygon class="cls-105" points="672.19 154.67 685.55 241.47 630.01 248.77 672.19 154.67"/></g></g></svg>